<?xml version="1.0" encoding="UTF-8"?>
<svg width="158px" height="39px" viewBox="0 0 158 39" version="1.1" xmlns="http://www.w3.org/2000/svg" xmlns:xlink="http://www.w3.org/1999/xlink">
    <!-- Generator: Sketch 50 (54983) - http://www.bohemiancoding.com/sketch -->
    <title>Pay</title>
    <desc>Created with Sketch.</desc>
    <defs></defs>
    <g id="账号中心修改" stroke="none" stroke-width="1" fill="none" fill-rule="evenodd">
        <g id="Pay" fill="#1FA0E8">
            <path d="M154.675,18.905 C154.461,19.385 154.242,19.795 154.018,20.137 C153.794,20.478 153.543,20.761 153.265,20.985 C152.988,21.209 152.678,21.371 152.336,21.473 C151.995,21.574 151.6,21.625 151.151,21.625 C150.852,21.625 150.556,21.593 150.262,21.529 C149.968,21.465 149.747,21.395 149.597,21.321 L149.949,19.769 C150.335,19.918 150.716,19.993 151.091,19.993 C151.594,19.993 151.988,19.873 152.272,19.633 C152.556,19.393 152.805,19.022 153.019,18.521 C152.409,17.348 151.822,16.068 151.26,14.681 C150.697,13.294 150.196,11.822 149.757,10.265 L151.821,10.265 C151.928,10.713 152.059,11.198 152.215,11.721 C152.37,12.244 152.539,12.774 152.721,13.313 C152.903,13.852 153.095,14.388 153.299,14.921 C153.502,15.454 153.706,15.95 153.909,16.409 C154.249,15.46 154.568,14.449 154.865,13.377 C155.162,12.305 155.433,11.268 155.677,10.265 L157.677,10.265 C156.815,13.444 155.814,16.324 154.675,18.905 Z M145.085,18.809 C144.584,18.809 144.125,18.761 143.709,18.665 C143.293,18.569 142.939,18.414 142.645,18.201 C142.352,17.988 142.123,17.71 141.957,17.369 C141.792,17.028 141.709,16.606 141.709,16.105 C141.709,15.625 141.803,15.22 141.989,14.889 C142.176,14.558 142.429,14.289 142.749,14.081 C143.069,13.873 143.44,13.724 143.861,13.633 C144.283,13.542 144.723,13.497 145.181,13.497 C145.395,13.497 145.619,13.51 145.853,13.537 C146.088,13.564 146.339,13.609 146.605,13.673 L146.605,13.353 C146.605,13.129 146.579,12.916 146.525,12.713 C146.472,12.51 146.379,12.332 146.245,12.177 C146.112,12.022 145.936,11.902 145.717,11.817 C145.499,11.732 145.224,11.689 144.893,11.689 C144.445,11.689 144.035,11.721 143.661,11.785 C143.288,11.849 142.984,11.924 142.749,12.009 L142.509,10.441 C142.755,10.356 143.112,10.27 143.581,10.185 C144.051,10.1 144.552,10.057 145.085,10.057 C145.725,10.057 146.264,10.137 146.701,10.297 C147.139,10.457 147.488,10.681 147.749,10.969 C148.011,11.257 148.197,11.606 148.309,12.017 C148.421,12.428 148.477,12.878 148.477,13.369 L148.477,18.441 C148.179,18.505 147.728,18.582 147.125,18.673 C146.523,18.763 145.843,18.809 145.085,18.809 Z M146.605,15.033 C146.499,15.001 146.344,14.969 146.141,14.937 C145.939,14.905 145.715,14.889 145.469,14.889 C145.256,14.889 145.04,14.905 144.821,14.937 C144.603,14.969 144.405,15.028 144.229,15.113 C144.053,15.198 143.912,15.318 143.805,15.473 C143.699,15.628 143.645,15.822 143.645,16.057 C143.645,16.516 143.789,16.833 144.077,17.009 C144.365,17.185 144.755,17.273 145.245,17.273 C145.843,17.273 146.296,17.241 146.605,17.177 L146.605,15.033 Z M139.214,13.873 C138.776,14.166 138.243,14.382 137.614,14.521 C136.984,14.66 136.264,14.729 135.454,14.729 L134.446,14.729 L134.446,18.633 L132.43,18.633 L132.43,7.705 C132.899,7.598 133.419,7.526 133.99,7.489 C134.56,7.452 135.086,7.433 135.566,7.433 C137.176,7.433 138.411,7.726 139.27,8.313 C140.128,8.9 140.558,9.817 140.558,11.065 C140.558,11.716 140.443,12.273 140.214,12.737 C139.984,13.201 139.651,13.58 139.214,13.873 Z M138.238,10.137 C138.099,9.892 137.907,9.7 137.662,9.561 C137.416,9.422 137.126,9.324 136.79,9.265 C136.454,9.206 136.094,9.177 135.71,9.177 C135.198,9.177 134.776,9.193 134.446,9.225 L134.446,13.001 L135.422,13.001 C136.392,13.001 137.139,12.865 137.662,12.593 C138.184,12.321 138.446,11.806 138.446,11.049 C138.446,10.686 138.376,10.382 138.238,10.137 Z M116.944,38.296 C115.372,38.297 113.827,37.692 112.642,36.543 C112.31,36.211 112.127,35.763 112.137,35.31 C112.146,34.871 112.328,34.469 112.651,34.176 C113.283,33.543 114.314,33.519 114.986,34.131 C115.411,34.517 116.088,34.976 116.91,34.976 C118.409,34.976 119.635,33.754 119.635,32.261 L119.635,29.393 L116.933,29.393 C113.582,29.393 110.865,26.685 110.865,23.347 L110.865,13.912 C110.865,10.573 113.582,7.865 116.933,7.865 L123.001,7.865 L123.001,32.117 C123.001,34.592 121.604,36.809 119.443,37.767 C118.637,38.122 117.786,38.296 116.944,38.296 Z M119.635,11.22 L116.933,11.22 C115.441,11.22 114.231,12.425 114.231,13.912 L114.231,23.347 C114.231,24.834 115.441,26.039 116.933,26.039 L119.635,26.039 L119.635,11.22 Z M104.653,29.567 C104.432,29.567 104.208,29.523 103.997,29.435 C103.374,29.177 102.971,28.548 102.971,27.835 L102.971,13.912 C102.971,12.425 101.762,11.22 100.269,11.22 L97.567,11.22 L97.567,27.828 C97.567,28.189 97.48,28.554 97.269,28.846 C96.785,29.52 95.943,29.733 95.227,29.435 C94.613,29.18 94.201,28.537 94.201,27.835 L94.201,7.865 L100.269,7.865 C103.621,7.865 106.338,10.573 106.338,13.912 L106.338,27.863 C106.338,28.145 106.286,28.433 106.146,28.679 C105.815,29.263 105.239,29.567 104.653,29.567 Z M82.23,29.484 C79.281,29 77.187,26.338 77.187,23.36 L77.187,13.899 C77.187,10.92 79.281,8.259 82.23,7.774 C86.027,7.152 89.323,10.069 89.323,13.737 L89.323,23.522 C89.323,27.191 86.027,30.107 82.23,29.484 Z M85.957,13.848 C85.957,12.466 84.835,11.142 83.45,11.052 C81.844,10.945 80.554,12.163 80.554,13.737 L80.554,23.522 C80.554,25.096 81.844,26.314 83.45,26.207 C84.835,26.115 85.957,24.793 85.957,23.411 L85.957,13.848 Z M66.768,29.393 L64.066,29.393 L64.066,36.604 C64.066,36.886 64.015,37.173 63.875,37.419 C63.543,38.002 62.967,38.305 62.382,38.305 C62.16,38.305 61.938,38.261 61.726,38.173 C61.112,37.918 60.7,37.275 60.7,36.573 L60.7,7.865 L66.768,7.865 C70.119,7.865 72.836,10.573 72.836,13.912 L72.836,23.347 C72.836,26.685 70.119,29.393 66.768,29.393 Z M69.47,13.912 C69.47,12.425 68.26,11.22 66.768,11.22 L64.066,11.22 L64.066,26.039 L66.768,26.039 C68.26,26.039 69.47,24.834 69.47,23.347 L69.47,13.912 Z M49.415,38.296 C47.843,38.296 46.298,37.692 45.113,36.543 C44.781,36.211 44.597,35.763 44.607,35.31 C44.617,34.871 44.799,34.469 45.121,34.176 C45.755,33.542 46.788,33.519 47.459,34.133 C47.881,34.519 48.557,34.976 49.381,34.976 C50.879,34.976 52.105,33.754 52.105,32.261 L52.105,29.393 L49.404,29.393 C46.052,29.393 43.335,26.685 43.335,23.347 L43.335,13.912 C43.335,10.573 46.052,7.865 49.404,7.865 L55.472,7.865 L55.472,32.117 C55.472,34.592 54.074,36.81 51.912,37.767 C51.107,38.122 50.257,38.296 49.415,38.296 Z M52.105,11.22 L49.404,11.22 C47.911,11.22 46.702,12.425 46.702,13.912 L46.702,23.347 C46.702,24.834 47.911,26.039 49.404,26.039 L52.105,26.039 L52.105,11.22 Z M36.468,29.435 C35.854,29.18 35.441,28.537 35.441,27.835 L35.442,13.912 C35.442,12.425 34.232,11.22 32.74,11.22 L30.038,11.22 L30.038,27.853 C30.038,28.136 29.988,28.424 29.85,28.67 C29.521,29.26 28.943,29.567 28.355,29.567 C28.133,29.567 27.91,29.523 27.698,29.435 C27.075,29.177 26.672,28.548 26.672,27.835 L26.672,7.865 L32.74,7.865 C36.091,7.865 38.808,10.573 38.808,13.912 L38.808,27.836 C38.808,28.196 38.719,28.562 38.506,28.853 C38.02,29.522 37.18,29.732 36.468,29.435 Z M19.009,4.853 C18.301,4.664 17.728,4.094 17.54,3.388 C17.112,1.782 18.549,0.349 20.161,0.776 C20.869,0.964 21.442,1.535 21.63,2.24 C22.058,3.847 20.621,5.279 19.009,4.853 Z M6.956,29.393 L4.255,29.393 L4.255,36.592 C4.255,36.875 4.204,37.162 4.066,37.408 C3.737,37.998 3.159,38.305 2.571,38.305 C2.349,38.305 2.126,38.261 1.914,38.173 C1.291,37.915 0.888,37.286 0.888,36.573 L0.888,7.865 L6.956,7.865 C10.308,7.865 13.024,10.573 13.024,13.912 L13.024,23.347 C13.024,26.685 10.308,29.393 6.956,29.393 Z M9.658,13.912 C9.658,12.425 8.448,11.22 6.956,11.22 L4.255,11.22 L4.255,26.039 L6.956,26.039 C8.448,26.039 9.658,24.834 9.658,23.347 L9.658,13.912 Z M19.309,7.712 C20.381,7.552 21.268,8.338 21.268,9.368 L21.268,27.891 C21.268,28.92 20.381,29.707 19.309,29.546 C18.482,29.424 17.902,28.661 17.902,27.828 L17.902,9.432 C17.902,8.598 18.482,7.834 19.309,7.712 Z" id="Shape"></path>
        </g>
    </g>
</svg>