<?xml version="1.0" encoding="utf-8"?>
<!-- Generator: Adobe Illustrator 26.0.3, SVG Export Plug-In . SVG Version: 6.00 Build 0)  -->
<svg version="1.0" id="katman_1" xmlns="http://www.w3.org/2000/svg" xmlns:xlink="http://www.w3.org/1999/xlink" x="0px" y="0px"
	 viewBox="0 0 600 450" style="enable-background:new 0 0 600 450;" xml:space="preserve">
<style type="text/css">
	.st0{fill:url(#SVGID_1_);}
	.st1{fill:url(#SVGID_00000000193081254551236660000015207951024520614071_);}
	.st2{fill:url(#SVGID_00000144336504933651552020000011225252930632566461_);}
	.st3{fill:#1C1C1C;}
</style>
<linearGradient id="SVGID_1_" gradientUnits="userSpaceOnUse" x1="217.2603" y1="108.1631" x2="318.9274" y2="201.662" gradientTransform="matrix(1 0 0 -1 -120.9449 379.3622)">
	<stop  offset="0" style="stop-color:#943089"/>
	<stop  offset="1" style="stop-color:#E7338B"/>
</linearGradient>
<path class="st0" d="M140.2,215c-0.5-0.7-6.1-7.5-6.1-7.5v43.3c0,3.5,2.9,6.4,6.4,6.4s6.4-2.9,6.4-6.4l-0.1-28.5
	C144.9,220.4,143.1,218.4,140.2,215z"/>
<linearGradient id="SVGID_00000100344383968484187910000006174554261479784090_" gradientUnits="userSpaceOnUse" x1="217.7726" y1="74.0634" x2="287.0759" y2="194.1127" gradientTransform="matrix(1 0 0 -1 -120.9449 379.3622)">
	<stop  offset="9.012310e-03" style="stop-color:#943089"/>
	<stop  offset="1" style="stop-color:#E7338B"/>
</linearGradient>
<path style="fill:url(#SVGID_00000100344383968484187910000006174554261479784090_);" d="M198.9,240.5c-2.2,0-4.3-0.5-6.2-1.4
	c-0.1,1.4,0.4,5.7-6.4,10.6c-0.5,0.3-27.7,17.6-33.4,20.5c-7.4,3.7-15.6,2.6-20.4,0.1c-1.9-0.8-25.7-15-26.7-15.7
	c-1.8-1.3-4.7-3.7-5.6-6.9c-0.8-2.7-0.8-7-0.8-7v-36c0-5.6,1.6-15.6,11.8-20c10.9-4,16.8,2.3,22.5,9.2c0.4,0.5,11.5,15.2,16.4,19.5
	c6.3,5.6,12.7,8.5,20.3,8.5c20.6,0,28.4-16.3,28.4-28.3c0-15.6-12.8-28.3-28.5-28.3c-9.7,0-18.7,4.9-23.9,13c1,1.1,3.4,4.1,3.8,4.5
	c0.1,0.1,4.2,5.4,4.4,5.7c0.7-0.9,6.6-10.2,15.7-10.2c9.3,0,15.3,7.2,15.3,15.3c0,8.4-6.8,15.2-15.1,15.2c-4.9,0-8-1.7-11.9-5.2
	c-3.9-3.5-13.6-16.3-13.6-16.3c-0.8-1.1-7.6-9.2-12.4-12.4c-6-4-14.4-6.5-25.7-2.7c-11.2,3.8-20.6,15.9-20.6,32.6l0.1,36
	c0,1.4-0.1,5.9,1,10.1c1.8,7,5.2,10.9,12.1,15.2c3.3,1.9,22.3,13.2,25.2,14.8c5.6,3,11.1,4.5,18.5,4.5c5.7,0,11.3-1.4,16-3.8
	c7.6-3.9,32.3-19.7,33.9-20.7c7.2-4.9,13.2-12.6,12.5-22.1C203.7,239.9,201.4,240.5,198.9,240.5z"/>
<linearGradient id="SVGID_00000067919071520922205240000016515244328399704486_" gradientUnits="userSpaceOnUse" x1="240.3884" y1="80.2749" x2="345.9399" y2="177.3462" gradientTransform="matrix(1 0 0 -1 -120.9449 379.3622)">
	<stop  offset="0" style="stop-color:#943089"/>
	<stop  offset="1" style="stop-color:#E7338B"/>
</linearGradient>
<path style="fill:url(#SVGID_00000067919071520922205240000016515244328399704486_);" d="M198.9,233.5c4.2,0,7.6-3.4,7.6-7.5
	c0-4.1-3.4-7.5-7.6-7.5c-4.2,0-7.6,3.4-7.6,7.5C191.4,230.2,194.7,233.5,198.9,233.5z"/>
<path class="st3" d="M250.6,280.8c-4,0-7.1-3.3-7.1-7.1v-52.4c0-9.9,6.9-25.5,27.4-25.5c3.5,0,25.5,0,25.5,28.8
	c0,27.9-16.1,29.5-22.7,29.5c-8.7,0-14.4-5.4-16.1-8.5v28.1C257.7,277.5,254.6,280.8,250.6,280.8z M281.8,225.1
	c0-5.4-0.9-9.7-3.1-12.8c-2.1-3.1-5.2-4.5-9-4.5s-6.9,1.4-9,4.5c-1.9,2.6-2.8,6.9-2.8,12.8c0,5.4,0.9,9.4,3.1,12
	c2.1,3.1,5.2,4.5,9,4.5c3.5,0,6.6-1.4,8.7-4.5C280.9,234.3,281.8,230.2,281.8,225.1z"/>
<path class="st3" d="M378.7,253.2c-4.3,0-7.8-3.3-7.8-7.3v-41.3c0-4,3.5-7.3,7.8-7.3c4.3,0,7.8,3.3,7.8,7.3v41.3
	C386.5,249.9,382.9,253.2,378.7,253.2z"/>
<path class="st3" d="M378.8,171.5c-4.5,0-8.1,3.7-8.1,8.3s3.7,8.3,8.1,8.3s8.1-3.7,8.1-8.3S383.3,171.5,378.8,171.5z"/>
<path class="st3" d="M444.8,169.8c-4,0-7.1,3.3-7.1,7.1v27.6c-1.7-2.6-4-5-6.9-6.6c-2.6-1.4-5.7-2.1-9.2-2.1c-6.6,0-12,2.8-16.3,8.3
	c-4,5.4-6.1,12.5-6.1,21.3c0,9,2.1,16.1,6.1,21.3c2.1,2.6,5,4.7,8.5,5.9c3.5,1.2,7.1,1.9,10.9,1.9c6.9,0,13-1.7,18.9-5.2
	c5.7-3.5,8.7-10.4,8.7-20.3v-52C452.2,172.8,448.9,169.8,444.8,169.8z M434.9,237.6c-2.1,3.1-5,4.5-9,4.5c-4,0-7.1-1.4-9-4.5
	c-2.1-3.1-3.1-7.3-3.1-12.8c0-5,0.9-9,3.1-11.8c2.1-3.1,5-4.5,8.7-4.5c3.8,0,6.9,1.4,9,4.3c2.1,3.1,3.1,7.1,3.1,12
	C437.8,230.2,436.8,234.7,434.9,237.6z"/>
<path class="st3" d="M350.9,253.4c4,0,7.1-3.3,7.1-7.1v-25.7c0-9.9-6.9-25.5-27.4-25.5c-3.5,0-25.5,0-25.5,28.8
	c0,27.9,16.1,29.5,22.7,29.5c8.7,0,14.4-5.4,16.1-8.5v1.4C343.8,250,346.8,253.4,350.9,253.4z M319.7,224.3c0-5.4,0.9-9.7,3.1-12.8
	c2.1-3.1,5.2-4.5,9-4.5c3.8,0,6.9,1.4,9,4.5c1.9,2.6,2.8,6.9,2.8,12.8c0,5.4-0.9,9.4-3.1,12c-2.1,3.1-5.2,4.5-9,4.5
	c-3.5,0-6.6-1.4-8.7-4.5C320.6,233.5,319.7,229.5,319.7,224.3z"/>
<path class="st3" d="M469.9,276.6c0,2.1,1.7,3.8,3.5,4c4.3,0.5,11.1,0.5,14.9-2.6c2.6-2.1,4.7-5.2,6.4-9.9l18.4-61.7
	c1.7-4.7-1.9-9.4-6.9-9.4c-3.3,0-6.1,2.1-6.9,5.2l-9.9,34.5l-9.9-34.3c-0.9-3.3-3.8-5.4-7.3-5.4c-5.2,0-8.7,5.2-7.1,9.9l16.1,53.2
	c0.9,3.1,0.7,5.2-0.9,6.4c-1.7,1.4-3.8,2.1-6.6,2.1c-2.1,0-4,1.9-4,4v4H469.9z"/>
</svg>
