<svg id="SvgjsSvg1001" width="773.5" height="545.5" xmlns="http://www.w3.org/2000/svg" version="1.1" xmlns:xlink="http://www.w3.org/1999/xlink" xmlns:svgjs="http://svgjs.com/svgjs"><defs id="SvgjsDefs1002"><marker id="SvgjsMarker1052" markerWidth="14" markerHeight="10" refX="10" refY="5" viewBox="0 0 14 10" orient="auto" markerUnits="userSpaceOnUse" stroke-dasharray="0,0"><path id="SvgjsPath1053" d="M0,0 L14,5 L0,10 L0,0" fill="#3f9fff" stroke="#3f9fff" stroke-width="1"></path></marker><marker id="SvgjsMarker1060" markerWidth="14" markerHeight="10" refX="10" refY="5" viewBox="0 0 14 10" orient="auto" markerUnits="userSpaceOnUse" stroke-dasharray="0,0"><path id="SvgjsPath1061" d="M0,0 L14,5 L0,10 L0,0" fill="#3f9fff" stroke="#3f9fff" stroke-width="1"></path></marker><marker id="SvgjsMarker1068" markerWidth="14" markerHeight="10" refX="10" refY="5" viewBox="0 0 14 10" orient="auto" markerUnits="userSpaceOnUse" stroke-dasharray="0,0"><path id="SvgjsPath1069" d="M0,0 L14,5 L0,10 L0,0" fill="#3f9fff" stroke="#3f9fff" stroke-width="1"></path></marker><marker id="SvgjsMarker1076" markerWidth="14" markerHeight="10" refX="10" refY="5" viewBox="0 0 14 10" orient="auto" markerUnits="userSpaceOnUse" stroke-dasharray="0,0"><path id="SvgjsPath1077" d="M0,0 L14,5 L0,10 L0,0" fill="#3f9fff" stroke="#3f9fff" stroke-width="1"></path></marker><marker id="SvgjsMarker1084" markerWidth="14" markerHeight="10" refX="10" refY="5" viewBox="0 0 14 10" orient="auto" markerUnits="userSpaceOnUse" stroke-dasharray="0,0"><path id="SvgjsPath1085" d="M0,0 L14,5 L0,10 L0,0" fill="#3f9fff" stroke="#3f9fff" stroke-width="1"></path></marker><marker id="SvgjsMarker1114" markerWidth="14" markerHeight="10" refX="10" refY="5" viewBox="0 0 14 10" orient="auto" markerUnits="userSpaceOnUse" stroke-dasharray="0,0"><path id="SvgjsPath1115" d="M0,0 L14,5 L0,10 L0,0" fill="#3f9fff" stroke="#3f9fff" stroke-width="1"></path></marker><marker id="SvgjsMarker1118" markerWidth="14" markerHeight="10" refX="10" refY="5" viewBox="0 0 14 10" orient="auto" markerUnits="userSpaceOnUse" stroke-dasharray="0,0"><path id="SvgjsPath1119" d="M0,0 L14,5 L0,10 L0,0" fill="#3f9fff" stroke="#3f9fff" stroke-width="1"></path></marker><marker id="SvgjsMarker1122" markerWidth="14" markerHeight="10" refX="10" refY="5" viewBox="0 0 14 10" orient="auto" markerUnits="userSpaceOnUse" stroke-dasharray="0,0"><path id="SvgjsPath1123" d="M0,0 L14,5 L0,10 L0,0" fill="#3f9fff" stroke="#3f9fff" stroke-width="1"></path></marker><marker id="SvgjsMarker1126" markerWidth="14" markerHeight="10" refX="10" refY="5" viewBox="0 0 14 10" orient="auto" markerUnits="userSpaceOnUse" stroke-dasharray="0,0"><path id="SvgjsPath1127" d="M0,0 L14,5 L0,10 L0,0" fill="#3f9fff" stroke="#3f9fff" stroke-width="1"></path></marker><marker id="SvgjsMarker1130" markerWidth="14" markerHeight="10" refX="10" refY="5" viewBox="0 0 14 10" orient="auto" markerUnits="userSpaceOnUse" stroke-dasharray="0,0"><path id="SvgjsPath1131" d="M0,0 L14,5 L0,10 L0,0" fill="#3f9fff" stroke="#3f9fff" stroke-width="1"></path></marker><marker id="SvgjsMarker1138" markerWidth="14" markerHeight="10" refX="10" refY="5" viewBox="0 0 14 10" orient="auto" markerUnits="userSpaceOnUse" stroke-dasharray="0,0"><path id="SvgjsPath1139" d="M0,0 L14,5 L0,10 L0,0" fill="#3f9fff" stroke="#3f9fff" stroke-width="1"></path></marker><marker id="SvgjsMarker1146" markerWidth="14" markerHeight="10" refX="10" refY="5" viewBox="0 0 14 10" orient="auto" markerUnits="userSpaceOnUse" stroke-dasharray="0,0"><path id="SvgjsPath1147" d="M0,0 L14,5 L0,10 L0,0" fill="#3f9fff" stroke="#3f9fff" stroke-width="1"></path></marker></defs><g id="SvgjsG1008" transform="translate(434,25)"><path id="SvgjsPath1009" d="M 0 4Q 0 0 4 0L 191.75 0Q 195.75 0 195.75 4L 195.75 50Q 195.75 54 191.75 54L 4 54Q 0 54 0 50Z" stroke="rgba(63,159,255,1)" stroke-width="2" fill-opacity="1" fill="#3f9fff"></path><g id="SvgjsG1010"><text id="SvgjsText1011" font-family="Brela" text-anchor="middle" font-size="13px" width="176px" fill="#ffffff" font-weight="400" align="middle" lineHeight="125%" anchor="middle" family="Brela" size="13px" weight="400" font-style="" opacity="1" y="16.375" transform="rotate(0)"><tspan id="SvgjsTspan1012" dy="16" x="98"><tspan id="SvgjsTspan1013" style="text-decoration:;">创建订单</tspan></tspan></text></g></g><g id="SvgjsG1014" transform="translate(244.375,466.5)"><path id="SvgjsPath1015" d="M 0 4Q 0 0 4 0L 140.5 0Q 144.5 0 144.5 4L 144.5 50Q 144.5 54 140.5 54L 4 54Q 0 54 0 50Z" stroke="rgba(63,159,255,1)" stroke-width="2" fill-opacity="1" fill="#3f9fff"></path><g id="SvgjsG1016"><text id="SvgjsText1017" font-family="Brela" text-anchor="middle" font-size="13px" width="125px" fill="#ffffff" font-weight="400" align="middle" lineHeight="125%" anchor="middle" family="Brela" size="13px" weight="400" font-style="" opacity="1" y="16.375" transform="rotate(0)"><tspan id="SvgjsTspan1018" dy="16" x="72.5"><tspan id="SvgjsTspan1019" style="text-decoration:;">支付成功-SUCCESS</tspan></tspan></text></g></g><g id="SvgjsG1020" transform="translate(434,263.5)"><path id="SvgjsPath1021" d="M 0 4Q 0 0 4 0L 191.75 0Q 195.75 0 195.75 4L 195.75 49Q 195.75 53 191.75 53L 4 53Q 0 53 0 49Z" stroke="rgba(63,159,255,1)" stroke-width="2" fill-opacity="1" fill="#3f9fff"></path><g id="SvgjsG1022"><text id="SvgjsText1023" font-family="Brela" text-anchor="middle" font-size="13px" width="176px" fill="#ffffff" font-weight="400" align="middle" lineHeight="125%" anchor="middle" family="Brela" size="13px" weight="400" font-style="" opacity="1" y="15.875" transform="rotate(0)"><tspan id="SvgjsTspan1024" dy="16" x="98"><tspan id="SvgjsTspan1025" style="text-decoration:;">处理中-PROCESSING</tspan></tspan></text></g></g><g id="SvgjsG1026" transform="translate(434,373.5)"><path id="SvgjsPath1027" d="M 0 4Q 0 0 4 0L 191.75 0Q 195.75 0 195.75 4L 195.75 55Q 195.75 59 191.75 59L 4 59Q 0 59 0 55Z" stroke="rgba(63,159,255,1)" stroke-width="2" fill-opacity="1" fill="#3f9fff"></path><g id="SvgjsG1028"><text id="SvgjsText1029" font-family="Brela" text-anchor="middle" font-size="13px" width="176px" fill="#ffffff" font-weight="400" align="middle" lineHeight="125%" anchor="middle" family="Brela" size="13px" weight="400" font-style="" opacity="1" y="18.875" transform="rotate(0)"><tspan id="SvgjsTspan1030" dy="16" x="98"><tspan id="SvgjsTspan1031" style="text-decoration:;">预授权成功-AUTH_SUCESS</tspan></tspan></text></g></g><g id="SvgjsG1032" transform="translate(434,138.5)"><path id="SvgjsPath1033" d="M 0 4Q 0 0 4 0L 191.75 0Q 195.75 0 195.75 4L 195.75 43Q 195.75 47 191.75 47L 4 47Q 0 47 0 43Z" stroke="rgba(63,159,255,1)" stroke-width="2" fill-opacity="1" fill="#3f9fff"></path><g id="SvgjsG1034"><text id="SvgjsText1035" font-family="Brela" text-anchor="middle" font-size="13px" width="176px" fill="#ffffff" font-weight="400" align="middle" lineHeight="125%" anchor="middle" family="Brela" size="13px" weight="400" font-style="" opacity="1" y="12.875" transform="rotate(0)"><tspan id="SvgjsTspan1036" dy="16" x="98"><tspan id="SvgjsTspan1037" style="text-decoration:;">初始化-INIT</tspan></tspan></text></g></g><g id="SvgjsG1038" transform="translate(595.5,466.5)"><path id="SvgjsPath1039" d="M 0 4Q 0 0 4 0L 148.5 0Q 152.5 0 152.5 4L 152.5 50Q 152.5 54 148.5 54L 4 54Q 0 54 0 50Z" stroke="rgba(63,159,255,1)" stroke-width="2" fill-opacity="1" fill="#3f9fff"></path><g id="SvgjsG1040"><text id="SvgjsText1041" font-family="Brela" text-anchor="middle" font-size="13px" width="133px" fill="#ffffff" font-weight="400" align="middle" lineHeight="125%" anchor="middle" family="Brela" size="13px" weight="400" font-style="" opacity="1" y="16.375" transform="rotate(0)"><tspan id="SvgjsTspan1042" dy="16" x="76.5"><tspan id="SvgjsTspan1043" style="text-decoration:;">预授权取消-CANCEL</tspan></tspan></text></g></g><g id="SvgjsG1044" transform="translate(244.375,209.5)"><path id="SvgjsPath1045" d="M 0 4Q 0 0 4 0L 140.5 0Q 144.5 0 144.5 4L 144.5 50Q 144.5 54 140.5 54L 4 54Q 0 54 0 50Z" stroke="rgba(63,159,255,1)" stroke-width="2" fill-opacity="1" fill="#3f9fff"></path><g id="SvgjsG1046"><text id="SvgjsText1047" font-family="Brela" text-anchor="middle" font-size="13px" width="125px" fill="#ffffff" font-weight="400" align="middle" lineHeight="125%" anchor="middle" family="Brela" size="13px" weight="400" font-style="" opacity="1" y="16.375" transform="rotate(0)"><tspan id="SvgjsTspan1048" dy="16" x="72.5"><tspan id="SvgjsTspan1049" style="text-decoration:;">订单关闭-CLOSE</tspan></tspan></text></g></g><g id="SvgjsG1050"><path id="SvgjsPath1051" d="M531.875 80L531.875 108.75L531.875 108.75L531.875 134.9" stroke="#3f9fff" stroke-width="2" fill="none" marker-end="url(#SvgjsMarker1052)"></path><rect id="SvgjsRect1054" width="131" height="16" x="466.375" y="100.68648648648649" fill="#ffffff"></rect><text id="SvgjsText1055" font-family="微软雅黑" text-anchor="middle" font-size="13px" width="131px" fill="#323232" font-weight="400" align="top" lineHeight="16px" anchor="middle" family="微软雅黑" size="13px" weight="400" font-style="" opacity="1" y="98.06148648648649" transform="rotate(0)"><tspan id="SvgjsTspan1056" dy="16" x="531.875"><tspan id="SvgjsTspan1057" style="text-decoration:;">captureDelayHours:-1</tspan></tspan></text></g><g id="SvgjsG1058"><path id="SvgjsPath1059" d="M531.875 186.5L531.875 224.5L531.875 224.5L531.875 259.9" stroke="#3f9fff" stroke-width="2" fill="none" marker-end="url(#SvgjsMarker1060)"></path><rect id="SvgjsRect1062" width="52" height="16" x="505.875" y="213.9967213114754" fill="#ffffff"></rect><text id="SvgjsText1063" font-family="微软雅黑" text-anchor="middle" font-size="13px" width="52px" fill="#323232" font-weight="400" align="top" lineHeight="16px" anchor="middle" family="微软雅黑" size="13px" weight="400" font-style="" opacity="1" y="211.3717213114754" transform="rotate(0)"><tspan id="SvgjsTspan1064" dy="16" x="531.875"><tspan id="SvgjsTspan1065" style="text-decoration:;">支付请求</tspan></tspan></text></g><g id="SvgjsG1066"><path id="SvgjsPath1067" d="M531.875 317.5L531.875 345L531.875 345L531.875 369.9" stroke="#3f9fff" stroke-width="2" fill="none" marker-end="url(#SvgjsMarker1068)"></path><rect id="SvgjsRect1070" width="65" height="16" x="499.375" y="334.5090909090909" fill="#ffffff"></rect><text id="SvgjsText1071" font-family="微软雅黑" text-anchor="middle" font-size="13px" width="65px" fill="#323232" font-weight="400" align="top" lineHeight="16px" anchor="middle" family="微软雅黑" size="13px" weight="400" font-style="" opacity="1" y="331.8840909090909" transform="rotate(0)"><tspan id="SvgjsTspan1072" dy="16" x="531.875"><tspan id="SvgjsTspan1073" style="text-decoration:;">预授权成功</tspan></tspan></text></g><g id="SvgjsG1074"><path id="SvgjsPath1075" d="M531.875 433.5L531.875 449.5L316.625 449.5L316.625 462.9" stroke-dasharray="8,5" stroke="#3f9fff" stroke-width="2" fill="none" marker-end="url(#SvgjsMarker1076)"></path><rect id="SvgjsRect1078" width="134" height="16" x="333.52096541786744" y="441.5" fill="#ffffff"></rect><text id="SvgjsText1079" font-family="微软雅黑" text-anchor="middle" font-size="13px" width="134px" fill="#323232" font-weight="400" align="top" lineHeight="16px" anchor="middle" family="微软雅黑" size="13px" weight="400" font-style="" opacity="1" y="438.875" transform="rotate(0)"><tspan id="SvgjsTspan1080" dy="16" x="400.52096541786744"><tspan id="SvgjsTspan1081" style="text-decoration:;">CAPTURE-预授权确认</tspan></tspan></text></g><g id="SvgjsG1082"><path id="SvgjsPath1083" d="M531.875 433.5L531.875 449.5L671.75 449.5L671.75 462.9" stroke-dasharray="8,5" stroke="#3f9fff" stroke-width="2" fill="none" marker-end="url(#SvgjsMarker1084)"></path><rect id="SvgjsRect1086" width="65" height="16" x="569.370320855615" y="441.5" fill="#ffffff"></rect><text id="SvgjsText1087" font-family="微软雅黑" text-anchor="middle" font-size="13px" width="65px" fill="#323232" font-weight="400" align="top" lineHeight="16px" anchor="middle" family="微软雅黑" size="13px" weight="400" font-style="" opacity="1" y="438.875" transform="rotate(0)"><tspan id="SvgjsTspan1088" dy="16" x="601.870320855615"><tspan id="SvgjsTspan1089" style="text-decoration:;">取消预授权</tspan></tspan></text><rect id="SvgjsRect1090" width="103" height="16" x="552.9823639774859" y="441.5" fill="#ffffff"></rect><text id="SvgjsText1091" font-family="微软雅黑" text-anchor="middle" font-size="13px" width="103px" fill="#323232" font-weight="400" align="top" lineHeight="16px" anchor="middle" family="微软雅黑" size="13px" weight="400" font-style="" opacity="1" y="438.875" transform="rotate(0)"><tspan id="SvgjsTspan1092" dy="16" x="604.4823639774859"><tspan id="SvgjsTspan1093" style="text-decoration:;">VOID-预授权撤销</tspan></tspan></text></g><g id="SvgjsG1094" transform="translate(25,25)"><path id="SvgjsPath1095" d="M 0 4Q 0 0 4 0L 191.75 0Q 195.75 0 195.75 4L 195.75 50Q 195.75 54 191.75 54L 4 54Q 0 54 0 50Z" stroke="rgba(63,159,255,1)" stroke-width="2" fill-opacity="1" fill="#3f9fff"></path><g id="SvgjsG1096"><text id="SvgjsText1097" font-family="Brela" text-anchor="middle" font-size="13px" width="176px" fill="#ffffff" font-weight="400" align="middle" lineHeight="125%" anchor="middle" family="Brela" size="13px" weight="400" font-style="" opacity="1" y="16.375" transform="rotate(0)"><tspan id="SvgjsTspan1098" dy="16" x="98"><tspan id="SvgjsTspan1099" style="text-decoration:;">创建订单</tspan></tspan></text></g></g><g id="SvgjsG1100" transform="translate(25,138.5)"><path id="SvgjsPath1101" d="M 0 4Q 0 0 4 0L 191.75 0Q 195.75 0 195.75 4L 195.75 43Q 195.75 47 191.75 47L 4 47Q 0 47 0 43Z" stroke="rgba(63,159,255,1)" stroke-width="2" fill-opacity="1" fill="#3f9fff"></path><g id="SvgjsG1102"><text id="SvgjsText1103" font-family="Brela" text-anchor="middle" font-size="13px" width="176px" fill="#ffffff" font-weight="400" align="middle" lineHeight="125%" anchor="middle" family="Brela" size="13px" weight="400" font-style="" opacity="1" y="12.875" transform="rotate(0)"><tspan id="SvgjsTspan1104" dy="16" x="98"><tspan id="SvgjsTspan1105" style="text-decoration:;">初始化-INIT</tspan></tspan></text></g></g><g id="SvgjsG1106" transform="translate(25,316.5)"><path id="SvgjsPath1107" d="M 0 4Q 0 0 4 0L 191.75 0Q 195.75 0 195.75 4L 195.75 49Q 195.75 53 191.75 53L 4 53Q 0 53 0 49Z" stroke="rgba(63,159,255,1)" stroke-width="2" fill-opacity="1" fill="#3f9fff"></path><g id="SvgjsG1108"><text id="SvgjsText1109" font-family="Brela" text-anchor="middle" font-size="13px" width="176px" fill="#ffffff" font-weight="400" align="middle" lineHeight="125%" anchor="middle" family="Brela" size="13px" weight="400" font-style="" opacity="1" y="15.875" transform="rotate(0)"><tspan id="SvgjsTspan1110" dy="16" x="98"><tspan id="SvgjsTspan1111" style="text-decoration:;">处理中-PROCESSING</tspan></tspan></text></g></g><g id="SvgjsG1112"><path id="SvgjsPath1113" d="M433.5 162L411.6875 162L411.6875 236.5L392.475 236.5" stroke-dasharray="8,5" stroke="#3f9fff" stroke-width="2" fill="none" marker-end="url(#SvgjsMarker1114)"></path></g><g id="SvgjsG1116"><path id="SvgjsPath1117" d="M433.5 290L411.6875 290L411.6875 236.5L392.475 236.5" stroke-dasharray="8,5" stroke="#3f9fff" stroke-width="2" fill="none" marker-end="url(#SvgjsMarker1118)"></path></g><g id="SvgjsG1120"><path id="SvgjsPath1121" d="M221.75 343L232.5625 343L232.5625 236.5L240.77499999999998 236.5" stroke-dasharray="8,5" stroke="#3f9fff" stroke-width="2" fill="none" marker-end="url(#SvgjsMarker1122)"></path></g><g id="SvgjsG1124"><path id="SvgjsPath1125" d="M221.75 162L232.5625 162L232.5625 236.5L240.77499999999998 236.5" stroke-dasharray="8,5" stroke="#3f9fff" stroke-width="2" fill="none" marker-end="url(#SvgjsMarker1126)"></path></g><g id="SvgjsG1128"><path id="SvgjsPath1129" d="M122.875 80L122.875 108.75L122.875 108.75L122.875 134.9" stroke="#3f9fff" stroke-width="2" fill="none" marker-end="url(#SvgjsMarker1130)"></path><rect id="SvgjsRect1132" width="126" height="16" x="59.875" y="94.60588235294118" fill="#ffffff"></rect><text id="SvgjsText1133" font-family="微软雅黑" text-anchor="middle" font-size="13px" width="126px" fill="#323232" font-weight="400" align="top" lineHeight="16px" anchor="middle" family="微软雅黑" size="13px" weight="400" font-style="" opacity="1" y="91.98088235294118" transform="rotate(0)"><tspan id="SvgjsTspan1134" dy="16" x="122.875"><tspan id="SvgjsTspan1135" style="text-decoration:;">captureDelayHours:0</tspan></tspan></text></g><g id="SvgjsG1136"><path id="SvgjsPath1137" d="M122.875 186.5L122.875 251L122.875 251L122.875 312.9" stroke="#3f9fff" stroke-width="2" fill="none" marker-end="url(#SvgjsMarker1138)"></path><rect id="SvgjsRect1140" width="52" height="16" x="96.875" y="226.7442748091603" fill="#ffffff"></rect><text id="SvgjsText1141" font-family="微软雅黑" text-anchor="middle" font-size="13px" width="52px" fill="#323232" font-weight="400" align="top" lineHeight="16px" anchor="middle" family="微软雅黑" size="13px" weight="400" font-style="" opacity="1" y="224.1192748091603" transform="rotate(0)"><tspan id="SvgjsTspan1142" dy="16" x="122.875"><tspan id="SvgjsTspan1143" style="text-decoration:;">支付请求</tspan></tspan></text></g><g id="SvgjsG1144"><path id="SvgjsPath1145" d="M122.875 370.5L122.875 493.5L240.77499999999998 493.5" stroke-dasharray="8,5" stroke="#3f9fff" stroke-width="2" fill="none" marker-end="url(#SvgjsMarker1146)"></path><rect id="SvgjsRect1148" width="61" height="16" x="92.375" y="412.54439918533603" fill="#ffffff"></rect><text id="SvgjsText1149" font-family="微软雅黑" text-anchor="middle" font-size="13px" width="61px" fill="#323232" font-weight="400" align="top" lineHeight="16px" anchor="middle" family="微软雅黑" size="13px" weight="400" font-style="" opacity="1" y="409.91939918533603" transform="rotate(0)"><tspan id="SvgjsTspan1150" dy="16" x="122.875"><tspan id="SvgjsTspan1151" style="text-decoration:;">CAPTURE</tspan></tspan></text></g></svg>