<svg width="265" height="65" viewBox="0 0 265 65" fill="none" xmlns="http://www.w3.org/2000/svg">
<mask id="mask0" mask-type="alpha" maskUnits="userSpaceOnUse" x="254" y="0" width="5" height="5">
<path fill-rule="evenodd" clip-rule="evenodd" d="M254.961 0.802307H258.894V4.76231H254.961V0.802307Z" fill="white"/>
</mask>
<g mask="url(#mask0)">
<path fill-rule="evenodd" clip-rule="evenodd" d="M256.929 0.802307C257.259 0.802307 257.58 0.887307 257.896 1.05731C258.209 1.22831 258.455 1.47231 258.63 1.79031C258.806 2.10731 258.894 2.43831 258.894 2.78231C258.894 3.12431 258.808 3.45231 258.634 3.76731C258.461 4.08131 258.219 4.32631 257.908 4.50031C257.595 4.67531 257.27 4.76231 256.929 4.76231C256.588 4.76231 256.261 4.67531 255.95 4.50031C255.638 4.32631 255.395 4.08131 255.221 3.76731C255.047 3.45231 254.961 3.12431 254.961 2.78231C254.961 2.43831 255.049 2.10731 255.225 1.79031C255.401 1.47231 255.647 1.22831 255.961 1.05731C256.276 0.887307 256.598 0.802307 256.929 0.802307ZM256.929 1.13031C256.652 1.13031 256.383 1.20131 256.121 1.34431C255.86 1.48631 255.656 1.69031 255.508 1.95431C255.36 2.22031 255.286 2.49531 255.286 2.78231C255.286 3.06831 255.36 3.34131 255.504 3.60331C255.65 3.86531 255.852 4.06931 256.113 4.21431C256.373 4.36131 256.645 4.43431 256.929 4.43431C257.211 4.43431 257.484 4.36131 257.744 4.21431C258.005 4.06931 258.207 3.86531 258.351 3.60331C258.495 3.34131 258.568 3.06831 258.568 2.78231C258.568 2.49531 258.494 2.22031 258.348 1.95431C258.2 1.69031 257.996 1.48631 257.734 1.34431C257.471 1.20131 257.202 1.13031 256.929 1.13031ZM256.066 3.87631V1.74631H256.792C257.041 1.74631 257.221 1.76631 257.332 1.80531C257.444 1.84431 257.532 1.91331 257.599 2.01131C257.664 2.11031 257.698 2.21331 257.698 2.32331C257.698 2.48031 257.642 2.61431 257.532 2.73031C257.421 2.84631 257.275 2.91031 257.092 2.92431C257.167 2.95631 257.228 2.99331 257.272 3.03731C257.358 3.12131 257.461 3.26231 257.585 3.46031L257.843 3.87631H257.426L257.239 3.54131C257.09 3.27831 256.972 3.11231 256.881 3.04531C256.82 2.99631 256.728 2.97231 256.608 2.97231H256.408V3.87631H256.066ZM256.408 2.67831H256.822C257.02 2.67831 257.155 2.64831 257.227 2.58931C257.298 2.53031 257.335 2.45031 257.335 2.35331C257.335 2.28931 257.318 2.23431 257.283 2.18331C257.248 2.13331 257.2 2.09631 257.138 2.07231C257.076 2.04731 256.962 2.03531 256.795 2.03531H256.408V2.67831Z" fill="#00BD66"/>
</g>
<path fill-rule="evenodd" clip-rule="evenodd" d="M59.4166 19.6158C59.4136 21.6728 59.9076 23.2798 60.8986 24.4388C61.8906 25.5928 63.2546 26.1728 64.9856 26.1728C66.7286 26.1728 68.1016 25.5928 69.0956 24.4388C70.0896 23.2798 70.5876 21.6728 70.5906 19.6158C70.5936 17.5598 70.0986 15.9518 69.1146 14.8028C68.1296 13.6478 66.7596 13.0738 65.0036 13.0738C63.2596 13.0738 61.8936 13.6478 60.9056 14.8028C59.9176 15.9518 59.4196 17.5598 59.4166 19.6158ZM65.0066 11.0338C66.6926 11.0338 68.3066 11.2188 69.8516 11.5918C71.3956 11.9658 72.7226 12.4938 73.8386 13.1738C75.1836 13.9828 76.1996 14.9368 76.8866 16.0318C77.5736 17.1278 77.9206 18.3288 77.9186 19.6418C77.9166 20.9428 77.5656 22.1368 76.8706 23.2258C76.1686 24.3118 75.1556 25.2618 73.8196 26.0708C72.6896 26.7508 71.3616 27.2788 69.8286 27.6538C68.2956 28.0268 66.6766 28.2118 64.9826 28.2118C63.3016 28.2118 61.6886 28.0228 60.1496 27.6438C58.6116 27.2668 57.2846 26.7428 56.1686 26.0708C54.8126 25.2448 53.7956 24.2838 53.1136 23.1958C52.4276 22.1058 52.0876 20.9038 52.0896 19.5908C52.0906 18.3058 52.4396 17.1098 53.1366 16.0158C53.8386 14.9158 54.8516 13.9588 56.1866 13.1478C57.2916 12.4768 58.6126 11.9558 60.1526 11.5878C61.6926 11.2188 63.3126 11.0338 65.0066 11.0338Z" fill="#00BD66"/>
<path fill-rule="evenodd" clip-rule="evenodd" d="M79.0172 28.2115L79.0392 11.4815H89.8182C92.9312 11.4815 95.3692 11.9395 97.1352 12.8535C98.9082 13.7665 99.7902 15.0145 99.7882 16.5985C99.7872 17.7565 99.3052 18.7075 98.3382 19.4435C97.3772 20.1825 95.9372 20.7075 94.0232 21.0155L99.9932 28.2115H92.2402L86.2212 19.6995H87.7742C89.4922 19.6995 90.7612 19.4505 91.5942 18.9555C92.4302 18.4615 92.8472 17.7055 92.8492 16.6975C92.8502 15.6295 92.4222 14.8385 91.5572 14.3255C90.6942 13.8145 89.3482 13.5575 87.5232 13.5575H85.7682L85.7472 28.2115H79.0172Z" fill="#00BD66"/>
<path fill-rule="evenodd" clip-rule="evenodd" d="M107.375 13.733L107.36 24.797H100.421L100.438 11.481H108.799C111.243 11.481 113.213 11.601 114.708 11.837C116.212 12.076 117.562 12.468 118.767 13.019C120.534 13.814 121.903 14.813 122.893 16.022C123.876 17.236 124.367 18.517 124.365 19.879C124.363 21.182 123.982 22.39 123.223 23.513C122.464 24.636 121.365 25.608 119.937 26.422C118.899 27 117.676 27.443 116.272 27.753C114.864 28.061 113.354 28.212 111.737 28.212H96.4456L96.4486 25.962H107.358H109.089H109.745C112.024 25.962 113.787 25.431 115.032 24.372C116.277 23.313 116.905 21.804 116.907 19.853C116.91 17.902 116.287 16.393 115.038 15.331C113.79 14.267 112.028 13.733 109.762 13.733H107.375Z" fill="#00BD66"/>
<path fill-rule="evenodd" clip-rule="evenodd" d="M125.019 28.2115L125.042 11.4815H142.706L142.705 13.7325H131.979L131.972 18.6015H142.248L142.246 20.8535H131.969L131.962 25.9615H145.949L145.946 28.2115H125.019Z" fill="#00BD66"/>
<path fill-rule="evenodd" clip-rule="evenodd" d="M143.323 28.2115L143.346 11.4815H154.125C157.237 11.4815 159.675 11.9395 161.441 12.8535C163.215 13.7665 164.097 15.0145 164.094 16.5985C164.094 17.7565 163.612 18.7075 162.645 19.4435C161.684 20.1825 160.244 20.7075 158.33 21.0155L164.301 28.2115H156.546L150.527 19.6995H152.081C153.799 19.6995 155.067 19.4505 155.902 18.9555C156.736 18.4615 157.154 17.7055 157.156 16.6975C157.157 15.6295 156.728 14.8385 155.864 14.3255C155 13.8145 153.655 13.5575 151.83 13.5575H150.075L150.055 28.2115H143.323Z" fill="#00BD66"/>
<mask id="mask1" mask-type="alpha" maskUnits="userSpaceOnUse" x="19" y="0" width="17" height="12">
<path fill-rule="evenodd" clip-rule="evenodd" d="M19.733 0.802216C22.618 4.97722 24.815 8.14422 26.523 10.5992C26.622 10.7432 26.929 11.1822 27.383 11.8322L35.381 5.41922C35.019 4.90022 34.724 4.47922 34.525 4.19622C33.924 3.28922 33.198 2.18922 32.281 0.802216H19.733Z" fill="white"/>
</mask>
<g mask="url(#mask1)">
<path fill-rule="evenodd" clip-rule="evenodd" d="M19.733 0.802216C22.618 4.97722 24.815 8.14422 26.523 10.5992C26.622 10.7432 26.929 11.1822 27.383 11.8322L35.381 5.41922C35.019 4.90022 34.724 4.47922 34.525 4.19622C33.924 3.28922 33.198 2.18922 32.281 0.802216H19.733Z" fill="#00BD66"/>
<path fill-rule="evenodd" clip-rule="evenodd" d="M19.733 0.802216C22.618 4.97722 24.815 8.14422 26.523 10.5992C26.622 10.7432 26.929 11.1822 27.383 11.8322L35.381 5.41922C35.019 4.90022 34.724 4.47922 34.525 4.19622C33.924 3.28922 33.198 2.18922 32.281 0.802216H19.733Z" fill="url(#paint0_linear)"/>
</g>
<mask id="mask2" mask-type="alpha" maskUnits="userSpaceOnUse" x="32" y="13" width="20" height="16">
<path fill-rule="evenodd" clip-rule="evenodd" d="M32.356 18.9702C34.637 22.2572 37.088 25.8062 38.709 28.2112H51.225C48.846 24.7782 44.749 18.8792 41.172 13.7332L32.356 18.9702Z" fill="white"/>
</mask>
<g mask="url(#mask2)">
<path fill-rule="evenodd" clip-rule="evenodd" d="M32.356 18.9702C34.637 22.2572 37.088 25.8062 38.709 28.2112H51.225C48.846 24.7782 44.749 18.8792 41.172 13.7332L32.356 18.9702Z" fill="#00BD66"/>
<path fill-rule="evenodd" clip-rule="evenodd" d="M32.356 18.9702C34.637 22.2572 37.088 25.8062 38.709 28.2112H51.225C48.846 24.7782 44.749 18.8792 41.172 13.7332L32.356 18.9702Z" fill="url(#paint1_linear)"/>
</g>
<path fill-rule="evenodd" clip-rule="evenodd" d="M42.7924 0L35.381 5.41921L27.383 11.8322L23.383 15.0382H29.3106L14 28.2112H16.802L32.356 18.9702L43.8544 12.318L40.6334 12.308L56.788 0.802208L42.7924 0Z" fill="url(#paint2_linear)"/>
<mask id="mask3" mask-type="alpha" maskUnits="userSpaceOnUse" x="168" y="0" width="40" height="32">
<path fill-rule="evenodd" clip-rule="evenodd" d="M168.3 0.802216H207.585V31.0864H168.3V0.802216Z" fill="white"/>
</mask>
<g mask="url(#mask3)">
<path fill-rule="evenodd" clip-rule="evenodd" d="M176.633 17.0562V25.4702H185.987C186.838 25.4572 187.361 25.2212 187.348 24.1962V17.0562H176.633ZM192.11 28.1802H168.47V14.0282H195.511V25.4702C195.737 27.4902 194.602 28.3912 192.11 28.1802ZM197.722 31.0782V12.4352H168.3V9.40722H207.585V12.4352H206.737V28.3692C206.847 30.2822 205.656 31.1832 203.163 31.0782H197.722ZM177.654 8.45122H168.3L171.191 5.42322H168.3V2.39522H174.082L175.443 0.802216H185.306L183.776 2.39522H207.585V5.42322H205.716L207.585 8.45122H199.252L197.382 5.42322H180.714L177.654 8.45122Z" fill="#00BD66"/>
</g>
<mask id="mask4" mask-type="alpha" maskUnits="userSpaceOnUse" x="210" y="0" width="41" height="32">
<path fill-rule="evenodd" clip-rule="evenodd" d="M210.977 0.802216H250.122V31.0789H210.977V0.802216Z" fill="white"/>
</mask>
<g mask="url(#mask4)">
<path fill-rule="evenodd" clip-rule="evenodd" d="M241.929 17.6929V12.5939H234.956V19.1269H240.399C241.645 19.3399 242.156 18.8629 241.929 17.6929ZM234.956 9.56592H241.929V5.42292H234.956V9.56592ZM218.97 19.1259H226.113V12.5939H218.97V19.1259ZM218.97 9.56592H226.113V5.42292H218.97V9.56592ZM248.392 0.801918L247.541 2.39492H250.092V19.1269C250.319 21.3579 249.243 22.3689 246.862 22.1549H234.956V25.1819H250.092V28.2109H234.956V31.0789H226.113V28.2109H210.977V25.1819H226.113V22.1549H210.977V2.39492H213.528L212.676 0.801918H220.84L221.691 2.39492H239.378L240.229 0.801918H248.392Z" fill="#00BD66"/>
</g>
<g filter="url(#filter0_d)">
<path d="M9.532 44.348C7.444 46.616 4.816 48.524 1.648 50.054L2.278 51.188C5.464 49.586 8.038 47.696 10 45.518C12.124 47.804 14.662 49.658 17.65 51.098L18.298 49.946C15.346 48.578 12.736 46.724 10.468 44.348H9.532ZM4.978 50.036V51.278H9.334V54.41H4.114V55.652H9.334V58.982H2.512V60.26H17.506V58.982H10.666V55.652H15.868V54.41H10.666V51.278H15.022V50.036H4.978ZM48.894 47.408V48.668H52.98V52.574C51.594 54.698 49.992 56.39 48.174 57.614L48.84 58.73C50.406 57.542 51.792 56.084 52.98 54.338V58.838C52.98 59.27 52.746 59.504 52.278 59.504C51.702 59.504 51.09 59.468 50.478 59.414L50.73 60.638H52.71C53.718 60.638 54.24 60.134 54.24 59.144V53.204C55.23 55.598 56.616 57.65 58.38 59.342L59.226 58.334C57.822 57.092 56.67 55.634 55.77 53.978C56.652 53.078 57.534 51.962 58.398 50.63L57.426 49.91C56.76 51.008 56.022 51.998 55.194 52.88C54.834 52.088 54.51 51.26 54.24 50.396V48.668H58.506V47.408H57.426L58.146 46.67C57.534 45.968 56.76 45.266 55.86 44.564L55.104 45.284C56.004 46.022 56.724 46.724 57.3 47.408H54.24V44.33H52.98V47.408H48.894ZM49.938 50.09L48.93 50.72C49.776 51.836 50.442 52.862 50.946 53.78L51.846 53.15C51.396 52.286 50.766 51.26 49.938 50.09ZM43.134 50.936V52.16H45.168V56.336C44.34 56.624 43.512 56.858 42.648 57.056L42.99 58.352C45.006 57.74 46.896 57.002 48.642 56.102V54.842C47.958 55.202 47.238 55.526 46.5 55.832V52.16H48.264V50.936H46.5V46.724H48.624V45.518H42.918V46.724H45.168V50.936H43.134ZM89.912 45.32V46.58H95.222V58.658C95.222 59.216 94.952 59.504 94.412 59.504C93.728 59.504 92.99 59.468 92.234 59.414L92.504 60.674H94.862C95.978 60.674 96.554 60.098 96.554 58.982V46.58H100.334V45.32H89.912ZM85.934 44.456L85.016 45.338C86.312 46.31 87.356 47.246 88.112 48.128L88.994 47.228C88.166 46.292 87.14 45.374 85.934 44.456ZM83.81 49.802V51.044H86.456V58.226C86.456 58.514 86.312 58.766 86.042 59L86.528 60.152C87.86 59.324 89.12 58.388 90.29 57.326L89.948 55.958C89.138 56.696 88.382 57.326 87.698 57.866V49.802H83.81ZM126.718 47.102V54.5H132.352V56.21H125.008V57.434H132.352V60.854H133.648V57.434H140.992V56.21H133.648V54.5H139.282V47.102H135.826C136.366 46.364 136.852 45.536 137.284 44.618L136.024 44.168C135.574 45.212 135.052 46.202 134.476 47.102H126.718ZM138.022 53.348H133.648V51.332H138.022V53.348ZM132.352 53.348H127.978V51.332H132.352V53.348ZM127.978 50.216V48.236H132.352V50.216H127.978ZM133.648 48.236H138.022V50.216H133.648V48.236ZM129.904 44.258L128.806 44.78C129.418 45.464 129.976 46.22 130.516 47.084L131.596 46.544C131.056 45.716 130.498 44.942 129.904 44.258ZM166.296 45.014V46.22H173.352V47.786H167.844V54.914H173.118C172.938 55.85 172.614 56.624 172.182 57.236C171.174 56.714 170.238 56.102 169.392 55.4L168.402 56.084C169.284 56.84 170.256 57.506 171.3 58.082C170.148 58.91 168.312 59.414 165.81 59.612L166.368 60.8C169.23 60.476 171.3 59.792 172.56 58.712C175.242 59.936 178.392 60.638 182.01 60.782L182.334 59.54C178.878 59.432 175.89 58.838 173.37 57.776C173.874 57.056 174.216 56.102 174.432 54.914H180.228V47.786H174.648V46.22H181.722V45.014H166.296ZM178.95 53.78H174.594L174.648 52.502V51.872H178.95V53.78ZM173.298 53.78H169.122V51.872H173.352V52.502C173.352 52.934 173.334 53.366 173.298 53.78ZM169.122 50.792V48.902H173.352V50.792H169.122ZM174.648 48.902H178.95V50.792H174.648V48.902ZM208.178 51.188V60.818H209.456V51.188H208.178ZM220.22 60.746C221.336 60.746 221.912 60.224 221.912 59.18V49.244H213.65V50.432H220.634V58.82C220.634 59.342 220.4 59.612 219.95 59.612L218.258 59.576L218.564 60.746H220.22ZM211.778 52.034V58.82H218.276V52.034H211.778ZM217.07 57.722H213.02V55.922H217.07V57.722ZM213.02 54.878V53.114H217.07V54.878H213.02ZM209.996 48.506L209.042 49.1C209.96 49.928 210.698 50.684 211.238 51.35L212.192 50.684C211.688 50.054 210.95 49.334 209.996 48.506ZM209.582 46.724H210.824C211.31 47.426 211.742 48.164 212.102 48.938L213.254 48.506C213.002 47.948 212.642 47.354 212.192 46.724H214.892V45.59H210.14C210.284 45.248 210.428 44.888 210.572 44.51L209.312 44.24C208.808 45.68 208.016 47.012 206.936 48.218L208.034 48.92C208.61 48.254 209.114 47.516 209.582 46.724ZM217.232 46.724H218.618C219.104 47.39 219.518 48.074 219.878 48.794L221.03 48.362C220.76 47.858 220.418 47.3 220.004 46.724H222.992V45.59H217.736C217.88 45.248 218.006 44.888 218.114 44.528L216.872 44.258C216.476 45.59 215.828 46.796 214.928 47.912L216.026 48.614C216.476 48.038 216.872 47.408 217.232 46.724ZM249.718 47.102V54.5H255.352V56.21H248.008V57.434H255.352V60.854H256.648V57.434H263.992V56.21H256.648V54.5H262.282V47.102H258.826C259.366 46.364 259.852 45.536 260.284 44.618L259.024 44.168C258.574 45.212 258.052 46.202 257.476 47.102H249.718ZM261.022 53.348H256.648V51.332H261.022V53.348ZM255.352 53.348H250.978V51.332H255.352V53.348ZM250.978 50.216V48.236H255.352V50.216H250.978ZM256.648 48.236H261.022V50.216H256.648V48.236ZM252.904 44.258L251.806 44.78C252.418 45.464 252.976 46.22 253.516 47.084L254.596 46.544C254.056 45.716 253.498 44.942 252.904 44.258Z" fill="#333333"/>
</g>
<defs>
<filter id="filter0_d" x="0.647949" y="44.168" width="264.344" height="19.686" filterUnits="userSpaceOnUse" color-interpolation-filters="sRGB">
<feFlood flood-opacity="0" result="BackgroundImageFix"/>
<feColorMatrix in="SourceAlpha" type="matrix" values="0 0 0 0 0 0 0 0 0 0 0 0 0 0 0 0 0 0 127 0"/>
<feOffset dy="2"/>
<feGaussianBlur stdDeviation="0.5"/>
<feColorMatrix type="matrix" values="0 0 0 0 0 0 0 0 0 0 0 0 0 0 0 0 0 0 0.2 0"/>
<feBlend mode="normal" in2="BackgroundImageFix" result="effect1_dropShadow"/>
<feBlend mode="normal" in="SourceGraphic" in2="effect1_dropShadow" result="shape"/>
</filter>
<linearGradient id="paint0_linear" x1="28.096" y1="6.94599" x2="29.1094" y2="9.44227" gradientUnits="userSpaceOnUse">
<stop stop-opacity="0.01"/>
<stop offset="1" stop-opacity="0.3"/>
</linearGradient>
<linearGradient id="paint1_linear" x1="41.1226" y1="18.5046" x2="40.246" y2="15.2062" gradientUnits="userSpaceOnUse">
<stop stop-opacity="0.01"/>
<stop offset="1" stop-opacity="0.3"/>
</linearGradient>
<linearGradient id="paint2_linear" x1="26.8331" y1="-10.5982" x2="9.27674" y2="24.8418" gradientUnits="userSpaceOnUse">
<stop stop-color="#EFC01B"/>
<stop offset="1" stop-color="#EE742B"/>
</linearGradient>
</defs>
</svg>