<?xml version="1.0" standalone="no"?><!DOCTYPE svg PUBLIC "-//W3C//DTD SVG 1.1//EN" "http://www.w3.org/Graphics/SVG/1.1/DTD/svg11.dtd"><svg class="icon" width="200px" height="200.00px" viewBox="0 0 1024 1024" version="1.1" xmlns="http://www.w3.org/2000/svg"><path fill="#1296db" d="M113.7664 170.7008v512h796.4672v-512H113.7664z m426.7008 568.832v113.7664h170.7008c15.6672 0 28.4672 12.6976 28.4672 28.4672s-12.6976 28.4672-28.4672 28.4672H312.9344c-15.6672 0-28.4672-12.6976-28.4672-28.4672s12.6976-28.4672 28.4672-28.4672h170.7008V739.5328H113.7664c-31.4368 0-56.9344-25.4976-56.9344-56.9344v-512c0-31.4368 25.4976-56.9344 56.9344-56.9344h796.4672c31.4368 0 56.9344 25.4976 56.9344 56.9344v512c0 31.4368-25.4976 56.9344-56.9344 56.9344H540.4672z m-27.9552-407.04l39.7312-39.7312c11.0592-11.0592 29.0816-11.0592 40.2432 0 11.0592 11.0592 11.0592 29.0816 0 40.2432l-29.184 29.184h19.8656c15.6672 0 28.4672 12.6976 28.4672 28.4672s-12.6976 28.4672-28.4672 28.4672h-42.7008V447.488h42.7008c15.6672 0 28.4672 12.6976 28.4672 28.4672 0 15.6672-12.6976 28.4672-28.4672 28.4672h-42.7008v28.4672c0 15.6672-12.6976 28.4672-28.4672 28.4672s-28.4672-12.6976-28.4672-28.4672v-28.4672h-42.7008c-15.6672 0-28.4672-12.6976-28.4672-28.4672s12.6976-28.4672 28.4672-28.4672h42.7008v-28.4672h-42.7008c-15.6672 0-28.4672-12.6976-28.4672-28.4672 0-15.6672 12.6976-28.4672 28.4672-28.4672h20.7872l-29.184-29.184c-11.0592-11.0592-11.0592-29.0816 0-40.2432 11.0592-11.0592 29.0816-11.0592 40.2432 0l39.8336 39.8336z"  /></svg>