<?xml version="1.0" encoding="utf-8"?>
<!-- Generator: Adobe Illustrator 25.0.1, SVG Export Plug-In . SVG Version: 6.00 Build 0)  -->
<svg version="1.0"
	 id="svg4458" xmlns:cc="http://creativecommons.org/ns#" xmlns:dc="http://purl.org/dc/elements/1.1/" xmlns:rdf="http://www.w3.org/1999/02/22-rdf-syntax-ns#" xmlns:svg="http://www.w3.org/2000/svg"
	 xmlns="http://www.w3.org/2000/svg" xmlns:xlink="http://www.w3.org/1999/xlink" x="0px" y="0px" viewBox="0 0 499.4 310.8"
	 style="enable-background:new 0 0 499.4 310.8;" xml:space="preserve">
<style type="text/css">
	.st0{fill:#1677FF;}
	.st1{fill:#FFFFFF;}
</style>
<g id="layer1" transform="translate(13.452402,-84.644208)">
	<g id="g3989" transform="matrix(0.35277777,0,0,-0.35277777,17.912364,84.644208)">
		<path id="path3991" class="st0" d="M270.8-289.1h-204c-26.6,0-48.1-21.7-48.1-48.5v-205.7c0-26.8,21.5-48.5,48.1-48.5h204
			c26.6,0,48.1,21.7,48.1,48.5v205.7C318.9-310.8,297.4-289.1,270.8-289.1"/>
	</g>
	<g id="g3993" transform="matrix(0.35277777,0,0,-0.35277777,-3.3614425,113.60801)">
		<path id="path3995" class="st1" d="M160.2-439.8c-46.7,0-60.5,37.1-37.4,57.4c7.7,6.9,21.8,10.2,29.3,11
			c27.7,2.8,53.4-7.9,83.7-22.8C214.5-422.3,187.3-439.8,160.2-439.8 M326.2-397.1c-12,4.1-28.1,10.3-46.1,16.8
			c10.8,18.9,19.4,40.4,25,63.8H246v21.5h72.5v12H246v35.8h-29.6c-5.2,0-5.2-5.2-5.2-5.2V-283H138v-12h73.3v-21.5h-60.5v-12h117.3
			c-4.3-14.9-10.1-28.9-16.9-41.7c-38.1,12.7-78.7,22.9-104.2,16.6c-16.3-4.1-26.8-11.3-33-18.9c-28.3-34.8-8-87.6,51.9-87.6
			c35.4,0,69.5,19.9,95.9,52.7c39.4-19.1,117.5-51.9,117.5-51.9v46.8C379.2-412.4,369.4-411.7,326.2-397.1"/>
	</g>
	<g id="g3997" transform="matrix(0.35277777,0,0,-0.35277777,67.639214,90.15791)">
		<path id="path3999" class="st0" d="M529.4-317.8c0-15.7,11.4-26.2,27.4-26.2s27.4,10.5,27.4,26.2c0,15.4-11.4,26.2-27.4,26.2
			S529.4-302.5,529.4-317.8"/>
	</g>
	<path id="path4001" d="M227.4,272.9h16.8v-77.5h-16.8V272.9z"/>
	<g id="g4003" transform="matrix(0.35277777,0,0,-0.35277777,39.122104,105.59659)">
		<path id="path4005" d="M381.1-398.1l28.3,97.9h1.2l26.8-97.9H381.1z M450.4-262h-63.8l-71.4-212.3h44l12,41.6h75.6l11.4-41.6h56.3
			L450.4-262z"/>
	</g>
	<path id="path4007" d="M255.7,272.9h16.8V216h-16.8V272.9z"/>
	<g id="g4009" transform="matrix(0.35277777,0,0,-0.35277777,135.87965,95.029286)">
		<path id="path4011" d="M884.3-343.1l0.3,0.3h-44.9L811.5-441H810l-32.5,98.2h-53.3l64.1-162l-26.8-49.4v-1.2h41.9L884.3-343.1z"/>
	</g>
	<g id="g4013" transform="matrix(0.35277777,0,0,-0.35277777,84.990094,111.62983)">
		<path id="path4015" d="M619.7-429.5c-5.4,0-10.5,0.6-16.3,2.4v87.3c9.9,6.9,18.1,10.2,28.3,10.2c17.8,0,31.9-14.2,31.9-44.3
			C663.6-412.3,642.9-429.5,619.7-429.5 M649.8-292.5c-17.5,0-31-6.6-46.4-19.3v16h-47.6v-212.6h47.6v52.7c9-2.4,17.5-3.6,27.7-3.6
			c42.5,0,80.7,31.3,80.7,87C711.8-322.3,684.1-292.5,649.8-292.5"/>
	</g>
	<g id="g4017" transform="matrix(0.35277777,0,0,-0.35277777,108.8615,110.20581)">
		<path id="path4019" d="M743.8-422.1c-12.6-6.9-19.9-9.6-28.3-9.6c-11.4,0-18.7,7.5-18.7,19.6c0,4.5,0.9,9,4.5,12.6
			c5.7,5.7,16.9,9.9,42.5,16V-422.1z M791.4-420.9v67.4c0,36.7-21.7,56.9-59.9,56.9c-24.4,0-41.3-4.2-72-13.5l8.4-37
			c28,12.6,40.4,18.1,53.3,18.1c15.7,0,22.6-11.1,22.6-28.3v-1.2c-54.5-10.2-71.4-16-81.9-26.5c-7.8-7.8-11.1-19-11.1-31.9
			c0-31,24.1-47.6,46.7-47.6c16.9,0,30.4,6.3,48.8,20.2l3.3-16.9h47.6L791.4-420.9z"/>
	</g>
</g>
</svg>
