<?xml version="1.0" encoding="utf-8"?>
<!-- Generator: Adobe Illustrator 24.0.2, SVG Export Plug-In . SVG Version: 6.00 Build 0)  -->
<svg version="1.0" id="Layer_1" xmlns="http://www.w3.org/2000/svg" xmlns:xlink="http://www.w3.org/1999/xlink" x="0px" y="0px"
	 viewBox="0 0 300 280" enable-background="new 0 0 300 280" xml:space="preserve">
<g>
	<path fill-rule="evenodd" clip-rule="evenodd" fill="#004FA3" d="M230.12,140c0,44.24-35.87,80.12-80.13,80.12
		c-44.24,0-80.11-35.88-80.11-80.12c0-44.25,35.87-80.12,80.11-80.12C194.25,59.88,230.12,95.75,230.12,140L230.12,140z"/>
	<path fill-rule="evenodd" clip-rule="evenodd" fill="#FFFFFF" d="M205.78,112.06c0,0,3.98-0.29-0.4-4.77c0,0-7.28-7.89-21.25-13.87
		c-7.49-3.2-15.9-1.87-15.12,5.87c0.55,5.44-4.93,7.52-9.25,7.02c-5.07-0.59-8.11-4.43-7.31-7.58c0.86-3.37,2.78-5.98,5.63-8.01
		c1.93-1.38,3.28-2.35,6.79-3.02c2.14-0.41,4.94-1.05,5.69,1.2c1.47-0.72,4.07-5.22-4.38-5.3c0,0-1.26-2.53-4.11-2
		c0,0-8.41-7.62-17.77,1.82c0,0-3.67,1.34-3.87,0.05c0.83,0.61,2.19-1.24,0.33-1.87c-0.87-0.3-1.88,0.54-2.04,1.36
		c-0.13,0.63,0.07,2.03,1.93,2.29c0.49,0.07,1.37,0,1.37,0l-0.61,0.67c-2.79,1.11-5.51,0.25-6.02-1.59c0.65,0.35,1.37-0.09,1.6-0.76
		c0.23-0.68-0.31-1.63-1.39-1.78c-1.52-0.21-2.23,1.43-1.91,2.86c0.5,2.21,2.9,3.78,5.98,3.4l-0.53,0.74c0,0-3.09,3.58-5.61,7.64
		c-2.57,4.13-13.01,8.68-11.22-1.15c0.57-3.13-5.07-6.88-14.88-0.64c-5.24,3.33-11.67,8.33-16.42,16.42c0,0-2.14,3.09,1.38,3.19
		c0,0-8.04,8-7.09,17.52c0,0,0.72,2.62,2.62,0.95c0,0-3.09,8.33-1.19,15.47c0,0,0.95,4.05,3.33,1.9c0,0,2.13,10.11,6.66,18.57
		c3.57,6.67,10.24,16.43,7.62,18.81c-2.59,2.36-6.26-2.34-5.68-0.45c1.21,4,5.65,4.58,8.06,2.82c6.19-4.52-2.93-15.42-5.71-29.28
		c0,0,1.9-0.24,1.13-4.73c0,0,4.58,1.64,3.78-7.36c0,0,4.85,2.57,4.85-3.61c0,0,5,1.19,5.95-5.48c0,0,8.16,1.18,10-3.33
		c0,0,2.14,2.62,6.16-1.58c1,2.86,3.02,5.45,5.68,7.63c0,0-0.53,4.02-5.31,5.42c0,0-5.84-2.29-12.15,0
		c-5.81,2.11-3.48,7.9,0.74,6.52c-1.28-0.64-1.65-2.55,0.42-2.97c2.06,1.57,4.3,0.66,5.37-0.74c0,0,4.13,2.89,6.86-0.08
		c1.32,0.08,2.14,1.94,0.33,2.81c3.52,0.71,4.79-2.72,3.34-4.59c0,0,0.82-0.5,1.76-1.22c0,0,1.1-1,1.93-2.16c0,0,3.47,2.54,9.9,3.97
		c0,0-3.36,5.16-8.33,6.15c0,0-7.06-2.13-11.82,0.63c0,0-2.57,1.24-2.17,3.87c0.3,1.97,1.99,3.35,4.55,3.03
		c-1.04-0.48-3.33-2.87-0.42-3.89c1.92,2.81,7.04,0.79,7.58-0.02c0.98,0.99,5.26,0.59,5.83-0.89c1.37-0.23,3.37,0.4,2.63,2.85
		c1.66-0.23,4.34-3.03,0.4-5.25c0,0,2.34-1.07,4.22-2.62l2.84-2.65c0,0,3.4-1.29,3.34,2.62c2.66-0.31,4.87,1.95,4.33,4.43
		c0,0-1.15,2.84-5.29,2.11c-4.13-0.74-4.06,2.59-0.99,2.78c-2.02,0.57-3.39,4.16,3.38,4.18c0,0,1.49,8.17-7.59,7.34
		c-1.08-0.25-0.91-1.24-0.79-2.03c1.48-0.49,1.65-1.98,0.95-2.69c-0.76-0.75-2.41-1.13-3.68,0.21c-0.78,0.83-1.07,2.44-0.82,4.06
		c-1.49-0.4-2.28-1.03-2.28-2.2c1.74-0.74,0.5-3.84-2.35-2.73c-1.15,0.45-2,1.83-1.49,4.09c0.69,3.03,4.85,4.35,8.17,4.73
		c1.99,1.75,5,3.61,12.06,2.54c0,0-3.13,15.16-23.91,14.5c0,0-8.08-2.87-5.62-9.13c0.49-1.25,2.17-3.42,3.86-3.38
		c0,0,2.83,0.93,2.83-1.46c0,0-0.22-1.74-2.03-1.92c-1.81-0.18-6.15,0.19-8.13,5.64c-0.89,2.45-0.7,6.45,1.72,9.22
		c-7.85-1.93-13.77-7.44-11.39-14.92c1.28-4.04,7.06-7.93,11.65-5.21c-0.12,1.86,0.74,3.35,2.85,3.35c1.77,0,2.73-1.61,2.35-3.59
		c-0.33-1.78-2.86-4.23-7.19-4.46c-4.58-0.25-13.12,2.34-13.76,11.9c-0.59,8.86,5.46,15.24,20.5,17.21l0.2,0.16
		c0,0,9.15,5.97,22.09,2.79c0,0,26.06-4.97,20.49-32.43c0,0,6.37-17.94-7.4-28.36c0,0-0.32-2.56,1.67-0.47
		c1.18,1.57,5.95,2.38,5.95-0.95c0,0,4.53,4.04,6.16-0.07c0,0,1.7,4.83,5.17,1.59c0,0-0.86,3.71,0.81,5.85
		c1.67,2.14,4.76,1.51,4.76,1.51s-4.76,12.77,0.95,13.25c0,0-14.28,28.56-6.01,32.18c2.87,1.25,6.22,0.64,7.93-2.73
		c1.41-2.79-3.11,2.68-5.73,0.3c-3.12-2.83,0.72-9.76,4.52-16.9c5.24-9.83,8.81-17.06,9.52-21.9c0,0,3.12,2.05,4.07-5.33
		c0.76-5.9-0.14-10.01-0.74-14.19c0,0,4.05,2.62,2.06-6.64C214.2,125.13,212.74,118.43,205.78,112.06L205.78,112.06z M155.39,82.31
		c0.29,0.04,0.56,0.11,0.82,0.21c0.05,0.09,0.08,0.18,0.08,0.29c0,0.33-0.26,0.59-0.59,0.59c-0.32,0-0.59-0.27-0.59-0.59
		C155.11,82.6,155.22,82.42,155.39,82.31L155.39,82.31z M154.3,82.36c0,0.02-0.01,0.03-0.01,0.05c-0.09,0.8,0.47,1.52,1.27,1.61
		c0.7,0.08,1.35-0.36,1.55-1.02c0.4,0.27,0.74,0.57,1.01,0.81c-1.54,0.02-1.79,0.74-3.12,0.49c-0.67-0.13-1.39-0.83-1.43-1.71
		C153.86,82.47,153.96,82.43,154.3,82.36L154.3,82.36z M175.15,174.21c0,0,0.76-1.25,1.16,0.54c0,0,0.8,9.65-5.36,15.55
		c-4.11,3.93-13.58,9.55-24.33,7.1c0,0,17.15-1.1,21.53-16.81l0.48-1.77C168.63,178.81,172.95,177.82,175.15,174.21L175.15,174.21z"
		/>
</g>
</svg>
