<?xml version="1.0" encoding="utf-8"?>
<!-- Generator: Adobe Illustrator 24.2.0, SVG Export Plug-In . SVG Version: 6.00 Build 0)  -->
<svg version="1.1" id="Layer_1" xmlns="http://www.w3.org/2000/svg" xmlns:xlink="http://www.w3.org/1999/xlink" x="0px" y="0px"
	 viewBox="0 0 59.528 59.528" enable-background="new 0 0 59.528 59.528" xml:space="preserve">
<g>
	<polygon id="XMLID_457_" fill="#E49F15" points="-393.953,32.384 -395.019,32.384 -396.706,26.698 -398.041,32.384 -398.84,32.384 
		-397.33,25.987 -396.085,25.987 -394.485,31.23 -393.33,25.987 -392.531,25.987 	"/>
	<path id="XMLID_454_" fill="#E49F15" d="M-390.487,27.587l-1.065,4.797h-0.801l1.065-4.797H-390.487z M-390.043,25.987l-0.178,0.8
		h-0.888l0.177-0.8H-390.043z"/>
	<path id="XMLID_449_" fill="#E49F15" d="M-387.732,32.474c-0.624,0-1.155-0.178-1.512-0.444c-0.354-0.267-0.532-0.8-0.532-1.333
		c0-0.889,0.268-1.6,0.799-2.221c0.534-0.622,1.245-0.977,2.044-0.977c0.534,0,0.977,0.178,1.245,0.443
		c0.265,0.268,0.444,0.622,0.444,1.155c0,0.089,0,0.179,0,0.444c0,0.178-0.09,0.355-0.09,0.622h-3.467c0,0.089,0,0.178,0,0.267
		s0,0.177,0,0.177c0,0.444,0.09,0.712,0.357,0.979c0.267,0.267,0.621,0.354,1.065,0.354c0.356,0,0.621-0.087,0.979-0.177
		c0.355-0.089,0.621-0.268,0.798-0.444h0.09l-0.177,0.888c-0.18,0.09-0.268,0.09-0.356,0.178c-0.088,0-0.268,0.09-0.444,0.09
		c-0.178,0-0.355,0.089-0.444,0.089C-387.378,32.474-387.468,32.474-387.732,32.474z M-388.267,26.343h-0.534l-0.798-1.155h0.978
		L-388.267,26.343z M-386.133,29.452c0-0.089,0-0.177,0-0.177c0-0.09,0-0.09,0-0.179c0-0.267-0.09-0.533-0.267-0.711
		c-0.178-0.177-0.444-0.267-0.802-0.267c-0.443,0-0.798,0.09-1.065,0.357c-0.354,0.266-0.534,0.621-0.621,0.977H-386.133z
		 M-385.512,26.876h-0.621l-0.534-1.066l-1.065,1.066h-0.711l1.332-1.6h0.978L-385.512,26.876z"/>
	<path id="XMLID_448_" fill="#E49F15" d="M-377.072,28.653c0,0.088,0,0.177,0,0.266c0,0.089,0,0.178-0.087,0.356l-0.711,3.108
		h-0.801l0.623-2.754c0-0.178,0.088-0.267,0.088-0.444c0-0.089,0-0.267,0-0.356c0-0.177-0.088-0.354-0.178-0.533
		c-0.09-0.088-0.354-0.178-0.621-0.178s-0.444,0.09-0.711,0.178c-0.268,0.089-0.534,0.267-0.711,0.444c0,0.089,0,0.178,0,0.267
		c0,0.089,0,0.178,0,0.268l-0.712,3.02h-0.798l0.621-2.755c0-0.178,0.09-0.355,0.09-0.444c0-0.089,0-0.267,0-0.355
		c0-0.266-0.09-0.444-0.18-0.532c-0.178-0.09-0.354-0.178-0.531-0.178c-0.178,0-0.357,0-0.534,0.088
		c-0.178,0.09-0.532,0.267-0.799,0.444l-0.801,3.555h-0.799l1.066-4.799h0.801l-0.09,0.534c0.268-0.178,0.534-0.355,0.799-0.444
		c0.268-0.09,0.534-0.178,0.801-0.178c0.354,0,0.622,0.088,0.799,0.178c0.18,0.178,0.357,0.354,0.357,0.532
		c0.354-0.266,0.712-0.443,0.977-0.622c0.267-0.088,0.623-0.178,0.888-0.178c0.444,0,0.712,0.09,0.979,0.357
		C-377.159,28.031-377.072,28.297-377.072,28.653z"/>
	<path id="XMLID_447_" fill="#E49F15" d="M-369.608,27.587l-0.177,0.622h-1.689l-0.531,2.221c0,0.089-0.09,0.267-0.09,0.356
		c0,0.179,0,0.266,0,0.355c0,0.178,0.09,0.354,0.177,0.444c0.09,0.089,0.268,0.178,0.624,0.178c0.088,0,0.267,0,0.444-0.089
		c0.177,0,0.267-0.089,0.354-0.089l0,0l-0.178,0.711c-0.177,0-0.354,0.088-0.533,0.088c-0.178,0-0.354,0-0.444,0
		c-0.354,0-0.712-0.088-0.889-0.266c-0.177-0.179-0.354-0.444-0.354-0.8c0-0.089,0-0.178,0-0.268c0-0.087,0-0.177,0.088-0.266
		l0.623-2.576h-0.623l0.179-0.622h0.532l0.356-1.333h0.799l-0.354,1.333H-369.608z"/>
	<path id="XMLID_444_" fill="#E49F15" d="M-367.831,27.587l-1.065,4.797h-0.799l1.065-4.797H-367.831z M-367.387,25.987l-0.178,0.8
		h-0.888l0.177-0.8H-367.387z"/>
	<path id="XMLID_443_" fill="#E49F15" d="M-362.588,28.653c0,0.088,0,0.177,0,0.266c0,0.089,0,0.178-0.09,0.267l-0.709,3.11h-0.801
		l0.621-2.755c0-0.178,0.09-0.266,0.09-0.355c0-0.089,0-0.267,0-0.356c0-0.267-0.09-0.444-0.178-0.533
		c-0.09-0.088-0.357-0.178-0.621-0.178c-0.18,0-0.444,0.09-0.711,0.178c-0.268,0.089-0.534,0.267-0.801,0.444l-0.799,3.555h-0.801
		l1.067-4.798h0.799l-0.09,0.533c0.268-0.178,0.624-0.355,0.891-0.533c0.265-0.089,0.532-0.179,0.799-0.179
		c0.444,0,0.711,0.09,0.978,0.357C-362.766,28.031-362.588,28.297-362.588,28.653z"/>
	<polygon id="XMLID_442_" fill="#E49F15" points="-353.614,27.587 -356.634,32.384 -357.436,32.384 -358.233,27.587 
		-357.436,27.587 -356.814,31.408 -354.503,27.587 	"/>
	<path id="XMLID_438_" fill="#E49F15" d="M-350.593,31.853c-0.09,0.087-0.177,0.087-0.356,0.177
		c-0.088,0.089-0.265,0.177-0.444,0.177c-0.178,0.09-0.265,0.09-0.444,0.178c-0.178,0-0.355,0.09-0.621,0.09
		c-0.354,0-0.712-0.09-0.889-0.355c-0.267-0.179-0.354-0.533-0.354-0.889c0-0.356,0.088-0.711,0.265-0.978
		c0.18-0.267,0.444-0.444,0.711-0.622c0.357-0.178,0.711-0.267,1.155-0.354c0.444-0.09,0.978-0.09,1.51-0.179
		c0-0.089,0-0.178,0.09-0.178c0-0.089,0-0.089,0-0.178c0-0.178,0-0.266-0.09-0.355c-0.087-0.089-0.087-0.177-0.265-0.177
		c-0.09-0.09-0.179-0.09-0.356-0.09c-0.087,0-0.267,0-0.444,0c-0.267,0-0.531,0-0.799,0.09c-0.267,0.088-0.533,0.177-0.711,0.267
		l0,0l0.178-0.8c0.177,0,0.356-0.089,0.711-0.178c0.355-0.089,0.621-0.089,0.889-0.089c0.621,0,1.065,0.089,1.332,0.267
		c0.268,0.178,0.444,0.443,0.444,0.888c0,0.09,0,0.178,0,0.267s0,0.178,0,0.267l-0.711,3.199h-0.799V31.853z M-350.148,29.808
		c-0.444,0-0.801,0.089-1.155,0.089c-0.354,0.089-0.622,0.089-0.801,0.178c-0.265,0.089-0.444,0.178-0.532,0.355
		c-0.09,0.177-0.177,0.356-0.177,0.621c0,0.179,0.087,0.357,0.177,0.444c0.178,0.09,0.354,0.179,0.621,0.179
		c0.267,0,0.534-0.089,0.802-0.179c0.265-0.087,0.531-0.266,0.709-0.444L-350.148,29.808z M-350.061,26.787h-0.621l-0.799-1.6h0.977
		L-350.061,26.787z"/>
	<path id="XMLID_437_" fill="#E49F15" d="M-341.709,27.587l-0.177,0.622h-1.688l-0.534,2.221c0,0.089-0.09,0.267-0.09,0.356
		c0,0.179,0,0.266,0,0.355c0,0.178,0.09,0.354,0.18,0.444c0.088,0.089,0.265,0.178,0.622,0.178c0.087,0,0.267,0,0.443-0.089
		c0.178,0,0.268-0.089,0.354-0.089l0,0l-0.177,0.711c-0.178,0-0.354,0.088-0.534,0.088c-0.177,0-0.355,0-0.444,0
		c-0.354,0-0.709-0.088-0.888-0.266c-0.178-0.179-0.355-0.444-0.355-0.8c0-0.089,0-0.178,0-0.268c0-0.087,0-0.177,0.09-0.266
		l0.531-2.576h-0.531l0.177-0.622h0.531l0.357-1.333h0.798l-0.354,1.333H-341.709z"/>
	<path id="XMLID_436_" fill="#E49F15" d="M-337.088,28.653c0,0.088,0,0.177,0,0.266c0,0.089,0,0.178-0.09,0.267l-0.711,3.11h-0.799
		l0.622-2.755c0-0.178,0.09-0.266,0.09-0.355c0-0.089,0-0.267,0-0.356c0-0.267-0.09-0.444-0.178-0.533
		c-0.09-0.088-0.357-0.178-0.623-0.178c-0.178,0-0.444,0.09-0.712,0.178c-0.265,0.089-0.531,0.267-0.798,0.444l-0.799,3.555h-0.801
		l1.51-6.664h0.801l-0.534,2.399c0.267-0.178,0.621-0.355,0.889-0.533c0.267-0.089,0.533-0.179,0.801-0.179
		c0.444,0,0.711,0.09,0.975,0.357C-337.265,28.031-337.088,28.297-337.088,28.653z"/>
	<path id="XMLID_432_" fill="#E49F15" d="M-335.845,33.983h-0.889l0.178-0.799h0.891L-335.845,33.983z M-334.422,27.587
		l-1.066,4.797h-0.888l1.065-4.797H-334.422z M-333.979,25.987l-0.177,0.8h-0.889l0.178-0.8H-333.979z"/>
	<path id="XMLID_431_" fill="#E49F15" d="M-329.18,28.653c0,0.088,0,0.177,0,0.266c0,0.089,0,0.178-0.09,0.267l-0.711,3.11h-0.799
		l0.622-2.755c0-0.178,0.09-0.266,0.09-0.355c0-0.089,0-0.267,0-0.356c0-0.267-0.09-0.444-0.18-0.533
		c-0.088-0.088-0.354-0.178-0.622-0.178c-0.177,0-0.443,0.09-0.711,0.178c-0.265,0.089-0.531,0.267-0.799,0.444l-0.801,3.555h-0.799
		l1.066-4.798h0.801l-0.09,0.533c0.267-0.178,0.621-0.355,0.889-0.533c0.267-0.089,0.533-0.179,0.801-0.179
		c0.444,0,0.709,0.09,0.976,0.357C-329.357,28.031-329.18,28.297-329.18,28.653z"/>
	<path id="XMLID_430_" fill="#E49F15" d="M-323.672,28.653c0,0.088,0,0.177,0,0.266c0,0.089,0,0.178-0.088,0.267l-0.711,3.11h-0.801
		l0.624-2.755c0-0.178,0.087-0.266,0.087-0.355c0-0.089,0-0.267,0-0.356c0-0.267-0.087-0.444-0.177-0.533
		c-0.09-0.088-0.354-0.178-0.622-0.178c-0.177,0-0.443,0.09-0.711,0.178c-0.267,0.089-0.534,0.267-0.801,0.444l-0.799,3.555h-0.799
		l1.511-6.664h0.798l-0.531,2.399c0.265-0.178,0.621-0.355,0.889-0.533c0.267-0.089,0.531-0.179,0.798-0.179
		c0.444,0,0.712,0.09,0.979,0.357C-323.76,28.031-323.672,28.297-323.672,28.653z"/>
	<polygon id="XMLID_429_" fill="#E49F15" points="-314.698,27.587 -317.718,32.384 -318.519,32.384 -319.317,27.587 
		-318.519,27.587 -317.896,31.408 -315.587,27.587 	"/>
	<path id="XMLID_428_" fill="#E49F15" d="M-309.81,28.209l-0.979,4.175h-0.799l0.088-0.531c-0.268,0.177-0.622,0.354-0.889,0.443
		c-0.267,0.088-0.531,0.178-0.799,0.178c-0.444,0-0.711-0.09-0.978-0.267c-0.268-0.177-0.354-0.532-0.354-0.888
		c0-0.089,0-0.178,0-0.268c0-0.087,0-0.177,0.087-0.355l0.712-3.109h0.801l-0.624,2.754c0,0.089-0.088,0.266-0.088,0.355
		c0,0.178,0,0.268,0,0.355c0,0.268,0.088,0.444,0.178,0.534c0.09,0.089,0.354,0.178,0.621,0.178c0.178,0,0.444-0.089,0.711-0.178
		c0.268-0.09,0.534-0.267,0.712-0.444l0.799-3.554h0.443c0.444,0,0.712-0.089,0.889-0.268c0.18-0.178,0.18-0.532,0.18-0.976h0.621
		c0,0.622-0.09,1.066-0.356,1.333C-308.922,27.941-309.278,28.119-309.81,28.209z"/>
	<path id="XMLID_424_" fill="#E49F15" d="M-304.303,29.275c0,0.443-0.087,0.799-0.177,1.243c-0.09,0.355-0.355,0.711-0.534,1.066
		c-0.265,0.267-0.531,0.533-0.889,0.711c-0.353,0.178-0.708,0.267-1.155,0.267c-0.531,0-0.976-0.179-1.332-0.444
		c-0.354-0.355-0.444-0.8-0.444-1.333c0-0.444,0.09-0.8,0.18-1.244c0.087-0.355,0.354-0.711,0.531-1.065
		c0.268-0.267,0.534-0.534,0.889-0.712c0.356-0.177,0.711-0.266,1.155-0.266c0.177,0,0.356,0,0.534,0.089
		c0.177,0,0.354,0.089,0.444,0.177c0.354,0,0.621-0.177,0.798-0.354c0.178-0.178,0.268-0.533,0.268-0.978h0.621
		c0,0.622-0.087,1.067-0.354,1.332c-0.267,0.268-0.534,0.445-0.889,0.445c0.088,0.177,0.178,0.354,0.267,0.532
		C-304.303,28.83-304.303,29.008-304.303,29.275z M-305.545,31.051c0.177-0.266,0.267-0.532,0.354-0.799
		c0.09-0.267,0.09-0.622,0.09-0.977c0-0.356-0.09-0.712-0.268-0.89c-0.177-0.177-0.444-0.267-0.799-0.267
		c-0.267,0-0.533,0.09-0.711,0.178c-0.177,0.089-0.444,0.356-0.534,0.533c-0.177,0.267-0.267,0.445-0.353,0.8
		c-0.09,0.267-0.09,0.622-0.09,0.977c0,0.357,0.09,0.712,0.267,0.889c0.177,0.179,0.444,0.357,0.799,0.357
		c0.267,0,0.534-0.09,0.711-0.179C-305.902,31.495-305.723,31.318-305.545,31.051z M-306.968,33.983h-0.888l0.177-0.799h0.889
		L-306.968,33.983z"/>
	<path id="XMLID_423_" fill="#E49F15" d="M-298.882,28.653c0,0.088,0,0.177,0,0.266c0,0.089,0,0.178-0.088,0.267l-0.711,3.11h-0.801
		l0.623-2.755c0-0.178,0.088-0.266,0.088-0.355c0-0.089,0-0.267,0-0.356c0-0.267-0.088-0.444-0.178-0.533
		c-0.09-0.088-0.354-0.178-0.621-0.178c-0.18,0-0.444,0.09-0.711,0.178c-0.268,0.089-0.534,0.267-0.801,0.444l-0.799,3.555h-0.799
		l1.065-4.798h0.799l-0.087,0.533c0.265-0.178,0.621-0.355,0.888-0.533c0.268-0.089,0.532-0.179,0.799-0.179
		c0.444,0,0.711,0.09,0.979,0.357C-298.97,28.031-298.882,28.297-298.882,28.653z"/>
	<path id="XMLID_420_" fill="#E49F15" d="M-293.195,27.587l-0.978,4.266c-0.177,0.798-0.531,1.421-0.888,1.776
		c-0.444,0.354-1.066,0.533-1.777,0.533c-0.267,0-0.533,0-0.711-0.089c-0.267,0-0.444-0.09-0.711-0.178l0.18-0.801l0,0
		c0.177,0.09,0.355,0.179,0.621,0.179c0.267,0.089,0.534,0.089,0.799,0.089c0.267,0,0.534,0,0.711-0.089
		c0.178-0.089,0.356-0.179,0.444-0.268c0.09-0.088,0.177-0.266,0.267-0.443c0.09-0.179,0.178-0.356,0.178-0.533l0.09-0.444
		c-0.268,0.178-0.534,0.354-0.801,0.444c-0.178,0.089-0.532,0.177-0.799,0.177c-0.444,0-0.799-0.177-1.065-0.443
		c-0.268-0.268-0.357-0.712-0.357-1.156c0-0.443,0.09-0.799,0.178-1.154c0.18-0.356,0.356-0.711,0.533-1.066
		c0.268-0.267,0.534-0.532,0.889-0.71c0.357-0.178,0.711-0.267,1.065-0.267c0.268,0,0.534,0,0.712,0.089
		c0.179,0.089,0.443,0.178,0.533,0.266l0.09-0.177H-293.195z M-294.174,28.476c-0.177-0.09-0.354-0.179-0.531-0.179
		c-0.18-0.088-0.356-0.088-0.624-0.088c-0.265,0-0.531,0.088-0.798,0.177c-0.268,0.09-0.444,0.268-0.622,0.533
		c-0.177,0.178-0.267,0.444-0.357,0.8c-0.088,0.267-0.088,0.622-0.088,0.888c0,0.357,0.088,0.623,0.268,0.802
		c0.177,0.177,0.444,0.266,0.709,0.266c0.267,0,0.444-0.089,0.711-0.179c0.267-0.087,0.444-0.266,0.711-0.354L-294.174,28.476z"/>
</g>
<polyline id="XMLID_418_" fill="#E49F15" points="-411.634,10.616 -411.634,48.911 -411.19,48.911 -411.19,10.616 "/>
<g>
	<path id="XMLID_360_" fill="#E49F15" d="M-535.404,28.209c0.444,3.73,2.132,7.02,4.621,9.418c-0.267-0.8-0.356-1.6-0.178-2.312
		c0.533-2.221,2.754-3.73,5.865-4.175V20.479C-533.272,19.057-535.938,24.21-535.404,28.209"/>
	<path id="XMLID_359_" fill="#E49F15" d="M-504.306,24.743c-0.445-3.732-2.132-7.019-4.62-9.418c0.267,0.711,0.354,1.511,0.177,2.31
		c-0.533,2.222-2.754,3.732-5.864,4.177v10.662C-506.439,33.896-503.862,28.653-504.306,24.743"/>
	<path id="XMLID_358_" fill="#E49F15" d="M-535.138,22.967c2.132-2.933,5.953-4.621,12.973-2.577
		c12.35,3.465,16.348-4.621,9.329-7.908c-2.132-1.066-4.532-1.688-7.019-1.688C-527.319,10.794-533.538,16.036-535.138,22.967"/>
	<path id="XMLID_357_" fill="#E49F15" d="M-504.573,29.897c-2.132,2.933-5.953,4.621-12.972,2.577
		c-12.439-3.466-16.438,4.62-9.418,7.996c2.132,1.067,4.531,1.688,7.019,1.688C-512.392,42.068-506.171,36.915-504.573,29.897"/>
</g>
<g>
	<path fill="#008C4F" d="M-486.767,14.115c-7.463,0-13.477,5.576-13.477,12.415s6.065,12.415,13.477,12.415
		c7.412,0,13.477-5.576,13.477-12.415S-479.322,14.115-486.767,14.115z M-486.767,34.448c-1.987-0.117-3.848-1.015-5.176-2.498
		c-1.328-1.483-2.017-3.431-1.916-5.419c-0.11-1.994,0.574-3.951,1.903-5.441s3.195-2.393,5.189-2.51
		c1.988,0.117,3.848,1.015,5.176,2.498c1.328,1.483,2.017,3.431,1.916,5.419c0.101,1.988-0.587,3.936-1.916,5.419
		c-1.328,1.483-3.189,2.381-5.176,2.498"/>
	<path fill="#008C4F" d="M-427.807,31.483c-0.029-0.897-0.253-1.777-0.657-2.577c-0.423-0.851-1.055-1.581-1.836-2.123
		c-0.453-0.321-0.946-0.582-1.466-0.775c0.83-0.38,1.554-0.958,2.106-1.685c0.768-1.127,1.136-2.48,1.045-3.841
		c-0.006-0.792-0.177-1.574-0.502-2.296c-0.325-0.722-0.796-1.369-1.384-1.899c-1.477-1.135-3.313-1.697-5.172-1.584h-13.359v23.584
		h11.691c1.777,0.042,3.548-0.214,5.239-0.758c1.348-0.412,2.528-1.244,3.369-2.375c0.737-1.089,1.081-2.396,0.977-3.706
		L-427.807,31.483z M-438.892,18.31c2.931,0,3.926,0.606,3.926,2.813c0,1.87-1.146,2.645-3.824,2.645h-1.567l-1.685,4.414h3.369
		c2.931,0,4.464,0.977,4.464,3.218c0,2.24-1.685,3.218-4.599,3.218h-3.858V18.343L-438.892,18.31z"/>
	<path fill="#008C4F" d="M-451.509,32.528c-1.582,1.252-3.542,1.929-5.559,1.92c-2.186,0.073-4.311-0.723-5.912-2.213
		c-1.601-1.49-2.546-3.553-2.629-5.738c0.079-2.187,1.023-4.253,2.625-5.744c1.602-1.491,3.73-2.285,5.916-2.208
		c2.017-0.009,3.978,0.668,5.559,1.92v-4.818c-2.094-1.039-4.401-1.576-6.738-1.567c-7.614,0-13.797,5.559-13.797,12.415
		c0,6.856,6.182,12.415,13.797,12.415c2.34,0.011,4.649-0.531,6.738-1.584V32.528z"/>
	<path fill="#008C4F" d="M-496.386,45.752c0-0.387,0-0.792,0-1.179v-1.078c0-0.303,0-0.708,0-1.179h-0.943c0,0.236,0,0.539,0,0.994
		c0,0.455,0,0.825,0,1.381v0.825l-0.32-0.59l-0.539-0.977l-0.472-0.842l-0.421-0.792h-1.162c0,0.404,0,0.792,0,1.23v2.257
		c0,0.421,0,0.792,0,1.146v0.084h0.977v-0.084c0-0.455,0-0.775,0-1.061c0-0.286,0-0.792,0-1.247v-0.859l1.836,3.251h1.146v-0.084
		c0-0.371,0-0.758,0-1.196"/>
	<path fill="#008C4F" d="M-493.944,43.326c-0.253,0.002-0.504,0.048-0.741,0.135c-0.238,0.073-0.453,0.206-0.623,0.387
		c-0.192,0.188-0.337,0.419-0.421,0.674c-0.1,0.304-0.146,0.623-0.135,0.943c0.005,0.318,0.086,0.629,0.236,0.91
		c0.114,0.22,0.289,0.401,0.505,0.522c0.2,0.113,0.427,0.171,0.657,0.168c0.212,0.002,0.42-0.05,0.606-0.152
		c0.116-0.071,0.219-0.163,0.303-0.27c0.031,0.235,0.031,0.473,0,0.708c-0.029,0.14-0.107,0.265-0.219,0.354
		c-0.131,0.081-0.284,0.122-0.438,0.118c-0.384-0.02-0.761-0.112-1.112-0.27h-0.118l0.084,0.943c0.21,0.06,0.424,0.105,0.64,0.135
		c0.236,0.017,0.472,0.017,0.708,0c0.375,0.021,0.745-0.093,1.044-0.32c0.139-0.15,0.243-0.329,0.304-0.525
		c0.061-0.195,0.078-0.402,0.05-0.604c0-1.314,0-2.544,0-3.622c-0.419-0.105-0.848-0.167-1.28-0.185L-493.944,43.326z
		 M-493.506,45.398c-0.007,0.225-0.084,0.443-0.219,0.623c-0.05,0.065-0.113,0.119-0.186,0.157
		c-0.073,0.038-0.153,0.059-0.235,0.062c-0.092,0.027-0.19,0.031-0.285,0.01c-0.094-0.021-0.182-0.065-0.254-0.128
		c-0.153-0.177-0.231-0.407-0.219-0.64c-0.021-0.247,0.02-0.496,0.118-0.724c0.071-0.161,0.196-0.292,0.354-0.371
		c0.149-0.082,0.318-0.123,0.489-0.118c0.123-0.021,0.248-0.021,0.371,0c0.03,0.392,0.03,0.787,0,1.179"/>
	<path fill="#008C4F" d="M-490.743,42.686l0.253,0.303h0.657l-0.387-0.758h-1.078l-0.337,0.758h0.674L-490.743,42.686z"/>
	<path fill="#008C4F" d="M-489.294,46.122c0-0.337,0-0.674,0-1.028V44.32c0-0.657-0.455-0.994-1.263-0.994
		c-0.43,0.004-0.857,0.078-1.263,0.219v0.842h0.135c0.16-0.086,0.33-0.154,0.505-0.202c0.186-0.053,0.379-0.081,0.573-0.084
		c0.404,0,0.455,0.168,0.455,0.303s0,0.219-0.118,0.236c-0.233,0.107-0.475,0.192-0.724,0.253c-0.307,0.089-0.593,0.238-0.842,0.438
		c-0.101,0.1-0.178,0.222-0.225,0.356c-0.047,0.134-0.062,0.278-0.044,0.419c-0.001,0.141,0.027,0.282,0.082,0.412
		c0.055,0.13,0.136,0.248,0.238,0.346c0.111,0.107,0.244,0.189,0.389,0.242c0.145,0.052,0.3,0.073,0.454,0.062h0.539l0.152-0.842
		l-0.152,0.084c0,0-0.168,0-0.421,0.101c-0.253,0.101-0.404-0.202-0.404-0.337c-0.009-0.061-0.001-0.122,0.023-0.179
		c0.024-0.056,0.062-0.105,0.112-0.141c0.176-0.103,0.362-0.188,0.556-0.253c0.137-0.036,0.268-0.093,0.387-0.168
		c0,0.724,0,1.263,0,1.685V47.2h0.977v-0.084c0-0.27,0-0.539,0-0.825"/>
	<path fill="#008C4F" d="M-485.538,46.425c0-0.135,0-0.371,0-0.724v-1.263c-0.015-0.202-0.06-0.401-0.135-0.59
		c-0.087-0.174-0.221-0.32-0.387-0.421c-0.208-0.107-0.44-0.159-0.674-0.152c-0.193-0.014-0.387,0.02-0.563,0.099
		c-0.177,0.079-0.33,0.202-0.448,0.356v-0.371h-0.977v0.084c0,1.112,0,2.274,0,3.369v0.084h0.994V45.33
		c-0.009-0.123-0.009-0.247,0-0.371c0-0.556,0.286-0.809,0.674-0.809c0.387,0,0.539,0.202,0.556,0.64c0.017,0.438,0,1.263,0,2.022
		v0.084h1.028v-0.084c0-0.202,0-0.387,0-0.522"/>
	<path fill="#008C4F" d="M-479.322,42.315h-1.078c0,0.371,0,0.96,0,1.685h-1.685c0-0.202,0-0.455,0-0.758v-1.078h-1.061
		c0,0.741,0,1.499,0,2.291c0,0.792,0,1.567,0,2.342v0.084h1.061v-0.152c0.007-0.123,0.007-0.247,0-0.371v-1.55h1.769
		c0,0.354,0,0.691,0,1.011c0,0.32,0,0.674,0,0.977v0.084h1.078v-0.084c0-1.247,0-2.813,0-4.633"/>
	<path fill="#008C4F" d="M-476.811,43.073l-0.371-0.842h-1.112l0.708,0.842H-476.811z"/>
	<path fill="#008C4F" d="M-475.952,46.122V44.32c0-0.657-0.455-0.994-1.247-0.994c-0.43,0.004-0.857,0.078-1.263,0.219v0.842h0.135
		c0.153-0.089,0.317-0.157,0.489-0.202c0.187-0.052,0.379-0.08,0.573-0.084c0.404,0,0.472,0.168,0.472,0.303s0,0.219-0.118,0.236
		c-0.233,0.107-0.476,0.192-0.724,0.253c-0.308,0.085-0.595,0.234-0.842,0.438c-0.101,0.1-0.178,0.222-0.225,0.356
		c-0.047,0.134-0.062,0.278-0.044,0.419c-0.003,0.14,0.022,0.28,0.074,0.41c0.052,0.13,0.13,0.249,0.229,0.348
		c0.115,0.106,0.251,0.187,0.399,0.239c0.148,0.052,0.304,0.074,0.461,0.064h0.522l0.168-0.842l-0.152,0.084
		c-0.134,0.073-0.286,0.108-0.438,0.101c-0.337,0-0.388-0.202-0.388-0.32c-0.014-0.063-0.009-0.129,0.015-0.189
		c0.024-0.06,0.066-0.112,0.12-0.148c0.174-0.107,0.361-0.191,0.556-0.253c0.133-0.033,0.259-0.09,0.371-0.168
		c0,0.758,0,1.297,0,1.685V47.2h0.96v-0.084c0-0.27,0-0.539,0-0.825"/>
	<path fill="#008C4F" d="M-472.213,46.425v-1.482c0.008-0.152,0.008-0.303,0-0.455c0.002-0.204-0.045-0.406-0.135-0.59
		c-0.076-0.181-0.213-0.33-0.387-0.421c-0.207-0.109-0.44-0.161-0.674-0.152c-0.19-0.013-0.381,0.022-0.555,0.101
		c-0.174,0.079-0.325,0.201-0.439,0.354V43.41h-0.977v0.084c0,1.078,0,2.24,0,3.369v0.084h1.011v-0.253
		c-0.009-0.112-0.009-0.225,0-0.337c0-0.219,0-0.387,0-0.539c0-0.152,0-0.303,0-0.438c0-0.135,0-0.27,0-0.371
		c0-0.556,0.303-0.809,0.691-0.809c0.387,0,0.539,0.202,0.556,0.64c0.017,0.438,0,1.263,0,2.022v0.084h1.028v-0.084
		c0-0.202,0-0.371,0-0.522"/>
	<path fill="#008C4F" d="M-469.921,43.326c-0.259,0.001-0.515,0.046-0.758,0.135c-0.236,0.077-0.45,0.21-0.623,0.387
		c-0.192,0.188-0.336,0.419-0.421,0.674c-0.102,0.303-0.143,0.624-0.118,0.943c0,0.316,0.075,0.628,0.219,0.91
		c0.115,0.225,0.297,0.408,0.522,0.522c0.2,0.114,0.427,0.172,0.657,0.168c0.207,0.004,0.41-0.049,0.59-0.152
		c0.118-0.076,0.225-0.167,0.32-0.27c0.032,0.235,0.032,0.473,0,0.708c-0.011,0.071-0.036,0.138-0.074,0.199
		c-0.038,0.061-0.087,0.113-0.145,0.155c-0.131,0.081-0.284,0.122-0.438,0.118c-0.378-0.022-0.749-0.114-1.095-0.27h-0.135
		l0.101,0.943c0.204,0.06,0.413,0.105,0.623,0.135c0.236,0.017,0.472,0.017,0.708,0c0.38,0.016,0.754-0.097,1.061-0.32
		c0.132-0.154,0.23-0.334,0.288-0.529c0.058-0.194,0.075-0.399,0.049-0.6c0-1.331,0-2.544,0-3.622
		c-0.414-0.104-0.837-0.166-1.263-0.185L-469.921,43.326z M-469.5,45.448c-0.013,0.227-0.095,0.445-0.236,0.623
		c-0.05,0.065-0.113,0.119-0.186,0.157c-0.073,0.038-0.153,0.059-0.235,0.062c-0.086-0.001-0.17-0.019-0.248-0.054
		c-0.078-0.035-0.149-0.085-0.206-0.148c-0.153-0.177-0.231-0.407-0.219-0.64c-0.016-0.249,0.03-0.498,0.135-0.724
		c0.07-0.156,0.188-0.286,0.337-0.371c0.15-0.081,0.318-0.121,0.489-0.118c0.128-0.02,0.259-0.02,0.387,0c0,0.573,0,0.994,0,1.179"
		/>
	<path fill="#008C4F" d="M-459.561,46.24v-1.802c0.005-0.165-0.024-0.329-0.085-0.483c-0.061-0.154-0.152-0.293-0.269-0.41
		c-0.243-0.196-0.548-0.297-0.859-0.286c-0.252-0.004-0.5,0.054-0.724,0.168c-0.121,0.079-0.224,0.182-0.303,0.303
		c0-0.522,0-1.011,0-1.482h-0.994c0,1.685,0,3.167,0,4.633v0.084h1.011V46.88c-0.034-0.533-0.034-1.067,0-1.6
		c-0.004-0.288,0.065-0.572,0.202-0.825c0.051-0.078,0.121-0.14,0.204-0.182c0.083-0.041,0.175-0.06,0.268-0.054
		c0.073-0.009,0.148-0.002,0.218,0.021c0.07,0.023,0.134,0.062,0.187,0.114c0.114,0.15,0.173,0.334,0.168,0.522
		c0,0.59,0,1.263,0,2.005v0.084h1.028V46.88c0-0.236,0-0.472,0-0.708"/>
	<path fill="#008C4F" d="M-448.628,46.425v-1.482c0.009-0.151,0.009-0.303,0-0.455c-0.004-0.202-0.044-0.402-0.118-0.59
		c-0.089-0.178-0.23-0.325-0.404-0.421c-0.207-0.111-0.44-0.164-0.674-0.152c-0.19-0.013-0.381,0.022-0.555,0.101
		c-0.174,0.079-0.325,0.201-0.439,0.354V43.41h-0.977v0.084c0,1.095,0,2.257,0,3.369v0.084h1.011v-0.286
		c-0.008-0.101-0.008-0.202,0-0.303v-0.977c-0.009-0.123-0.009-0.247,0-0.371c0-0.556,0.286-0.809,0.674-0.809
		c0.387,0,0.539,0.202,0.556,0.64c0.017,0.438,0,1.263,0,2.022v0.084h1.028v-0.084c0-0.185,0-0.371,0-0.522"/>
	<path fill="#008C4F" d="M-446.337,43.326c-0.259,0.001-0.515,0.046-0.758,0.135c-0.236,0.077-0.45,0.21-0.623,0.387
		c-0.19,0.19-0.334,0.42-0.421,0.674c-0.094,0.305-0.134,0.624-0.118,0.943c0,0.316,0.075,0.628,0.219,0.91
		c0.115,0.225,0.297,0.408,0.522,0.522c0.2,0.114,0.427,0.172,0.657,0.168c0.207,0.004,0.411-0.049,0.59-0.152
		c0.118-0.076,0.225-0.167,0.32-0.27c0.032,0.235,0.032,0.473,0,0.708c-0.025,0.138-0.096,0.263-0.202,0.354
		c-0.133,0.079-0.284,0.119-0.438,0.118c-0.384-0.02-0.761-0.112-1.112-0.27h-0.135l0.101,0.943c0.204,0.06,0.413,0.105,0.623,0.135
		c0.236,0.017,0.472,0.017,0.708,0c0.379,0.016,0.754-0.097,1.061-0.32c0.139-0.15,0.241-0.329,0.3-0.525
		c0.058-0.196,0.071-0.402,0.037-0.604c0-1.364,0-2.544,0-3.622c-0.414-0.104-0.837-0.166-1.264-0.185L-446.337,43.326z
		 M-445.916,45.448c-0.021,0.225-0.102,0.441-0.236,0.623c-0.048,0.063-0.109,0.116-0.178,0.153c-0.07,0.038-0.147,0.06-0.226,0.066
		c-0.088,0.001-0.176-0.017-0.257-0.052c-0.081-0.035-0.154-0.086-0.215-0.15c-0.153-0.177-0.231-0.407-0.219-0.64
		c-0.016-0.249,0.03-0.498,0.135-0.724c0.07-0.156,0.188-0.286,0.337-0.371c0.15-0.081,0.318-0.121,0.489-0.118
		c0.128-0.021,0.259-0.021,0.388,0c0,0.59,0,0.994,0,1.179"/>
	<path fill="#008C4F" d="M-439.228,42.753c-0.179-0.178-0.392-0.318-0.627-0.41c-0.234-0.093-0.486-0.136-0.738-0.129h-1.971
		c0,0.724,0,1.348,0,1.87h-0.404v0.842h0.573c0,0.691,0,1.331,0,1.92v0.084h1.684c0.44,0.011,0.873-0.106,1.247-0.337
		c0.325-0.236,0.571-0.565,0.707-0.943c0.146-0.428,0.208-0.88,0.185-1.331c0.025-0.616-0.186-1.218-0.59-1.685L-439.228,42.753z
		 M-439.666,45.145c-0.071,0.247-0.218,0.465-0.421,0.623c-0.243,0.165-0.532,0.248-0.825,0.236h-0.539v-1.112h0.96v-0.859h-0.977
		v-1.044h0.91c0.204-0.011,0.406,0.048,0.572,0.168c0.146,0.127,0.256,0.29,0.32,0.472c0.078,0.262,0.101,0.537,0.067,0.809
		c0.019,0.29-0.015,0.581-0.101,0.859"/>
	<path fill="#008C4F" d="M-435.27,44.219c-0.125-0.269-0.323-0.497-0.572-0.657c-0.27-0.16-0.579-0.242-0.893-0.236
		c-0.318-0.018-0.632,0.068-0.896,0.244c-0.264,0.176-0.464,0.434-0.569,0.733c-0.135,0.319-0.192,0.665-0.169,1.011
		c0.011,0.23,0.056,0.457,0.135,0.674c0.068,0.21,0.177,0.405,0.32,0.573c0.146,0.175,0.33,0.313,0.539,0.404
		c0.221,0.105,0.463,0.157,0.708,0.152c0.342,0.011,0.679-0.089,0.96-0.286c0.248-0.182,0.436-0.434,0.539-0.724
		c0.105-0.303,0.15-0.623,0.135-0.943C-435.046,44.835-435.126,44.513-435.27,44.219z M-436.162,45.903
		c-0.039,0.1-0.109,0.185-0.2,0.243c-0.091,0.058-0.198,0.085-0.305,0.077c-0.101,0.003-0.202-0.018-0.293-0.062
		c-0.091-0.044-0.17-0.11-0.23-0.191c-0.14-0.203-0.216-0.444-0.219-0.691c-0.032-0.304,0.032-0.611,0.185-0.876
		c0.051-0.092,0.127-0.168,0.22-0.219c0.092-0.051,0.197-0.074,0.302-0.067c0.1,0.008,0.196,0.041,0.279,0.097
		c0.082,0.056,0.149,0.133,0.193,0.223c0.126,0.22,0.19,0.471,0.185,0.724c0.025,0.278-0.027,0.558-0.151,0.809"/>
	<path fill="#008C4F" d="M-436.785,42.686l0.236,0.303h0.657l-0.371-0.758h-1.078l-0.337,0.758h0.657L-436.785,42.686z"/>
	<path fill="#008C4F" d="M-431.462,46.425v-1.482c0.008-0.152,0.008-0.303,0-0.455c-0.004-0.202-0.044-0.402-0.118-0.59
		c-0.092-0.171-0.225-0.316-0.388-0.421c-0.214-0.107-0.451-0.159-0.691-0.152c-0.19-0.013-0.381,0.022-0.555,0.101
		c-0.174,0.079-0.325,0.201-0.439,0.354V43.41h-0.977v0.084c0,1.112,0,2.274,0,3.369v0.084h1.011v-0.084c0-0.135,0-0.303,0-0.505
		v-0.977c0-0.135,0-0.27,0-0.371c0-0.556,0.303-0.809,0.691-0.809s0.539,0.202,0.556,0.64c0.017,0.438,0,1.247,0,2.022v0.084h1.045
		v-0.084c0.01-0.174,0.01-0.348,0-0.522"/>
	<path fill="#008C4F" d="M-427.807,43.528c-0.414-0.104-0.837-0.166-1.264-0.185c-0.253-0.001-0.505,0.045-0.741,0.135
		c-0.243,0.073-0.463,0.206-0.64,0.387c-0.19,0.19-0.334,0.42-0.421,0.674c-0.094,0.305-0.134,0.624-0.118,0.943
		c0,0.316,0.075,0.628,0.219,0.91c0.115,0.225,0.298,0.408,0.522,0.522c0.2,0.114,0.427,0.172,0.657,0.168
		c0.211,0.002,0.42-0.05,0.606-0.152c0.116-0.071,0.218-0.163,0.303-0.27c0.032,0.235,0.032,0.473,0,0.708
		c-0.008,0.071-0.032,0.14-0.07,0.201c-0.038,0.061-0.088,0.113-0.149,0.152c-0.087,0.054-0.184,0.089-0.286,0.104
		c-0.101,0.015-0.205,0.008-0.303-0.02c-0.384-0.02-0.761-0.112-1.112-0.27h-0.118l0.084,0.943c0.204,0.06,0.412,0.105,0.623,0.135
		h0.708c0.38,0.016,0.754-0.097,1.061-0.32c0.139-0.15,0.243-0.329,0.303-0.525c0.061-0.195,0.078-0.402,0.05-0.604
		c0-1.331,0-2.544,0-3.622L-427.807,43.528z M-428.783,45.398c-0.013,0.227-0.095,0.445-0.236,0.623
		c-0.048,0.063-0.109,0.115-0.178,0.153c-0.07,0.038-0.147,0.06-0.226,0.066c-0.088,0.001-0.176-0.017-0.257-0.052
		c-0.081-0.035-0.154-0.086-0.215-0.15c-0.153-0.177-0.231-0.407-0.219-0.64c-0.016-0.249,0.03-0.498,0.135-0.724
		c0.07-0.156,0.188-0.286,0.337-0.371c0.155-0.083,0.329-0.123,0.505-0.118c0.123-0.02,0.248-0.02,0.371,0c0,0.59,0,0.994,0,1.179"
		/>
	<path fill="#008C4F" d="M-456.007,44.134c0.282-0.094,0.521-0.285,0.674-0.539c0.046-0.13,0.048-0.271,0.006-0.402
		c-0.043-0.131-0.128-0.244-0.241-0.322c-0.111-0.072-0.239-0.112-0.371-0.118c-0.17,0.013-0.332,0.071-0.472,0.168l0.135,0.371
		c0.055-0.015,0.113-0.015,0.168,0h0.084c0.03,0.038,0.046,0.086,0.046,0.135c0,0.049-0.016,0.096-0.046,0.135c0,0,0,0,0,0.084
		v-0.135h-0.977c0.034,0.64,0.034,1.281,0,1.92c0,0.337-0.168,0.724-0.623,0.724c-0.455,0-0.522-0.202-0.539-0.64
		c-0.017-0.438,0-1.685,0-2.005h-0.994c0,0.691,0,1.213,0,1.685s0,0.573,0,0.809c-0.005,0.155,0.022,0.31,0.081,0.454
		c0.059,0.144,0.148,0.274,0.261,0.38c0.113,0.107,0.248,0.188,0.395,0.239c0.147,0.051,0.303,0.069,0.458,0.055
		c0.185,0.014,0.37-0.017,0.54-0.09c0.17-0.073,0.32-0.187,0.437-0.331v0.337h0.927v-0.084c0-0.876,0-1.803,0-2.813"/>
	<path fill="#008C4F" d="M-452.621,43.949c0.141-0.101,0.257-0.233,0.337-0.387c0.045-0.127,0.046-0.266,0.004-0.394
		c-0.043-0.128-0.127-0.238-0.24-0.313c-0.102-0.077-0.226-0.118-0.354-0.118c-0.175,0.012-0.343,0.07-0.489,0.168l0.135,0.371
		c0.061-0.016,0.125-0.016,0.185,0h0.084c0.028,0.04,0.042,0.087,0.042,0.135c0,0.048-0.015,0.095-0.042,0.135
		c-0.043,0.053-0.094,0.098-0.152,0.135c-0.266-0.171-0.577-0.259-0.893-0.253c-0.216-0.006-0.43,0.033-0.63,0.114
		c-0.2,0.081-0.381,0.203-0.532,0.357c-0.177,0.204-0.311,0.443-0.392,0.701c-0.081,0.258-0.108,0.53-0.08,0.799
		c-0.011,0.228,0.024,0.456,0.103,0.671c0.08,0.214,0.202,0.41,0.359,0.575c0.158,0.165,0.347,0.297,0.557,0.387
		c0.21,0.09,0.436,0.136,0.665,0.136c0.211,0.011,0.422-0.023,0.619-0.098c0.197-0.075,0.377-0.191,0.527-0.34
		c0.347-0.412,0.517-0.945,0.472-1.482c-0.002-0.45-0.15-0.887-0.421-1.247L-452.621,43.949z M-453.412,46.122
		c-0.056,0.058-0.125,0.104-0.2,0.133c-0.076,0.029-0.157,0.041-0.238,0.036c-0.489,0-0.691-0.505-0.724-0.927
		c-0.044-0.346,0.047-0.696,0.253-0.977c0.058-0.057,0.126-0.101,0.202-0.13c0.075-0.029,0.156-0.042,0.236-0.039
		c0.606,0,0.708,0.674,0.724,0.96C-453.12,45.514-453.21,45.852-453.412,46.122z"/>
	<path fill="#008C4F" d="M-463.183,43.528c-0.015-0.226-0.066-0.448-0.152-0.657c-0.081-0.187-0.216-0.345-0.387-0.455
		c-0.167-0.121-0.367-0.185-0.573-0.185h-1.87c0,0.438,0,0.859,0,1.23c0,0.371,0,0.775,0,1.112v1.179c0,0.421,0,0.792,0,1.112v0.084
		h0.994v-0.084c0-0.337-0.084-3.201-0.084-3.47v-0.371h0.539c0.142-0.012,0.285,0.023,0.404,0.101
		c0.049,0.051,0.087,0.112,0.11,0.179c0.023,0.067,0.032,0.138,0.025,0.209c0.02,0.179-0.028,0.36-0.135,0.505
		c-0.106,0.111-0.243,0.188-0.393,0.221c-0.15,0.033-0.306,0.021-0.449-0.035l0.185,0.842c0.407,0.074,0.826-0.004,1.179-0.219
		c0.218-0.14,0.383-0.347,0.472-0.59c0.091-0.242,0.131-0.5,0.118-0.758"/>
</g>
<g>
	<path id="XMLID_4_" fill="#E49F15" d="M-263.879,28.254c0.444,3.731,2.132,7.02,4.621,9.418c-0.267-0.8-0.356-1.6-0.178-2.312
		c0.533-2.221,2.754-3.73,5.865-4.175V20.523C-261.747,19.101-264.413,24.255-263.879,28.254"/>
	<path id="XMLID_3_" fill="#E49F15" d="M-232.781,24.788c-0.445-3.732-2.132-7.019-4.62-9.418c0.267,0.711,0.355,1.511,0.177,2.31
		c-0.533,2.222-2.754,3.732-5.864,4.177v10.662C-234.913,33.94-232.337,28.698-232.781,24.788"/>
	<path id="XMLID_2_" fill="#E49F15" d="M-263.613,23.011c2.132-2.933,5.953-4.621,12.973-2.577
		c12.35,3.465,16.348-4.621,9.329-7.908c-2.132-1.066-4.532-1.688-7.019-1.688C-255.794,10.839-262.013,16.081-263.613,23.011"/>
	<path id="XMLID_1_" fill="#E49F15" d="M-233.048,29.941c-2.132,2.933-5.953,4.621-12.972,2.577
		c-12.439-3.466-16.438,4.62-9.419,7.996c2.132,1.067,4.531,1.688,7.019,1.688C-240.867,42.113-234.646,36.96-233.048,29.941"/>
</g>
<path fill="#008C4F" d="M-215.242,14.159c-7.463,0-13.477,5.576-13.477,12.415s6.065,12.415,13.477,12.415
	s13.477-5.576,13.477-12.415S-207.797,14.159-215.242,14.159z M-215.242,34.492c-1.988-0.117-3.848-1.015-5.176-2.498
	c-1.328-1.483-2.017-3.431-1.916-5.419c-0.11-1.994,0.574-3.951,1.903-5.441c1.329-1.49,3.195-2.393,5.189-2.51
	c1.988,0.117,3.848,1.015,5.176,2.498c1.328,1.483,2.017,3.431,1.916,5.419c0.101,1.988-0.587,3.936-1.916,5.419
	c-1.328,1.483-3.189,2.381-5.176,2.498"/>
<path fill="#008C4F" d="M-156.282,31.528c-0.029-0.897-0.253-1.777-0.657-2.577c-0.423-0.851-1.055-1.581-1.836-2.123
	c-0.453-0.321-0.946-0.582-1.466-0.775c0.83-0.38,1.554-0.958,2.106-1.685c0.768-1.127,1.136-2.48,1.045-3.841
	c-0.006-0.792-0.177-1.574-0.502-2.296c-0.325-0.722-0.796-1.369-1.384-1.899c-1.477-1.135-3.313-1.697-5.172-1.584h-13.359v23.584
	h11.691c1.777,0.042,3.548-0.214,5.239-0.758c1.348-0.412,2.528-1.244,3.369-2.375c0.737-1.089,1.081-2.396,0.977-3.706
	L-156.282,31.528z M-167.367,18.354c2.931,0,3.926,0.606,3.926,2.813c0,1.87-1.146,2.645-3.824,2.645h-1.567l-1.685,4.414h3.369
	c2.931,0,4.464,0.977,4.464,3.218c0,2.24-1.685,3.218-4.599,3.218h-3.858V18.388L-167.367,18.354z"/>
<path fill="#008C4F" d="M-179.984,32.572c-1.582,1.252-3.542,1.929-5.559,1.92c-2.186,0.073-4.311-0.723-5.912-2.213
	s-2.546-3.553-2.629-5.738c0.079-2.187,1.023-4.253,2.625-5.744c1.602-1.491,3.73-2.285,5.916-2.208
	c2.017-0.009,3.978,0.668,5.559,1.92v-4.818c-2.094-1.039-4.401-1.576-6.738-1.567c-7.614,0-13.797,5.559-13.797,12.415
	c0,6.856,6.182,12.415,13.797,12.415c2.34,0.011,4.649-0.531,6.738-1.584V32.572z"/>
<g>
	<g>
		<path id="XMLID_8_" fill="#E49F15" d="M-130.493,31.497c0.444,3.731,2.132,7.019,4.621,9.418c-0.267-0.8-0.356-1.6-0.178-2.312
			c0.533-2.221,2.754-3.73,5.865-4.175V23.766C-128.361,22.344-131.027,27.498-130.493,31.497"/>
		<path id="XMLID_7_" fill="#E49F15" d="M-99.395,28.031c-0.445-3.732-2.132-7.019-4.62-9.418c0.267,0.711,0.354,1.511,0.177,2.31
			c-0.533,2.222-2.754,3.732-5.864,4.177v10.662C-101.528,37.183-98.951,31.941-99.395,28.031"/>
		<path id="XMLID_6_" fill="#E49F15" d="M-130.227,26.254c2.132-2.933,5.953-4.621,12.973-2.577
			c12.35,3.465,16.348-4.621,9.329-7.908c-2.132-1.066-4.532-1.688-7.019-1.688C-122.408,14.082-128.627,19.324-130.227,26.254"/>
		<path id="XMLID_5_" fill="#E49F15" d="M-99.662,33.184c-2.132,2.933-5.953,4.621-12.972,2.577
			c-12.439-3.466-16.438,4.62-9.418,7.996c2.132,1.067,4.531,1.689,7.019,1.689C-107.481,45.356-101.261,40.203-99.662,33.184"/>
	</g>
	<path fill="#008C4F" d="M-81.857,17.402c-7.463,0-13.477,5.576-13.477,12.415s6.065,12.415,13.477,12.415
		c7.412,0,13.477-5.576,13.477-12.415S-74.411,17.402-81.857,17.402z M-81.857,37.735c-1.987-0.117-3.848-1.015-5.176-2.498
		c-1.328-1.483-2.017-3.431-1.916-5.419c-0.11-1.994,0.574-3.951,1.903-5.441c1.329-1.49,3.195-2.393,5.189-2.51
		c1.987,0.117,3.848,1.015,5.176,2.498c1.328,1.483,2.017,3.431,1.916,5.419c0.101,1.988-0.587,3.936-1.916,5.419
		c-1.328,1.483-3.189,2.381-5.176,2.498"/>
	<path fill="#008C4F" d="M-22.896,34.771c-0.029-0.897-0.253-1.777-0.657-2.577c-0.423-0.851-1.055-1.581-1.836-2.123
		c-0.453-0.321-0.946-0.582-1.466-0.775c0.83-0.38,1.554-0.958,2.106-1.685c0.768-1.127,1.136-2.48,1.045-3.841
		c-0.006-0.792-0.177-1.574-0.502-2.296c-0.325-0.722-0.796-1.369-1.384-1.899c-1.477-1.135-3.313-1.697-5.172-1.584h-13.359v23.584
		h11.691c1.777,0.042,3.548-0.214,5.239-0.758c1.348-0.412,2.528-1.244,3.369-2.375c0.737-1.089,1.081-2.396,0.977-3.706
		L-22.896,34.771z M-33.981,21.597c2.931,0,3.926,0.606,3.926,2.813c0,1.87-1.146,2.645-3.824,2.645h-1.567l-1.685,4.414h3.369
		c2.931,0,4.464,0.977,4.464,3.218c0,2.24-1.685,3.218-4.599,3.218h-3.858V21.631L-33.981,21.597z"/>
	<path fill="#008C4F" d="M-46.598,35.815c-1.582,1.252-3.542,1.929-5.559,1.92c-2.186,0.073-4.311-0.723-5.912-2.213
		c-1.601-1.49-2.546-3.553-2.629-5.738c0.079-2.187,1.023-4.253,2.625-5.744c1.602-1.491,3.73-2.285,5.916-2.208
		c2.017-0.009,3.978,0.668,5.559,1.92v-4.818c-2.094-1.039-4.401-1.576-6.738-1.567c-7.614,0-13.797,5.559-13.797,12.415
		c0,6.856,6.182,12.415,13.797,12.415c2.34,0.011,4.649-0.531,6.738-1.584V35.815z"/>
</g>
<path fill="#008C4F" d="M-224.861,45.796c0-0.387,0-0.792,0-1.179v-1.078c0-0.303,0-0.708,0-1.179h-0.943c0,0.236,0,0.539,0,0.994
	c0,0.455,0,0.825,0,1.381v0.825l-0.32-0.59l-0.539-0.977l-0.472-0.842l-0.421-0.792h-1.162c0,0.404,0,0.792,0,1.23v2.257
	c0,0.421,0,0.792,0,1.146v0.084h0.977v-0.084c0-0.455,0-0.775,0-1.061c0-0.286,0-0.792,0-1.247v-0.859l1.836,3.251h1.146v-0.084
	c0-0.371,0-0.758,0-1.196"/>
<path fill="#008C4F" d="M-222.419,43.37c-0.253,0.002-0.504,0.048-0.741,0.135c-0.238,0.073-0.453,0.206-0.623,0.387
	c-0.192,0.188-0.337,0.419-0.421,0.674c-0.1,0.304-0.146,0.623-0.135,0.943c0.005,0.318,0.086,0.629,0.236,0.91
	c0.114,0.22,0.289,0.401,0.505,0.522c0.2,0.113,0.427,0.171,0.657,0.168c0.212,0.002,0.42-0.05,0.606-0.152
	c0.116-0.071,0.219-0.163,0.303-0.27c0.031,0.235,0.031,0.473,0,0.708c-0.029,0.14-0.107,0.265-0.219,0.354
	c-0.131,0.081-0.284,0.122-0.438,0.118c-0.384-0.02-0.761-0.112-1.112-0.27h-0.118l0.084,0.943c0.21,0.06,0.424,0.105,0.64,0.135
	c0.236,0.017,0.472,0.017,0.708,0c0.375,0.021,0.745-0.093,1.044-0.32c0.139-0.15,0.243-0.329,0.304-0.525s0.078-0.402,0.05-0.604
	c0-1.314,0-2.544,0-3.622c-0.419-0.105-0.848-0.167-1.28-0.185L-222.419,43.37z M-221.981,45.442
	c-0.007,0.225-0.084,0.443-0.219,0.623c-0.05,0.065-0.113,0.119-0.186,0.157c-0.073,0.038-0.153,0.059-0.235,0.062
	c-0.092,0.027-0.19,0.031-0.285,0.01c-0.094-0.021-0.182-0.065-0.254-0.128c-0.153-0.177-0.231-0.407-0.219-0.64
	c-0.021-0.247,0.02-0.496,0.118-0.724c0.071-0.161,0.196-0.292,0.354-0.371c0.149-0.082,0.318-0.123,0.489-0.118
	c0.123-0.021,0.248-0.021,0.371,0c0.03,0.392,0.03,0.787,0,1.179"/>
<path fill="#008C4F" d="M-219.218,42.73l0.253,0.303h0.657l-0.387-0.758h-1.078l-0.337,0.758h0.674L-219.218,42.73z"/>
<path fill="#008C4F" d="M-217.769,46.167c0-0.337,0-0.674,0-1.028v-0.775c0-0.657-0.455-0.994-1.263-0.994
	c-0.43,0.004-0.857,0.078-1.263,0.219v0.842h0.135c0.16-0.086,0.33-0.154,0.505-0.202c0.186-0.053,0.379-0.081,0.573-0.084
	c0.404,0,0.455,0.168,0.455,0.303c0,0.135,0,0.219-0.118,0.236c-0.233,0.107-0.475,0.192-0.724,0.253
	c-0.307,0.089-0.593,0.238-0.842,0.438c-0.101,0.1-0.178,0.222-0.225,0.356c-0.047,0.134-0.062,0.278-0.044,0.419
	c-0.001,0.141,0.027,0.282,0.082,0.412c0.055,0.13,0.136,0.248,0.238,0.346c0.111,0.107,0.244,0.189,0.389,0.242
	c0.145,0.052,0.3,0.073,0.454,0.062h0.539l0.152-0.842l-0.152,0.084c0,0-0.168,0-0.421,0.101c-0.253,0.101-0.404-0.202-0.404-0.337
	c-0.009-0.061-0.001-0.122,0.023-0.179c0.024-0.056,0.062-0.105,0.112-0.141c0.176-0.103,0.362-0.188,0.556-0.253
	c0.137-0.036,0.268-0.093,0.387-0.168c0,0.724,0,1.263,0,1.685v0.084h0.977v-0.084c0-0.27,0-0.539,0-0.825"/>
<path fill="#008C4F" d="M-214.013,46.47c0-0.135,0-0.371,0-0.724v-1.263c-0.015-0.202-0.06-0.401-0.135-0.59
	c-0.087-0.174-0.221-0.32-0.387-0.421c-0.208-0.107-0.44-0.159-0.674-0.152c-0.193-0.014-0.387,0.02-0.563,0.099
	c-0.177,0.079-0.33,0.202-0.448,0.356v-0.371h-0.977v0.084c0,1.112,0,2.274,0,3.369v0.084h0.994v-1.567
	c-0.009-0.123-0.009-0.247,0-0.371c0-0.556,0.286-0.809,0.674-0.809c0.387,0,0.539,0.202,0.556,0.64c0.017,0.438,0,1.263,0,2.022
	v0.084h1.028v-0.084c0-0.202,0-0.387,0-0.522"/>
<path fill="#008C4F" d="M-207.797,42.359h-1.078c0,0.371,0,0.96,0,1.685h-1.685c0-0.202,0-0.455,0-0.758v-1.078h-1.061
	c0,0.741,0,1.499,0,2.291c0,0.792,0,1.567,0,2.342v0.084h1.061v-0.152c0.007-0.123,0.007-0.247,0-0.371v-1.55h1.769
	c0,0.354,0,0.691,0,1.011c0,0.32,0,0.674,0,0.977v0.084h1.078V46.84c0-1.247,0-2.813,0-4.633"/>
<path fill="#008C4F" d="M-205.286,43.118l-0.371-0.842h-1.112l0.708,0.842H-205.286z"/>
<path fill="#008C4F" d="M-204.427,46.167v-1.802c0-0.657-0.455-0.994-1.247-0.994c-0.43,0.004-0.857,0.078-1.263,0.219v0.842h0.135
	c0.153-0.089,0.317-0.157,0.489-0.202c0.187-0.052,0.379-0.08,0.573-0.084c0.404,0,0.472,0.168,0.472,0.303
	c0,0.135,0,0.219-0.118,0.236c-0.233,0.107-0.476,0.192-0.724,0.253c-0.308,0.085-0.595,0.234-0.842,0.438
	c-0.101,0.1-0.178,0.222-0.225,0.356c-0.047,0.134-0.062,0.278-0.044,0.419c-0.003,0.14,0.022,0.28,0.075,0.41
	c0.052,0.13,0.13,0.249,0.229,0.348c0.115,0.106,0.251,0.187,0.399,0.239c0.148,0.052,0.304,0.074,0.461,0.064h0.522l0.168-0.842
	l-0.152,0.084c-0.134,0.073-0.286,0.108-0.438,0.101c-0.337,0-0.387-0.202-0.387-0.32c-0.014-0.063-0.009-0.129,0.015-0.189
	c0.024-0.06,0.066-0.112,0.12-0.148c0.174-0.107,0.361-0.191,0.556-0.253c0.133-0.033,0.259-0.09,0.371-0.168
	c0,0.758,0,1.297,0,1.685v0.084h0.96v-0.084c0-0.27,0-0.539,0-0.825"/>
<path fill="#008C4F" d="M-200.688,46.47v-1.482c0.008-0.152,0.008-0.303,0-0.455c0.002-0.204-0.045-0.406-0.135-0.59
	c-0.076-0.181-0.213-0.33-0.387-0.421c-0.207-0.109-0.44-0.161-0.674-0.152c-0.19-0.013-0.381,0.022-0.555,0.101
	c-0.174,0.079-0.325,0.201-0.439,0.354v-0.371h-0.977v0.084c0,1.078,0,2.24,0,3.369v0.084h1.011v-0.253
	c-0.009-0.112-0.009-0.225,0-0.337c0-0.219,0-0.387,0-0.539c0-0.152,0-0.303,0-0.438c0-0.135,0-0.27,0-0.371
	c0-0.556,0.303-0.809,0.691-0.809c0.387,0,0.539,0.202,0.556,0.64c0.017,0.438,0,1.263,0,2.022v0.084h1.028v-0.084
	c0-0.202,0-0.371,0-0.522"/>
<path fill="#008C4F" d="M-198.396,43.37c-0.259,0.001-0.515,0.046-0.758,0.135c-0.236,0.077-0.45,0.21-0.623,0.387
	c-0.192,0.188-0.336,0.419-0.421,0.674c-0.102,0.303-0.143,0.624-0.118,0.943c0,0.316,0.075,0.628,0.219,0.91
	c0.115,0.225,0.297,0.408,0.522,0.522c0.2,0.114,0.427,0.172,0.657,0.168c0.207,0.004,0.41-0.049,0.59-0.152
	c0.118-0.076,0.225-0.167,0.32-0.27c0.032,0.235,0.032,0.473,0,0.708c-0.011,0.071-0.036,0.138-0.074,0.199
	c-0.038,0.061-0.087,0.113-0.145,0.155c-0.131,0.081-0.284,0.122-0.438,0.118c-0.378-0.022-0.749-0.114-1.095-0.27h-0.135
	l0.101,0.943c0.204,0.06,0.413,0.105,0.623,0.135c0.236,0.017,0.472,0.017,0.708,0c0.38,0.016,0.754-0.097,1.061-0.32
	c0.132-0.154,0.23-0.334,0.288-0.529c0.058-0.194,0.075-0.399,0.049-0.6c0-1.331,0-2.544,0-3.622
	c-0.414-0.104-0.837-0.166-1.263-0.185L-198.396,43.37z M-197.975,45.493c-0.013,0.227-0.095,0.445-0.236,0.623
	c-0.05,0.065-0.113,0.119-0.186,0.157c-0.073,0.038-0.153,0.059-0.235,0.062c-0.086-0.001-0.17-0.019-0.248-0.054
	c-0.078-0.035-0.149-0.085-0.206-0.148c-0.153-0.177-0.231-0.407-0.219-0.64c-0.016-0.249,0.03-0.498,0.135-0.724
	c0.07-0.156,0.188-0.286,0.337-0.371c0.15-0.081,0.318-0.121,0.489-0.118c0.128-0.02,0.259-0.02,0.387,0c0,0.573,0,0.994,0,1.179"/>
<path fill="#008C4F" d="M-188.036,46.284v-1.802c0.005-0.165-0.024-0.329-0.085-0.483c-0.061-0.154-0.152-0.293-0.269-0.41
	c-0.243-0.196-0.548-0.297-0.859-0.286c-0.252-0.004-0.5,0.054-0.724,0.168c-0.121,0.079-0.224,0.182-0.303,0.303
	c0-0.522,0-1.011,0-1.482h-0.994c0,1.685,0,3.167,0,4.633v0.084h1.011v-0.084c-0.034-0.533-0.034-1.067,0-1.6
	c-0.004-0.288,0.065-0.572,0.202-0.825c0.051-0.078,0.121-0.14,0.204-0.182c0.083-0.041,0.175-0.06,0.268-0.054
	c0.073-0.009,0.148-0.002,0.218,0.021c0.07,0.023,0.134,0.062,0.187,0.114c0.114,0.15,0.173,0.334,0.168,0.522
	c0,0.59,0,1.263,0,2.005v0.084h1.028v-0.084c0-0.236,0-0.472,0-0.708"/>
<path fill="#008C4F" d="M-177.103,46.47v-1.482c0.009-0.151,0.009-0.303,0-0.455c-0.004-0.202-0.044-0.402-0.118-0.59
	c-0.089-0.178-0.23-0.325-0.404-0.421c-0.207-0.111-0.44-0.164-0.674-0.152c-0.19-0.013-0.381,0.022-0.555,0.101
	c-0.174,0.079-0.325,0.201-0.439,0.354v-0.371h-0.977v0.084c0,1.095,0,2.257,0,3.369v0.084h1.011v-0.286
	c-0.008-0.101-0.008-0.202,0-0.303v-0.977c-0.009-0.123-0.009-0.247,0-0.371c0-0.556,0.286-0.809,0.674-0.809
	c0.387,0,0.539,0.202,0.556,0.64c0.017,0.438,0,1.263,0,2.022v0.084h1.028v-0.084c0-0.185,0-0.371,0-0.522"/>
<path fill="#008C4F" d="M-174.812,43.37c-0.259,0.001-0.515,0.046-0.758,0.135c-0.236,0.077-0.45,0.21-0.623,0.387
	c-0.19,0.19-0.334,0.42-0.421,0.674c-0.094,0.305-0.134,0.624-0.118,0.943c0,0.316,0.075,0.628,0.219,0.91
	c0.115,0.225,0.297,0.408,0.522,0.522c0.2,0.114,0.427,0.172,0.657,0.168c0.207,0.004,0.411-0.049,0.59-0.152
	c0.118-0.076,0.225-0.167,0.32-0.27c0.032,0.235,0.032,0.473,0,0.708c-0.025,0.138-0.096,0.263-0.202,0.354
	c-0.133,0.079-0.284,0.119-0.438,0.118c-0.384-0.02-0.761-0.112-1.112-0.27h-0.135l0.101,0.943c0.204,0.06,0.413,0.105,0.623,0.135
	c0.236,0.017,0.472,0.017,0.708,0c0.38,0.016,0.754-0.097,1.061-0.32c0.139-0.15,0.242-0.329,0.3-0.525
	c0.058-0.196,0.071-0.402,0.037-0.604c0-1.364,0-2.544,0-3.622c-0.414-0.104-0.837-0.166-1.264-0.185L-174.812,43.37z
	 M-174.391,45.493c-0.02,0.225-0.102,0.441-0.236,0.623c-0.048,0.063-0.109,0.116-0.178,0.153c-0.07,0.038-0.147,0.06-0.226,0.066
	c-0.088,0.001-0.176-0.017-0.257-0.052c-0.081-0.035-0.154-0.086-0.215-0.15c-0.153-0.177-0.231-0.407-0.219-0.64
	c-0.016-0.249,0.03-0.498,0.135-0.724c0.07-0.156,0.188-0.286,0.337-0.371c0.15-0.081,0.318-0.121,0.489-0.118
	c0.128-0.021,0.259-0.021,0.388,0c0,0.59,0,0.994,0,1.179"/>
<path fill="#008C4F" d="M-167.703,42.798c-0.179-0.178-0.392-0.318-0.627-0.41c-0.234-0.093-0.486-0.136-0.738-0.129h-1.971
	c0,0.724,0,1.348,0,1.87h-0.404v0.842h0.573c0,0.691,0,1.331,0,1.92v0.084h1.684c0.44,0.011,0.873-0.106,1.247-0.337
	c0.325-0.236,0.571-0.565,0.707-0.943c0.146-0.428,0.208-0.88,0.185-1.331c0.025-0.616-0.186-1.218-0.59-1.685L-167.703,42.798z
	 M-168.141,45.19c-0.071,0.247-0.218,0.465-0.421,0.623c-0.243,0.165-0.532,0.248-0.825,0.236h-0.539v-1.112h0.96v-0.859h-0.977
	v-1.044h0.91c0.204-0.011,0.406,0.048,0.572,0.168c0.146,0.127,0.256,0.29,0.32,0.472c0.078,0.262,0.101,0.537,0.067,0.809
	c0.019,0.29-0.015,0.581-0.101,0.859"/>
<path fill="#008C4F" d="M-163.745,44.263c-0.125-0.269-0.323-0.497-0.572-0.657c-0.27-0.16-0.579-0.242-0.893-0.236
	c-0.318-0.018-0.632,0.068-0.896,0.244c-0.264,0.176-0.464,0.434-0.569,0.733c-0.135,0.319-0.192,0.665-0.169,1.011
	c0.011,0.23,0.056,0.457,0.135,0.674c0.068,0.21,0.177,0.405,0.32,0.573c0.146,0.175,0.33,0.313,0.539,0.404
	c0.221,0.105,0.463,0.157,0.708,0.152c0.342,0.011,0.679-0.089,0.96-0.286c0.248-0.182,0.436-0.434,0.539-0.724
	c0.105-0.303,0.15-0.623,0.135-0.943C-163.521,44.879-163.601,44.558-163.745,44.263z M-164.637,45.948
	c-0.039,0.1-0.109,0.185-0.2,0.243c-0.091,0.058-0.198,0.085-0.305,0.077c-0.101,0.003-0.202-0.018-0.293-0.062
	c-0.091-0.044-0.17-0.11-0.23-0.191c-0.14-0.203-0.216-0.444-0.219-0.691c-0.032-0.304,0.032-0.611,0.185-0.876
	c0.051-0.092,0.127-0.168,0.22-0.219c0.092-0.051,0.197-0.074,0.302-0.067c0.1,0.008,0.196,0.041,0.279,0.097
	c0.082,0.056,0.149,0.133,0.193,0.223c0.126,0.22,0.19,0.471,0.185,0.724c0.025,0.278-0.027,0.558-0.151,0.809"/>
<path fill="#008C4F" d="M-165.26,42.73l0.236,0.303h0.657l-0.371-0.758h-1.078l-0.337,0.758h0.657L-165.26,42.73z"/>
<path fill="#008C4F" d="M-159.937,46.47v-1.482c0.008-0.152,0.008-0.303,0-0.455c-0.004-0.202-0.044-0.402-0.118-0.59
	c-0.092-0.171-0.225-0.316-0.388-0.421c-0.214-0.107-0.451-0.159-0.691-0.152c-0.19-0.013-0.381,0.022-0.555,0.101
	c-0.174,0.079-0.325,0.201-0.439,0.354v-0.371h-0.977v0.084c0,1.112,0,2.274,0,3.369v0.084h1.011v-0.084c0-0.135,0-0.303,0-0.505
	v-0.977c0-0.135,0-0.27,0-0.371c0-0.556,0.303-0.809,0.691-0.809s0.539,0.202,0.556,0.64c0.017,0.438,0,1.247,0,2.022v0.084h1.045
	v-0.084c0.01-0.174,0.01-0.348,0-0.522"/>
<path fill="#008C4F" d="M-156.282,43.572c-0.414-0.104-0.837-0.166-1.264-0.185c-0.253-0.001-0.505,0.045-0.741,0.135
	c-0.243,0.073-0.463,0.206-0.64,0.387c-0.19,0.19-0.334,0.42-0.421,0.674c-0.094,0.305-0.134,0.624-0.118,0.943
	c0,0.316,0.075,0.628,0.219,0.91c0.115,0.225,0.298,0.408,0.522,0.522c0.2,0.114,0.427,0.172,0.657,0.168
	c0.211,0.002,0.42-0.05,0.606-0.152c0.116-0.071,0.218-0.163,0.303-0.27c0.032,0.235,0.032,0.473,0,0.708
	c-0.008,0.071-0.032,0.14-0.07,0.201c-0.038,0.061-0.088,0.113-0.149,0.152c-0.087,0.054-0.184,0.089-0.286,0.104
	c-0.101,0.014-0.205,0.008-0.303-0.02c-0.384-0.02-0.761-0.112-1.112-0.27h-0.118l0.084,0.943c0.204,0.06,0.412,0.105,0.623,0.135
	h0.708c0.38,0.016,0.754-0.097,1.061-0.32c0.139-0.15,0.243-0.329,0.303-0.525c0.061-0.195,0.078-0.402,0.05-0.604
	c0-1.331,0-2.544,0-3.622L-156.282,43.572z M-157.258,45.442c-0.013,0.227-0.095,0.445-0.236,0.623
	c-0.048,0.063-0.109,0.115-0.178,0.153c-0.07,0.038-0.147,0.06-0.226,0.066c-0.088,0.001-0.176-0.017-0.257-0.052
	c-0.081-0.035-0.154-0.086-0.215-0.15c-0.153-0.177-0.231-0.407-0.219-0.64c-0.016-0.249,0.03-0.498,0.135-0.724
	c0.07-0.156,0.188-0.286,0.337-0.371c0.155-0.083,0.329-0.123,0.505-0.118c0.123-0.02,0.248-0.02,0.371,0c0,0.59,0,0.994,0,1.179"/>
<path fill="#008C4F" d="M-184.482,44.179c0.282-0.094,0.521-0.285,0.674-0.539c0.046-0.13,0.048-0.271,0.006-0.402
	c-0.043-0.131-0.128-0.244-0.242-0.322c-0.111-0.072-0.239-0.112-0.371-0.118c-0.17,0.013-0.333,0.071-0.472,0.168l0.135,0.371
	c0.055-0.015,0.113-0.015,0.168,0h0.084c0.03,0.038,0.046,0.086,0.046,0.135s-0.016,0.096-0.046,0.135c0,0,0,0,0,0.084v-0.135
	h-0.977c0.034,0.64,0.034,1.281,0,1.92c0,0.337-0.168,0.724-0.623,0.724c-0.455,0-0.522-0.202-0.539-0.64
	c-0.017-0.438,0-1.685,0-2.005h-0.994c0,0.691,0,1.213,0,1.685s0,0.573,0,0.809c-0.005,0.155,0.022,0.31,0.081,0.454
	c0.059,0.144,0.148,0.274,0.261,0.38c0.113,0.107,0.248,0.188,0.395,0.239c0.147,0.051,0.303,0.069,0.458,0.055
	c0.185,0.014,0.37-0.017,0.54-0.09c0.17-0.073,0.32-0.187,0.437-0.331v0.337h0.927v-0.084c0-0.876,0-1.803,0-2.813"/>
<path fill="#008C4F" d="M-181.096,43.993c0.141-0.101,0.257-0.233,0.337-0.387c0.045-0.127,0.046-0.266,0.004-0.394
	c-0.043-0.128-0.127-0.238-0.24-0.313c-0.102-0.077-0.226-0.118-0.354-0.118c-0.175,0.012-0.343,0.07-0.489,0.168l0.135,0.371
	c0.061-0.016,0.125-0.016,0.185,0h0.084c0.028,0.04,0.042,0.087,0.042,0.135c0,0.048-0.015,0.095-0.042,0.135
	c-0.043,0.053-0.094,0.098-0.152,0.135c-0.266-0.171-0.577-0.259-0.893-0.253c-0.216-0.006-0.43,0.033-0.63,0.114
	c-0.2,0.081-0.381,0.203-0.532,0.357c-0.177,0.204-0.311,0.443-0.392,0.701c-0.081,0.258-0.108,0.53-0.08,0.799
	c-0.011,0.228,0.024,0.456,0.103,0.671c0.08,0.214,0.202,0.41,0.359,0.575c0.158,0.165,0.347,0.297,0.557,0.387
	c0.21,0.09,0.436,0.136,0.665,0.136c0.211,0.011,0.422-0.023,0.619-0.098c0.197-0.075,0.377-0.191,0.527-0.34
	c0.347-0.412,0.517-0.945,0.472-1.482c-0.002-0.45-0.15-0.887-0.421-1.247L-181.096,43.993z M-181.887,46.167
	c-0.056,0.058-0.125,0.104-0.2,0.133c-0.076,0.029-0.157,0.041-0.238,0.036c-0.489,0-0.691-0.505-0.724-0.927
	c-0.044-0.346,0.047-0.696,0.253-0.977c0.058-0.057,0.126-0.101,0.202-0.13c0.075-0.029,0.156-0.042,0.236-0.039
	c0.606,0,0.708,0.674,0.724,0.96C-181.595,45.558-181.685,45.896-181.887,46.167z"/>
<path fill="#008C4F" d="M-191.658,43.572c-0.015-0.226-0.066-0.448-0.152-0.657c-0.081-0.187-0.216-0.345-0.387-0.455
	c-0.167-0.121-0.367-0.185-0.573-0.185h-1.87c0,0.438,0,0.859,0,1.23s0,0.775,0,1.112v1.179c0,0.421,0,0.792,0,1.112v0.084h0.994
	v-0.084c0-0.337-0.084-3.201-0.084-3.47v-0.371h0.539c0.142-0.012,0.285,0.023,0.404,0.101c0.049,0.051,0.087,0.112,0.11,0.179
	c0.023,0.067,0.032,0.138,0.025,0.209c0.02,0.179-0.028,0.36-0.135,0.505c-0.106,0.111-0.243,0.188-0.393,0.221
	c-0.15,0.033-0.306,0.021-0.449-0.035l0.185,0.842c0.407,0.074,0.826-0.004,1.179-0.219c0.218-0.14,0.383-0.347,0.472-0.59
	c0.091-0.242,0.131-0.5,0.118-0.758"/>
<g>
	<path fill="#E49F15" d="M0.77,32.984c0.777,6.71,3.846,12.946,8.688,17.656c-0.534-1.395-0.653-2.914-0.344-4.375
		c0.938-4.125,5.094-7,10.969-7.813V18.547C4.864,15.984-0.043,25.641,0.77,32.984z"/>
	<path fill="#E49F15" d="M58.739,26.515c-0.751-6.68-3.787-12.895-8.594-17.594c0.55,1.391,0.67,2.915,0.344,4.375
		c-0.906,4.125-5.094,7-10.969,7.813v19.844C54.739,43.515,59.645,33.89,58.739,26.515z"/>
	<path fill="#E49F15" d="M1.426,23.297c3.969-5.438,11.063-8.531,24.156-4.844c23.031,6.469,30.437-8.437,17.312-14.687
		c-3.946-1.983-8.291-3.042-12.706-3.098c-4.415-0.056-8.786,0.892-12.781,2.774c-3.995,1.882-7.51,4.647-10.278,8.087
		C4.361,14.968,2.411,18.992,1.426,23.297z"/>
	<path fill="#E49F15" d="M58.176,36.203c-3.969,5.438-11.063,8.531-24.188,4.844c-23-6.469-30.406,8.563-17.281,14.719
		c3.948,1.982,8.295,3.041,12.712,3.095c4.417,0.054,8.789-0.897,12.785-2.782c3.995-1.885,7.51-4.654,10.277-8.097
		C55.248,44.538,57.196,40.51,58.176,36.203z"/>
</g>
</svg>
