<?xml version="1.0" encoding="UTF-8"?> <svg xmlns="http://www.w3.org/2000/svg" id="Layer_1" data-name="Layer 1" width="170" height="34.67" viewBox="0 0 170 34.67"><defs><style> .cls-1 { fill: #35a96a; } .cls-2 { fill: #1d8fca; } </style></defs><g><polygon class="cls-1" points="139.39 10.14 136.04 13.82 133.46 13.82 135.88 10.14 139.39 10.14"></polygon><g><path class="cls-1" d="M6,3.16H26.46c10.21,0,11.82,7.57,11.82,7.57H24.91l-3.2-2.95-.75,3H16.2C10.69,10.73,6,7.93,6,4.07" transform="translate(0 -3.16)"></path><path class="cls-1" d="M25.72,11.48H38.28c0,5.07-1.39,6.82-1.39,6.82H24.54l4.86-3.41Z" transform="translate(0 -3.16)"></path><path class="cls-2" d="M36.57,19.12h-13l-4.74,3.31.54-3.31H14.86c-7.3,0-12,6.71-12,6.71H22.88c9.84,0,13.69-6.71,13.69-6.71" transform="translate(0 -3.16)"></path><path class="cls-2" d="M2.34,26.67H16.45s-3,.84-4.86,5.49a20.38,20.38,0,0,0-.81,5.68H0a3.7,3.7,0,0,1,0-.91A28.09,28.09,0,0,1,2.34,26.67" transform="translate(0 -3.16)"></path><path class="cls-2" d="M52.71,22.49a8.62,8.62,0,0,0,1.4.08,5.8,5.8,0,0,0,1.52-.21,4.35,4.35,0,0,0,1.44-.69,3.89,3.89,0,0,0,1.07-1.29,4.26,4.26,0,0,0,.42-2,2.45,2.45,0,0,0-.29-1.24,2.18,2.18,0,0,0-.78-.76A3.45,3.45,0,0,0,56.41,16a6.54,6.54,0,0,0-1.15-.1h-.47c-.14,0-.37,0-.68.05ZM50.18,13l1.28-.1,1.17-.09c.38,0,.77-.05,1.15-.06H55a19.68,19.68,0,0,1,2.8.21,9.08,9.08,0,0,1,2.68.78,5.43,5.43,0,0,1,2,1.63,4.44,4.44,0,0,1,.8,2.73,6.73,6.73,0,0,1-2.62,5.41,9.2,9.2,0,0,1-3.11,1.58,14.13,14.13,0,0,1-4.18.57l-.81,0c-.2,0-.4,0-.59,0l-1.25,5.93c-.41.06-.8.09-1.18.11l-1.09,0-1,0c-.39,0-.8-.05-1.23-.11Z" transform="translate(0 -3.16)"></path><path class="cls-2" d="M73.12,21,72.57,21h-.51a4.93,4.93,0,0,0-2.54.61,5.87,5.87,0,0,0-1.73,1.55,6.21,6.21,0,0,0-1,2A7.28,7.28,0,0,0,66.48,27c0,1.27.51,1.9,1.53,1.9a3.64,3.64,0,0,0,2.77-1.5,9.54,9.54,0,0,0,1.87-4.23Zm3.21,4.79c-.23,1.08-.4,2-.5,2.86a15.62,15.62,0,0,0-.16,1.94v.48a3.19,3.19,0,0,0,0,.42,12.68,12.68,0,0,1-2,.16,12.53,12.53,0,0,1-1.93-.16c0-.13-.09-.3-.13-.49a4.31,4.31,0,0,1-.06-.84v-.49a3.37,3.37,0,0,1,.06-.59,7.8,7.8,0,0,1-2.3,2,6.54,6.54,0,0,1-3.27.79A4.09,4.09,0,0,1,63,30.79a4,4,0,0,1-1-2.85,10.12,10.12,0,0,1,.7-3.73A9.17,9.17,0,0,1,64.72,21a10.36,10.36,0,0,1,3.45-2.22A12.57,12.57,0,0,1,73,18a19.88,19.88,0,0,1,4.89.6Z" transform="translate(0 -3.16)"></path><path class="cls-2" d="M89,21a5.24,5.24,0,0,0-.54-.06H88a5,5,0,0,0-2.56.61,5.84,5.84,0,0,0-1.73,1.53,6.35,6.35,0,0,0-1,2A6.63,6.63,0,0,0,82.37,27a2.28,2.28,0,0,0,.39,1.43,1.37,1.37,0,0,0,1.17.5,3.65,3.65,0,0,0,2.77-1.5,9.65,9.65,0,0,0,1.87-4.23ZM87.6,29.07a7.5,7.5,0,0,1-2.34,2,6.56,6.56,0,0,1-3.3.81,4.09,4.09,0,0,1-3.1-1.09,4,4,0,0,1-1-2.87,10,10,0,0,1,.7-3.71A9.25,9.25,0,0,1,80.61,21a10.21,10.21,0,0,1,3.46-2.22A12.72,12.72,0,0,1,88.88,18a20.18,20.18,0,0,1,5,.6L91.18,31.28a7.25,7.25,0,0,1-1.54,3.33,8.09,8.09,0,0,1-2.57,2,10.68,10.68,0,0,1-3.1,1,20.5,20.5,0,0,1-3.16.26,17.07,17.07,0,0,1-2.58-.16,12,12,0,0,1-1.62-.31c0-.29,0-.55.07-.79a5.42,5.42,0,0,1,.14-.7,6.93,6.93,0,0,1,.25-.67,5.7,5.7,0,0,1,.44-.74,11.9,11.9,0,0,0,1.35.24,13.42,13.42,0,0,0,1.86.12,14.5,14.5,0,0,0,1.82-.12,6.11,6.11,0,0,0,1.84-.52A5.09,5.09,0,0,0,86,33a5.77,5.77,0,0,0,1.13-2.26Z" transform="translate(0 -3.16)"></path><path class="cls-2" d="M100.26,29.1a3.19,3.19,0,0,0,2-.62A4.88,4.88,0,0,0,103.57,27a6.76,6.76,0,0,0,.74-1.93,9.19,9.19,0,0,0,.21-1.84,2.07,2.07,0,0,0-2.33-2.36,3,3,0,0,0-2,.64A5.17,5.17,0,0,0,99,23a6.9,6.9,0,0,0-.7,1.95,9.25,9.25,0,0,0-.2,1.83c0,1.52.73,2.29,2.21,2.29m-.41,2.77a6.79,6.79,0,0,1-4.72-1.39,4.92,4.92,0,0,1-1.51-3.8,9.19,9.19,0,0,1,.56-3.1,8.71,8.71,0,0,1,1.68-2.8,8.58,8.58,0,0,1,2.82-2,9.48,9.48,0,0,1,4-.79,6.77,6.77,0,0,1,4.74,1.42,5,5,0,0,1,1.52,3.83,9.48,9.48,0,0,1-.55,3.14,8.12,8.12,0,0,1-4.5,4.76,9.78,9.78,0,0,1-4,.76" transform="translate(0 -3.16)"></path><path class="cls-1" d="M114.21,13.3h12.27a1.49,1.49,0,0,0,0,.21,1.27,1.27,0,0,1,0,.2,5.35,5.35,0,0,1-.18,1.36,8.5,8.5,0,0,1-.53,1.42h-7.73l-.9,4.34h6.14a7.07,7.07,0,0,1-.18,1.6,10,10,0,0,1-.51,1.62h-6.14l-1.65,7.73a18.05,18.05,0,0,1-2.3.16,15.24,15.24,0,0,1-2.24-.16Z" transform="translate(0 -3.16)"></path><path class="cls-1" d="M135,21.24l-.54-.06h-.51a4.9,4.9,0,0,0-2.54.61,5.87,5.87,0,0,0-1.73,1.55,6.21,6.21,0,0,0-1,2,6.89,6.89,0,0,0-.31,1.94c0,1.27.51,1.9,1.53,1.9a3.65,3.65,0,0,0,2.77-1.5,9.65,9.65,0,0,0,1.87-4.23ZM138.18,26c-.23,1.08-.39,2-.5,2.86a17.37,17.37,0,0,0-.15,1.94v.48a3.19,3.19,0,0,0,0,.42,12.33,12.33,0,0,1-4,0c0-.13-.08-.3-.12-.49a4.31,4.31,0,0,1-.06-.84v-.49a3.37,3.37,0,0,1,.06-.59,7.72,7.72,0,0,1-2.31,2,6.49,6.49,0,0,1-3.27.79A4.06,4.06,0,0,1,124.82,31a4,4,0,0,1-1-2.85,10.33,10.33,0,0,1,.7-3.73,9.34,9.34,0,0,1,2.09-3.19A10.32,10.32,0,0,1,130,19a12.63,12.63,0,0,1,4.8-.84,20.27,20.27,0,0,1,2.55.16,20.53,20.53,0,0,1,2.34.44Z" transform="translate(0 -3.16)"></path><path class="cls-1" d="M150.66,28.62a3.85,3.85,0,0,1,.56,1.11,5.25,5.25,0,0,1,.22,1.69,10.27,10.27,0,0,1-2.12.52,18.68,18.68,0,0,1-2.46.15q-3.56,0-5.2-1.42A4.93,4.93,0,0,1,140,26.75a8.28,8.28,0,0,1,.6-3.05,8.4,8.4,0,0,1,1.8-2.75,9.15,9.15,0,0,1,2.91-2,9.61,9.61,0,0,1,4-.78,17.26,17.26,0,0,1,2.06.13,12.8,12.8,0,0,1,1.9.41,6,6,0,0,1-.28,1.43,5,5,0,0,1-.78,1.45,11.91,11.91,0,0,0-1.36-.36,8.32,8.32,0,0,0-1.48-.13,4.73,4.73,0,0,0-2.12.46,4.64,4.64,0,0,0-1.51,1.18,5,5,0,0,0-.9,1.68,6.6,6.6,0,0,0-.3,2,2.46,2.46,0,0,0,.88,2.08,3.5,3.5,0,0,0,2.21.67,8.58,8.58,0,0,0,1.35-.1,10.76,10.76,0,0,0,1.67-.44" transform="translate(0 -3.16)"></path><path class="cls-1" d="M157.77,16.26a7.32,7.32,0,0,1,.14-1.71,10.21,10.21,0,0,1,.55-1.71,8.48,8.48,0,0,1,1.18-.14c.42,0,.79,0,1.12,0s.7,0,1.11,0a7.75,7.75,0,0,1,1.13.14,8,8,0,0,1-.18,1.72,10.53,10.53,0,0,1-.56,1.7c-.38,0-.77.08-1.17.1s-.77,0-1.11,0-.67,0-1.09,0-.79-.05-1.12-.1m-.9,5h-2a.77.77,0,0,0,0-.15,1.1,1.1,0,0,1,0-.18,4.91,4.91,0,0,1,.16-1.25,5.83,5.83,0,0,1,.47-1.2h6.29L159,31.78a16.06,16.06,0,0,1-2.24.16,14.22,14.22,0,0,1-2.08-.16Z" transform="translate(0 -3.16)"></path><path class="cls-1" d="M164.8,18a21.3,21.3,0,0,0,.48-2.38,11.9,11.9,0,0,0,.14-1.71c0-.19,0-.35,0-.47s0-.27,0-.43c.35-.05.76-.09,1.21-.11s.85,0,1.19,0a14.74,14.74,0,0,1,2,.15,2.71,2.71,0,0,1,.16,1,7.37,7.37,0,0,1-.13,1.23c-.08.47-.18,1-.31,1.52l-2.4,10.33a3.78,3.78,0,0,0-.09.72,1.31,1.31,0,0,0,.14.65,1,1,0,0,0,.36.36,1.28,1.28,0,0,0,.5.16,3.43,3.43,0,0,0,.56,0l.46,0a3.74,3.74,0,0,0,.63-.11,7.68,7.68,0,0,1,.26,1,5.19,5.19,0,0,1,.11,1c0,.14,0,.27,0,.39s0,.25-.05.38a5.88,5.88,0,0,1-1.22.25,13.79,13.79,0,0,1-1.65.09,5.7,5.7,0,0,1-3.33-.86,3.11,3.11,0,0,1-1.22-2.71,5,5,0,0,1,.07-.76q.06-.41.15-.84Z" transform="translate(0 -3.16)"></path></g><polygon class="cls-1" points="139.39 10.14 136.04 13.82 133.46 13.82 135.88 10.14 139.39 10.14"></polygon></g></svg> 