<?xml version="1.0" encoding="utf-8"?>
<!-- Generator: Adobe Illustrator 19.2.1, SVG Export Plug-In . SVG Version: 6.00 Build 0)  -->
<svg version="1.1" id="layer" xmlns="http://www.w3.org/2000/svg" xmlns:xlink="http://www.w3.org/1999/xlink" x="0px" y="0px"
	 viewBox="0 0 652 652" style="enable-background:new 0 0 652 652;" xml:space="preserve">
<style type="text/css">
	.st0{fill:#128AC7;}
	.st1{fill:#E00D1D;}
</style>
<path class="st0" d="M98.5,313.4c0.1-4.5,1-8,3.1-10.5c1-1,2.4-1.8,3.9-2.5c1.7-0.7,3.2-1,4.8-1h18.7c8.2,0.1,12.4,4.5,12.6,13.5
	v27.6c-0.1,3.1-1.3,5.9-3.8,8.2c-2.4,2.4-5.2,3.7-8.5,3.8h-17.6v19.9H98.5V313.4z M128.4,316c-0.1-2.1-1-3.1-3-3.2h-10.2
	c-2.4,0.2-3.7,1.5-3.8,3.9V335c0.1,2.5,1.4,3.8,4.1,3.9h9.3c1,0,1.7-0.3,2.4-1.1c0.7-0.5,1-1.2,1-2.1L128.4,316L128.4,316L128.4,316
	z"/>
<path class="st0" d="M182,315.7c0.1-2-1.1-3-3.5-2.9h-26.3v-13.4h29.7c8.6,0.2,13,4.3,13.2,12.6V340c-0.1,3.6-1.1,6.5-3.2,8.8
	c-2.2,2.4-5.1,3.7-8.5,3.7h-17.9c-8.7-0.1-13.2-4-13.3-12v-10.8c0.1-8.3,4.3-12.5,12.6-12.6h17.4L182,315.7L182,315.7L182,315.7z
	 M165,336.3c0,0.8,0.3,1.4,1,1.8c0.6,0.5,1.4,0.9,2.4,0.9h10c2.3,0,3.5-0.9,3.5-2.6v-3.8c0-2-1.2-3.1-3.6-3.1h-9.9
	c-1.3,0-2.2,0.2-2.7,0.6c-0.4,0.5-0.7,1.5-0.7,2.9L165,336.3L165,336.3z"/>
<path class="st0" d="M231.7,358.9c1-0.1,1.9-0.4,2.6-1.1c0.7-0.6,1-1.3,1-2.2v-1.2v-1.9h-16.7c-2.2,0-3.9-0.3-5.2-0.9
	c-1.4-0.5-2.7-1.5-4.1-2.8c-1.3-1.4-2.3-2.9-2.8-4.4c-0.6-1.4-0.9-3.2-0.9-5.4v-39.5h13.1v35.3c0,2.9,1.1,4.3,3.5,4.3h9.2
	c1.1,0,2.1-0.3,2.9-1.1c0.8-0.6,1.1-1.4,1.1-2.3v-1.5v-34.9h13v58.4c-0.1,4.4-1.2,7.8-3.3,10.4c-2.2,2.6-5.1,4-8.9,4h-30.5v-13.4h26
	L231.7,358.9L231.7,358.9z"/>
<path class="st0" d="M258.6,339h23.3c2.1-0.1,3.2-1,3.3-2.5v-1.2c0-0.3-0.1-0.7-0.3-1.1c-0.5-1-1.1-1.5-1.9-1.5h-1.4h-10.1
	c-3.4-0.1-6.4-1.2-8.8-3.5c-2.4-2.1-3.8-4.7-3.8-7.8v-10.1c0.2-7.9,4.4-11.8,12.7-12h27v13.4h-22.9c-2.7,0-4,0.8-4,2.4v1.4
	c0,1.7,1.4,2.5,4.1,2.5h11.5c3.1,0.1,5.7,1.2,7.9,3.6c2.2,2.3,3.3,5.1,3.4,8.2v9.8c-0.1,2.8-1.3,5.5-3.8,8.2
	c-1.2,1.3-2.4,2.3-3.7,2.8c-1.2,0.5-3,0.7-5.1,0.7h-27.3L258.6,339L258.6,339L258.6,339z"/>
<path class="st0" d="M337.8,315.7c0.1-2-1.1-3-3.5-2.9H308v-13.4h29.7c8.6,0.2,13,4.3,13.2,12.6V340c-0.1,3.6-1.1,6.5-3.2,8.8
	c-2.2,2.4-5.1,3.7-8.5,3.7h-17.9c-8.7-0.1-13.2-4-13.3-12v-10.8c0.1-8.3,4.3-12.5,12.6-12.6h17.4L337.8,315.7L337.8,315.7
	L337.8,315.7z M320.8,336.3c0,0.8,0.3,1.4,1,1.8c0.6,0.5,1.4,0.9,2.4,0.9h10c2.3,0,3.4-0.9,3.5-2.6v-3.8c0-2-1.2-3.1-3.6-3.1h-9.9
	c-1.3,0-2.2,0.2-2.7,0.6c-0.4,0.5-0.7,1.5-0.7,2.9L320.8,336.3L320.8,336.3z"/>
<path class="st0" d="M361.4,291.7c0.1-3.7,1.4-6.5,4-8.7c2.5-2.2,5.8-3.3,10-3.4h8.3v13h-5.1c-2.8,0.1-4.2,1.4-4.2,3.9v2.9h9.2v13.4
	h-9.2v39.6h-13.1L361.4,291.7L361.4,291.7z"/>
<path class="st0" d="M404.6,334.3v0.9c0,1,0.3,1.9,0.9,2.5c0.4,0.8,1,1.2,1.7,1.2h1.7H434v13.4h-28.5c-2.6,0-4.6-0.3-6.1-0.7
	c-1.6-0.5-3-1.4-4.2-2.5c-1.4-1.4-2.4-2.9-2.9-4.4c-0.5-1.6-0.8-3.6-0.8-6.2l-0.1-26.9c0.2-8.1,4.4-12.2,12.7-12.4h17.6
	c8.1,0.2,12.3,4.4,12.4,12.8v10.6L404.6,334.3z M420.9,315.4v-0.3c0-0.7-0.3-1.3-0.9-1.7c-0.6-0.4-1.4-0.6-2.3-0.6h-9.1
	c-1.1,0-2.1,0.3-2.9,1c-0.9,0.6-1.4,1.4-1.4,2.4v5.4L420.9,315.4z"/>
<path class="st0" d="M461.8,352.4c-2,0-3.8-0.2-5.4-0.5c-1.7-0.3-3.4-1-5.1-2.4c-1.8-1.6-3.1-3.3-3.8-5.2c-0.7-1.9-1-4-1-6.5v-25
	c-0.1-2,0.2-3.8,0.6-5.4c0.4-1.6,1.4-3.1,2.8-4.5c1.6-1.6,3.2-2.6,4.9-3.1c1.7-0.4,3.5-0.6,5.6-0.6h20.1v3.1h-19.5
	c-3.5,0-6.2,0.7-8.1,2.1c-2,1.6-3.1,4.2-3.1,8v25c0,1.7,0.3,3.5,0.8,5.1c0.5,1.7,1.5,3.1,2.8,4.3c1.4,1,2.9,1.7,4.2,2
	c1.5,0.3,3,0.4,4.6,0.4h18.7v3.1L461.8,352.4L461.8,352.4L461.8,352.4z"/>
<path class="st0" d="M535,337.9c0,2-0.2,3.8-0.4,5.3c-0.4,1.7-1.3,3.3-2.6,4.9c-2.7,2.9-6.1,4.3-10.2,4.2h-15.6
	c-4,0-7.3-1.2-9.9-3.7c-2.6-2.4-3.9-5.7-3.9-9.9v-8.1c0.2-9.1,4.7-13.8,13.6-14h26v-3.6c0-2.9-0.9-5.5-2.5-7.7
	c-1-1.4-2.4-2.4-3.8-2.9c-1.5-0.3-3.1-0.6-4.9-0.6h-28.4v-3.1h26.9c2.4,0,4.7,0.2,6.7,0.5c1,0.2,2,0.6,2.9,1.2
	c1,0.5,1.7,1.4,2.6,2.4c2.4,3.1,3.6,6.7,3.6,10.7L535,337.9L535,337.9L535,337.9z M531.8,319.9h-26.3c-3.1,0.1-5.6,1-7.4,2.9
	c-1.8,1.9-2.7,4.5-2.7,7.9v8c0,1.6,0.2,3,0.5,4.3c0.3,1.3,1.1,2.5,2.4,3.6c2.3,1.9,4.8,2.8,7.5,2.8h15.9c6.6-0.1,10-3.6,10-10.6
	V319.9z"/>
<path class="st0" d="M564.3,302.2c-7.2,0.2-10.9,4.1-10.7,12v38.3h-3.1v-38.3c-0.2-10,4.6-15.1,14.4-15.1h3.5v3.1H564.3z"/>
<path class="st0" d="M620.3,337.6c-0.3,10.1-5.7,15.1-16.1,14.8h-11.6c-2.4,0-4.6-0.2-6.5-0.6c-2-0.5-3.9-1.7-5.8-3.7
	c-1.4-1.7-2.3-3.4-2.6-5.1c-0.4-1.7-0.7-3.8-0.6-5.8v-22.9c0.2-10.3,5.3-15.4,15.5-15.3h24.5v-17.4h3.1L620.3,337.6L620.3,337.6z
	 M617.2,302.2h-24.8c-1.7,0-3.4,0.2-4.8,0.6c-1.5,0.3-3,1.2-4.4,2.7c-1.3,1.4-2.1,2.7-2.4,4c-0.4,1.4-0.7,3-0.6,4.9v24.4
	c0,4.1,1.1,6.8,3.6,8.3c1.1,0.7,2.4,1.2,3.9,1.6c1.5,0.3,3.1,0.6,4.8,0.6h10.8c4,0,7.3-1,9.9-2.8c2.5-1.7,3.8-4.8,3.9-9.2
	L617.2,302.2L617.2,302.2L617.2,302.2z"/>
<g>
	<path class="st1" d="M25.9,297.4c1-0.4,2.1-0.8,3.1-1c1.9-9,9.9-15.8,19.5-15.8c9.6,0,17.5,6.8,19.5,15.8c3,0.5,5.3,1.7,7.2,3.5
		c0.1-1.7,0-3.4-0.2-5c-1.2-13.6-12.6-24.3-26.5-24.3c-14.3,0-26,11.3-26.6,25.6c-0.1,1.2-0.1,2.5-0.1,3.8
		C22.9,298.9,24.3,298.1,25.9,297.4z"/>
	<path class="st1" d="M63.9,299.4H32.1c-1.6,0-3.1,0.3-4.8,1c-1.6,0.7-2.9,1.5-3.9,2.5c-2,2.4-3,5.8-3.1,10.5v24.9
		c0.1,4.6,1,8,3.1,10.5c1,1,2.4,1.8,3.9,2.5c1.7,0.7,3.2,1,4.8,1H64c8.2-0.1,12.5-4.6,12.6-13.5v-26
		C76.4,303.9,72.2,299.5,63.9,299.4z"/>
</g>
</svg>
