<?xml version="1.0" encoding="utf-8"?>
<!-- Generator: Adobe Illustrator 26.0.3, SVG Export Plug-In . SVG Version: 6.00 Build 0)  -->
<svg version="1.0" id="katman_1" xmlns="http://www.w3.org/2000/svg" xmlns:xlink="http://www.w3.org/1999/xlink" x="0px" y="0px"
	 viewBox="0 0 800 600" style="enable-background:new 0 0 800 600;" xml:space="preserve">
<style type="text/css">
	.st0{clip-path:url(#SVGID_00000133490873255190095950000008691534945869459852_);}
	.st1{fill:#33CC66;}
	.st2{fill:#000099;}
	.st3{fill:#3399FF;}
</style>
<g>
	<defs>
		<rect id="SVGID_1_" x="71.9" y="223.8" width="655.9" height="151.7"/>
	</defs>
	<clipPath id="SVGID_00000155838604661616391340000010112660092728204456_">
		<use xlink:href="#SVGID_1_"  style="overflow:visible;"/>
	</clipPath>
	<g style="clip-path:url(#SVGID_00000155838604661616391340000010112660092728204456_);">
		<path class="st1" d="M98,282.9H71.9v92.5H98V282.9z"/>
		<path class="st2" d="M164.4,282.9c0,8.8-3.4,17.2-9.6,23.5c-6.2,6.3-14.7,9.8-23.6,9.9c-15.8,0.1-30.9,6.4-42,17.5
			c-11.1,11.1-17.3,26.1-17.3,41.7H98c0-8.8,3.4-17.2,9.7-23.5c6.3-6.3,14.7-9.8,23.6-9.9c15.8-0.1,30.9-6.4,42-17.5
			c11.1-11.1,17.3-26.1,17.3-41.7C190.5,282.9,164.4,282.9,164.4,282.9z"/>
		<path class="st3" d="M131.2,223.7c-15.8,0.1-30.9,6.4-42,17.5c-11.1,11.1-17.3,26.1-17.3,41.7H98c0-8.8,3.4-17.2,9.6-23.5
			c6.2-6.3,14.7-9.8,23.6-9.9c8.9,0.1,17.3,3.7,23.6,9.9c6.2,6.2,9.7,14.7,9.6,23.5h26.1c0-15.6-6.2-30.6-17.3-41.7
			C162.1,230.1,147,223.8,131.2,223.7L131.2,223.7z"/>
		<path class="st2" d="M526.6,275.7l-9.5,11.5c-4.1-4.1-9.7-6.5-15.5-6.5c-4.9,0-7.4,1.7-7.4,4.9c0,2.6,1.8,4,7.2,6.1l6.7,2.8
			c13.4,5.4,19.5,10.8,19.5,20.9c0.1,3.1-0.5,6.2-1.8,9c-1.3,2.8-3.4,5.2-5.9,7.1c-5.6,4.1-12.4,6.1-19.3,5.8
			c-12.3,0-21.8-4.4-28.7-13.3l9.5-11.4c6,6.2,12.6,9.3,19.5,9.3c5,0,8.8-1.9,8.8-5.7c0-2.9-2-4-7.2-6.2l-7.4-3.1
			c-12.7-5.1-18.9-10.8-18.9-20.9c0-12.9,10.4-20.6,25.5-20.6C512,265.3,520.2,268.8,526.6,275.7L526.6,275.7z M389.8,267.5h-17.4
			v7.4C362.8,263.1,339,262,326,276c-12.4,13.3-13,37.5,0,51.5c13,14,36.9,12.9,46.5,1v7.4h17.4L389.8,267.5L389.8,267.5z
			 M353.7,320.5c-23.9,0-23.9-37.6,0-37.6C377,282.9,377.1,320.5,353.7,320.5z M234.6,357.3H252v-28.7c9.6,11.8,33.5,12.9,46.5-1
			c13-14,12.4-38.1,0-51.5c-13-14-36.9-12.9-46.5-1v-7.4h-17.3L234.6,357.3L234.6,357.3z M270.7,282.9c23.9,0,23.9,37.6,0,37.6
			C247.4,320.6,247.5,282.9,270.7,282.9C270.8,282.9,270.7,282.9,270.7,282.9z M727.8,267.2h-17.4v7.4c-9.6-11.8-33.5-12.9-46.5,1.1
			c-12.4,13.4-13,37.5,0,51.5c13,14,36.9,12.9,46.5,1v7.4h17.4L727.8,267.2L727.8,267.2z M691.7,320.2c-23.9,0-23.9-37.6,0-37.6
			C714.9,282.5,715,320.2,691.7,320.2C691.6,320.2,691.7,320.2,691.7,320.2z M453.2,267l-18.1,45l-17-45h-20l26.5,64.6
			c-0.8,4.6-4.6,9.7-16.9,9.9v16.2c16,1.1,28-7,33.6-19.8l31.6-70.9C473.1,267,453.2,267,453.2,267z M648.9,284v-17.9
			c-1.9-0.3-3.9-0.4-5.8-0.4c-4.2-0.1-8.3,0.6-12.2,2.1c-3.9,1.5-7.4,3.8-10.4,6.6c-3,3-5.4,6.7-7,10.7c-1.6,4-2.3,8.3-2.1,12.5V336
			h18.9v-39.3c-0.2-3.5,1.1-6.9,3.6-9.4c1.2-1.2,2.7-2.2,4.3-2.9c1.6-0.7,3.3-1,5.1-1C645.1,283.5,647,283.7,648.9,284L648.9,284z
			 M569.6,265.4c-7.2,0-14.2,2.1-20.2,6.1c-6,4-10.6,9.6-13.4,16.2c-2.7,6.6-3.4,13.8-2,20.8c1.4,7,4.9,13.4,10.1,18.4
			c15.1,14.4,41.1,12.7,54.4,1.8l-7.2-13.3c-9.9,7.6-34,10.2-39-7.9h49.5c0.5-6.9,1.7-16.8-3.6-26.2
			C589.5,265.5,573.2,265.4,569.6,265.4z M568.9,280.5c8,0,14.3,5.1,14.9,13h-31.3C555,285.6,561.2,280.5,568.9,280.5z"/>
	</g>
</g>
</svg>
