<?xml version="1.0" encoding="UTF-8" standalone="no"?>
<svg width="150px" height="56px" viewBox="0 0 150 56" version="1.1" xmlns="http://www.w3.org/2000/svg" xmlns:xlink="http://www.w3.org/1999/xlink" xmlns:sketch="http://www.bohemiancoding.com/sketch/ns">
    <!-- Generator: Sketch 3.4 (15575) - http://www.bohemiancoding.com/sketch -->
    <title>Page 1</title>
    <desc>Created with Sketch.</desc>
    <defs>
        <path id="path-1" d="M0,0.224252492 L149.640773,0.224252492 L149.640773,55.1020408 L0,55.1020408 L0,0.224252492 Z"></path>
    </defs>
    <g id="Page-1" stroke="none" stroke-width="1" fill="none" fill-rule="evenodd" sketch:type="MSPage">
        <g id="Home-Copy" sketch:type="MSArtboardGroup" transform="translate(-70.000000, -12.000000)">
            <g id="Page-1" sketch:type="MSLayerGroup" transform="translate(70.000000, 12.000000)">
                <path d="M146.894421,13.5249881 L146.517811,12.5953014 L134.501717,12.5953014 C129.56588,5.15011865 121.087983,0.224252492 111.471888,0.224252492 C101.859657,0.224252492 93.3849785,5.15011865 88.4504292,12.5953014 L3.12296137,12.5953014 L2.74570815,13.5249881 C0.924463519,18.0228524 0,22.7782867 0,27.6605838 C0,32.5415994 0.923819742,37.2989559 2.74570815,41.8019459 L3.1223176,42.7329141 L88.4542918,42.7329141 C93.389485,50.1768154 101.862232,55.1020408 111.471888,55.1020408 C121.085408,55.1020408 129.561373,50.1768154 134.498498,42.7329141 L146.517811,42.7329141 L146.894421,41.8019459 C148.716953,37.2995966 149.640773,32.5422402 149.640773,27.6605838 C149.640773,22.7776459 148.716309,18.0228524 146.894421,13.5249881" id="Fill-1" fill="#FFFFFF" sketch:type="MSShapeGroup"></path>
                <path d="M111.471631,53.6164001 C97.097382,53.6164001 85.3993133,41.9732107 85.3993133,27.6588538 C85.3993133,13.3496227 97.097382,1.70963692 111.471631,1.70963692 C125.854893,1.70963692 137.555536,13.3496227 137.555536,27.6588538 C137.555536,41.9732107 125.854893,53.6164001 111.471631,53.6164001" id="Fill-3" fill="#FFDE00" sketch:type="MSShapeGroup"></path>
                <path d="M87.5305365,14.0806217 L4.1298927,14.0806217 C2.43032189,18.2773469 1.49298283,22.8636308 1.49298283,27.6607119 C1.49298283,32.4584338 2.43032189,37.0447176 4.1298927,41.2472093 L87.5305365,41.2472093 C85.2251717,37.236934 83.9009227,32.6025961 83.9009227,27.6587897 C83.9009227,22.7207499 85.2251717,18.0876934 87.5305365,14.0806217" id="Fill-5" fill="#7D868C" sketch:type="MSShapeGroup"></path>
                <path d="M135.421545,41.2474656 L145.510815,41.2474656 C147.21103,37.0449739 148.149013,32.4586901 148.149013,27.6609682 C148.149013,22.863887 147.21103,18.2776032 145.510815,14.080878 L135.42412,14.080878 C137.72691,18.0879497 139.053734,22.7203654 139.053734,27.659046 C139.053734,32.6022117 137.72691,37.2371903 135.421545,41.2474656" id="Fill-7" fill="#7D868C" sketch:type="MSShapeGroup"></path>
                <path d="M92.0810086,22.5924134 L93.3743562,22.5924134 C95.1054721,22.5924134 96.4805794,23.133823 96.4805794,24.8054651 C96.4805794,26.528365 95.1054721,27.0659302 93.3743562,27.0659302 L92.0810086,27.0659302 L92.0810086,22.5924134 Z M87.0608369,35.8297176 L92.0810086,35.8297176 L92.0810086,30.1490816 L94.0245708,30.1490816 C98.7177039,30.1490816 101.49882,28.1871927 101.49882,24.8772259 C101.49882,21.1962814 98.7994635,19.5124656 93.0524678,19.5124656 L87.0608369,19.5124656 L87.0608369,35.8297176 Z" id="Fill-9" fill="#7D868C" sketch:type="MSShapeGroup"></path>
                <path d="M110.988155,29.285261 L106.279571,29.285261 L108.685365,22.8767655 L108.743948,22.8767655 L110.988155,29.285261 Z M98.5413734,35.8295895 L103.634292,35.8295895 L105.114335,32.3639274 L112.166266,32.3639274 L113.578069,35.8295895 L119.068841,35.8295895 L111.819914,19.5123374 L105.680215,19.5123374 L98.5413734,35.8295895 Z" id="Fill-11" fill="#7D868C" sketch:type="MSShapeGroup"></path>
                <path d="M135.893691,35.3683341 C132.71794,36.0718462 130.34176,36.1128524 128.6203,36.1128524 C123.611717,36.1128524 117.828026,33.9247888 117.828026,27.7379829 C117.828026,21.5825724 122.805708,19.2247176 129.692833,19.2247176 C130.934678,19.2247176 133.5497,19.3426103 135.373519,19.9512957 L134.977597,23.5021737 C133.414506,22.7070384 131.58618,22.448187 130.3997,22.448187 C126.334893,22.448187 122.997554,23.931457 122.997554,27.7482345 C122.997554,30.9454343 125.610644,32.8913052 129.266652,32.8913052 C129.942618,32.8913052 130.596052,32.8016042 131.041545,32.6100285 L131.041545,29.3807926 L128.112361,29.3807926 L128.112361,26.3046891 L135.893691,26.3046891 L135.893691,35.3683341 Z" id="Fill-13" fill="#7D868C" sketch:type="MSShapeGroup"></path>
                <path d="M11.2656438,31.8071405 C12.5506223,32.4164665 14.354485,32.8854746 16.4229399,32.8854746 C18.0156438,32.8854746 19.509206,32.6048386 19.509206,31.2971262 C19.509206,28.2498552 10.6398927,30.1720195 10.6398927,24.2171547 C10.6398927,20.2978619 15.0529828,19.2118391 18.8210086,19.2118391 C20.613927,19.2118391 22.3901073,19.4521096 23.654485,19.8230873 L23.331309,23.190719 C22.041824,22.6749383 20.5868884,22.4397935 19.1647854,22.4397935 C17.9016953,22.4397935 15.8100644,22.5378239 15.8100644,23.9621476 C15.8100644,26.608327 24.6800215,24.8277622 24.6800215,30.7332914 C24.6800215,34.9607712 20.5868884,36.1070218 16.4229399,36.1070218 C14.6725107,36.1070218 12.5004077,35.8725178 10.8349571,35.4047912 L11.2656438,31.8071405 Z" id="Fill-15" fill="#FFFFFF" sketch:type="MSShapeGroup"></path>
                <path d="M26.1045708,19.5051614 L39.3663734,19.5051614 L39.3663734,22.5895942 L31.1253863,22.5895942 L31.1253863,25.9521001 L38.9080043,25.9521001 L38.9080043,29.036533 L31.1253863,29.036533 L31.1253863,32.7386213 L39.6612232,32.7386213 L39.6612232,35.8179283 L26.1045708,35.8179283 L26.1045708,19.5051614 Z" id="Fill-17" fill="#FFFFFF" sketch:type="MSShapeGroup"></path>
                <path d="M46.4822318,22.5895942 L47.8000429,22.5895942 C49.715279,22.5895942 51.468927,22.8663859 51.468927,24.3945064 C51.468927,26.2442691 49.4127039,26.2897603 47.8000429,26.2897603 L46.4822318,26.2897603 L46.4822318,22.5895942 Z M41.459485,35.8179283 L46.4822318,35.8179283 L46.4822318,29.3741932 L47.5296567,29.3741932 C49.392103,29.3741932 50.0320172,30.0719388 51.0524034,32.8738135 L52.1358798,35.8179283 L57.3633476,35.8179283 L55.5279399,31.3770883 C54.6041202,29.3927741 54.4991845,28.1536189 52.8723605,27.7794376 L52.8723605,27.7339464 C55.3032618,27.2437945 56.4897425,25.7996084 56.4897425,23.6147485 C56.4897425,20.8135145 53.765279,19.5051614 50.4215021,19.5051614 L41.459485,19.5051614 L41.459485,35.8179283 Z" id="Fill-19" fill="#FFFFFF" sketch:type="MSShapeGroup"></path>
                <path d="M56.5613948,19.5051614 L61.8983047,19.5051614 L66.0725536,32.3099786 L66.1330687,32.3099786 L70.3498069,19.5051614 L75.4968026,19.5051614 L69.0809227,35.8179283 L62.8800644,35.8179283 L56.5613948,19.5051614 Z" id="Fill-21" fill="#FFFFFF" sketch:type="MSShapeGroup"></path>
                <mask id="mask-2" sketch:name="Clip 24" fill="white">
                    <use xlink:href="#path-1"></use>
                </mask>
                <g id="Clip-24"></g>
                <path d="M76.6371245,19.5054817 L81.6508584,19.5054817 L81.6508584,35.8182487 L76.6371245,35.8182487 L76.6371245,19.5054817 Z" id="Fill-23" fill="#FFFFFF" sketch:type="MSShapeGroup" mask="url(#mask-2)"></path>
            </g>
        </g>
    </g>
</svg>