<svg width="124" height="27" viewBox="0 0 124 27" fill="none" xmlns="http://www.w3.org/2000/svg">
<path d="M41.5085 21.1224V4.4592H35.543V0.5H51.7667V4.4592H45.8012V21.1224H41.5085Z" fill="#0EE06E"/>
<path d="M51.0898 21.1213V6.16016H55.0381V8.52828C55.9729 6.51784 57.1783 6.16016 58.4698 6.16016H59.995V10.1687H58.7035C56.8462 10.1687 55.1857 11.2418 55.1857 14.5226V21.1336H51.0898V21.1213Z" fill="#0EE06E"/>
<path d="M61.8525 15.645V6.16016H65.9361V14.7199C65.9361 16.4714 66.7848 17.7664 68.5314 17.7664C70.2165 17.7664 71.2866 16.4714 71.2866 14.7446V6.16016H75.3702V21.1336H71.4834V19.2465C70.4994 20.7389 69.0357 21.4789 67.1784 21.4789C63.9066 21.4666 61.8525 19.2095 61.8525 15.645Z" fill="#0EE06E"/>
<path d="M77.1172 16.9178L80.6719 16.1038C80.8441 17.2632 81.7666 18.1389 83.5501 18.1389C84.9277 18.1389 85.6903 17.5715 85.6903 16.8685C85.6903 16.3011 85.3828 15.8818 83.9683 15.5734L81.6313 15.0677C78.6424 14.414 77.3755 13.0326 77.3755 10.5165C77.3755 7.95101 79.4911 5.87891 83.464 5.87891C87.6829 5.87891 89.3803 8.4197 89.5525 10.0848L85.9732 10.8742C85.801 9.99845 85.1614 9.0364 83.3779 9.0364C82.2463 9.0364 81.4099 9.54209 81.4099 10.2821C81.4099 10.8988 81.8281 11.2442 82.5661 11.4169L85.9732 12.2062C88.5685 12.7983 89.7739 14.3523 89.7739 16.5601C89.7739 18.9282 87.892 21.4197 83.5747 21.4197C78.8269 21.4074 77.2771 18.5582 77.1172 16.9178Z" fill="#0EE06E"/>
<path d="M97.6212 21.1205C94.9767 21.1205 93.2055 19.6527 93.2055 16.7419V9.73623H90.6963V6.14704H93.2055V2.81687L97.2891 1.63281V6.14704H100.303V9.73623H97.2891V16.0019C97.2891 17.0996 97.8549 17.5313 98.9496 17.5313H100.524V21.1205H97.6212Z" fill="#0EE06E"/>
<path d="M102.738 21.1218V0.511719H106.822V21.1341H102.738V21.1218Z" fill="#0EE06E"/>
<path d="M119.133 6.16016H123.5L117.276 26.4989H112.91L114.632 21.1336H112.381L108.272 6.16016H112.639L115.714 17.7418L119.133 6.16016Z" fill="#0EE06E"/>
<path d="M0.5 9.54018H10.0817V1.86846L17.7323 9.54018L10.0817 17.1996V21.1218H19.3682V9.54018H27.8921V0.511719H0.5V9.54018Z" fill="#0EE06E"/>
</svg>
