<svg width="162" height="40" viewBox="0 0 162 40" fill="none" xmlns="http://www.w3.org/2000/svg">
<path d="M154.318 27.2L157.199 13.9636L157.748 11.3455L157.611 13.9636L156.787 26.6182L154.318 27.2ZM147.46 34.9091H152.672L153.495 31.1273H156.513L156.239 34.9091H161.588L162 5.09091H155.141L147.46 34.9091ZM146.225 34.9091L146.774 30.5455H141.836C142.11 29.8182 142.384 29.2364 142.659 28.5091L150.203 5.09091H139.641L139.092 9.45455H143.619C143.345 10.0364 143.07 10.7636 142.796 11.6364L135.114 34.9091H146.225ZM134.428 34.9091L134.977 30.5455H130.039C130.313 29.8182 130.588 29.2364 130.862 28.5091L138.544 5.09091H127.981L127.433 9.45455H131.959C131.685 10.0364 131.411 10.7636 131.136 11.6364L123.455 34.9091H134.428ZM115.362 27.2L118.242 13.9636L118.791 11.3455L118.654 13.9636L117.831 26.6182L115.362 27.2ZM108.503 34.9091H113.715L114.539 31.1273H117.556L117.282 34.9091H122.632L123.043 5.09091H116.185L108.503 34.9091ZM97.6664 34.9091H107.543L108.229 30.4H103.565L106.994 5.09091H101.782L97.6664 34.9091ZM91.6308 20.2182H90.3963L91.9052 9.30909H93.1397C93.9627 9.30909 94.2371 9.74545 94.0999 10.7636L93.0025 18.6182C92.8654 19.7818 92.3167 20.2182 91.6308 20.2182ZM93.5512 5.09091H87.2413L83.1262 34.9091H88.3387L89.8476 24.4364H91.9052C95.6088 24.4364 97.6664 22.5455 98.2151 18.1818L99.1753 11.6364C99.724 7.27273 97.9407 5.09091 93.5512 5.09091ZM76.8163 28.8C76.6791 30.4 76.1304 31.1273 75.1702 31.1273C74.21 31.1273 73.7985 30.5455 74.0728 28.6545L76.5419 11.2C76.8163 9.6 77.2278 8.87273 78.188 8.87273C79.1482 8.87273 79.5597 9.45455 79.2853 11.3455L76.8163 28.8ZM82.0288 28.5091L84.2235 12.5091C85.0466 6.54546 82.3031 4.65455 78.188 4.65455C74.0728 4.65455 71.7409 6.83636 71.055 11.6364L68.8603 27.6364C68.0373 33.6 70.7807 35.4909 74.8959 35.4909C79.011 35.3455 81.3429 33.3091 82.0288 28.5091ZM64.8823 5.09091L63.0991 17.3091L60.4928 17.8909L62.276 5.09091H57.0635L52.9483 34.9091H58.1609L59.9441 21.8182H62.4132L60.63 34.9091H65.8425L69.9577 5.09091H64.8823ZM45.4039 35.3455C50.7536 35.3455 52.2625 31.2727 52.2625 27.3455C52.2625 24.2909 51.3023 21.9636 50.0677 19.4909L48.5588 16.5818C47.3243 14.1091 46.9128 12.3636 46.9128 11.0545C46.9128 9.6 47.3243 8.72727 48.2845 8.72727C49.1075 8.72727 49.6562 9.16364 49.3819 11.4909L48.9704 14.2545L53.9086 13.0909L54.0457 11.9273C54.7316 6.54545 52.2625 4.8 48.4217 4.8C44.3065 4.8 41.8374 7.56364 41.8374 12.2182C41.8374 14.6909 42.7976 17.0182 44.0322 19.6364L45.4039 22.5455C46.5013 24.8727 47.05 26.7636 47.05 28.5091C47.05 29.9636 46.7756 31.4182 45.5411 31.4182C44.718 31.4182 44.0322 30.8364 44.4437 28.3636L44.8552 25.0182L39.917 26.1818L39.6427 27.7818C38.8196 33.4545 41.5631 35.3455 45.4039 35.3455ZM0 40L10.6994 37.3818L11.5224 30.8364C12.6198 34.1818 15.9119 36.2182 19.2041 36.2182C24.5538 36.2182 28.3946 31.4182 28.3946 26.3273C28.3946 22.1091 25.7883 19.2 22.6334 18.1818H29.492L32.2354 0L21.536 2.61818L20.5758 9.16364C19.4784 5.81818 16.1863 3.78182 12.8942 3.78182C7.54445 3.78182 3.70364 8.58182 3.70364 13.6727C3.70364 17.8909 6.30991 20.8 9.46486 21.8182H2.60627L0 40Z" fill="#FF0000"/>
</svg>
