<svg id="Layer_1" data-name="Layer 1" xmlns="http://www.w3.org/2000/svg" viewBox="0 0 280 300"><defs><style>.cls-1{fill:#252c57;}.cls-2{fill:#0e86c8;}</style></defs><title>FPX Logo</title><path class="cls-1" d="M60.22,181.44a5.17,5.17,0,0,1,.38-2.05,4.38,4.38,0,0,1,1-1.56,4.86,4.86,0,0,1,1.62-1,6.26,6.26,0,0,1,4.07,0,4.81,4.81,0,0,1,1.61,1A4.54,4.54,0,0,1,70,179.39a5.72,5.72,0,0,1,0,4.1A4.5,4.5,0,0,1,67.34,186a6.09,6.09,0,0,1-4.07,0,4.68,4.68,0,0,1-1.62-1,4.47,4.47,0,0,1-1-1.56,5.17,5.17,0,0,1-.38-2.05m2.15,0a3.43,3.43,0,0,0,.21,1.22,2.92,2.92,0,0,0,.59,1,2.73,2.73,0,0,0,.93.63,3.27,3.27,0,0,0,2.41,0A2.69,2.69,0,0,0,68,182.66a3.62,3.62,0,0,0,0-2.43,2.67,2.67,0,0,0-.59-1,2.6,2.6,0,0,0-.92-.63,3.27,3.27,0,0,0-2.41,0,2.73,2.73,0,0,0-.93.63,3,3,0,0,0-.59,1,3.42,3.42,0,0,0-.21,1.21"/><path class="cls-1" d="M71.54,179.68h1.92v.88h0a1.67,1.67,0,0,1,.26-.37,1.7,1.7,0,0,1,.42-.33,2.69,2.69,0,0,1,.54-.25,2.41,2.41,0,0,1,.67-.09,2.67,2.67,0,0,1,1.22.24,1.75,1.75,0,0,1,.73.64,2.67,2.67,0,0,1,.35,1,7.73,7.73,0,0,1,.09,1.21v3.57h-2V183c0-.18,0-.38,0-.58a2.44,2.44,0,0,0-.12-.55,1,1,0,0,0-.31-.41.92.92,0,0,0-.59-.16,1.28,1.28,0,0,0-.63.14.91.91,0,0,0-.36.37,1.5,1.5,0,0,0-.17.53,5.86,5.86,0,0,0,0,.61v3.22h-2Z"/><rect class="cls-1" x="79.21" y="176.09" width="2" height="10.06"/><path class="cls-1" d="M82.51,177.65a1.09,1.09,0,0,1,.34-.82,1.16,1.16,0,0,1,1.64,0,1.13,1.13,0,0,1,.34.82,1.16,1.16,0,0,1-2,.81,1.07,1.07,0,0,1-.34-.81m.16,2h2v6.47h-2Z"/><path class="cls-1" d="M86.11,179.68H88v.88h0a1.45,1.45,0,0,1,.27-.37,1.49,1.49,0,0,1,.41-.33,2.69,2.69,0,0,1,.54-.25,2.41,2.41,0,0,1,.67-.09,2.67,2.67,0,0,1,1.22.24,1.75,1.75,0,0,1,.73.64,2.67,2.67,0,0,1,.35,1,7.69,7.69,0,0,1,.1,1.21v3.57h-2V183c0-.18,0-.38,0-.58a1.69,1.69,0,0,0-.12-.55,1,1,0,0,0-.31-.41.92.92,0,0,0-.59-.16,1.28,1.28,0,0,0-.63.14.91.91,0,0,0-.36.37,1.5,1.5,0,0,0-.17.53,5.86,5.86,0,0,0,0,.61v3.22h-2Z"/><path class="cls-1" d="M99.87,185a3.15,3.15,0,0,1-1.21.95,3.68,3.68,0,0,1-1.52.33,4,4,0,0,1-1.4-.24,3.47,3.47,0,0,1-1.15-.68,3.2,3.2,0,0,1-.76-1.08,3.29,3.29,0,0,1-.28-1.39,3.33,3.33,0,0,1,.28-1.4,3.16,3.16,0,0,1,.76-1.07,3.33,3.33,0,0,1,1.15-.69,4,4,0,0,1,1.4-.24,3.22,3.22,0,0,1,1.26.24,2.65,2.65,0,0,1,1,.69,3.1,3.1,0,0,1,.6,1.07,4.37,4.37,0,0,1,.22,1.4v.62H95.54a1.6,1.6,0,0,0,.52.91,1.64,1.64,0,0,0,1.82.12,2.23,2.23,0,0,0,.59-.56Zm-1.69-2.85a1.15,1.15,0,0,0-.33-.86A1.19,1.19,0,0,0,97,181a1.34,1.34,0,0,0-.58.11,1.43,1.43,0,0,0-.43.27,1.08,1.08,0,0,0-.28.39,1.16,1.16,0,0,0-.12.45Z"/><path class="cls-1" d="M105.58,176.73h3.51a10.16,10.16,0,0,1,1.23.08,3.5,3.5,0,0,1,1.12.35,2.13,2.13,0,0,1,.79.73,2.16,2.16,0,0,1,.31,1.23,2,2,0,0,1-.45,1.33,2.43,2.43,0,0,1-1.17.75v0a2.5,2.5,0,0,1,.84.26,2.1,2.1,0,0,1,.65.49,2,2,0,0,1,.42.7,2.37,2.37,0,0,1,.15.85,2.26,2.26,0,0,1-.32,1.24,2.54,2.54,0,0,1-.82.81,3.81,3.81,0,0,1-1.14.44,6,6,0,0,1-1.26.13h-3.86Zm2.08,3.76h1.5a1.83,1.83,0,0,0,.47-.05,1.13,1.13,0,0,0,.42-.17.84.84,0,0,0,.3-.32.9.9,0,0,0,.11-.48.91.91,0,0,0-.12-.49,1,1,0,0,0-.33-.3,1.49,1.49,0,0,0-.45-.15,2.81,2.81,0,0,0-.49-.05h-1.41Zm0,3.9h1.86a2,2,0,0,0,.48,0,1.29,1.29,0,0,0,.45-.18,1.23,1.23,0,0,0,.33-.35,1.05,1.05,0,0,0,.12-.52.85.85,0,0,0-.16-.54,1,1,0,0,0-.42-.31,2.34,2.34,0,0,0-.55-.15,3.44,3.44,0,0,0-.54,0h-1.57Z"/><path class="cls-1" d="M118,185.34h0a2,2,0,0,1-.89.75,3.08,3.08,0,0,1-1.17.22,2.82,2.82,0,0,1-.87-.13,2.17,2.17,0,0,1-.74-.38,1.69,1.69,0,0,1-.5-.62,1.86,1.86,0,0,1-.19-.87,2,2,0,0,1,.21-.94,1.82,1.82,0,0,1,.56-.64,2.59,2.59,0,0,1,.8-.39,5.83,5.83,0,0,1,.94-.21c.32,0,.65-.07,1-.08h.9a1.05,1.05,0,0,0-.38-.85,1.4,1.4,0,0,0-.9-.31,1.89,1.89,0,0,0-.89.21,2.2,2.2,0,0,0-.73.56L114,180.56a3.93,3.93,0,0,1,1.31-.78,4.74,4.74,0,0,1,1.54-.26,4.21,4.21,0,0,1,1.45.22,2.08,2.08,0,0,1,.9.65,2.31,2.31,0,0,1,.47,1,6.72,6.72,0,0,1,.14,1.43v3.29H118Zm-.49-2c-.15,0-.34,0-.57,0a2.85,2.85,0,0,0-.65.11,1.41,1.41,0,0,0-.53.28.63.63,0,0,0-.22.52.57.57,0,0,0,.3.53,1.25,1.25,0,0,0,.64.17,1.79,1.79,0,0,0,.57-.08,2,2,0,0,0,.49-.22,1,1,0,0,0,.33-.38,1,1,0,0,0,.13-.53v-.42Z"/><path class="cls-1" d="M121.1,179.68H123v.88h0a1.45,1.45,0,0,1,.27-.37,1.49,1.49,0,0,1,.41-.33,2.54,2.54,0,0,1,.55-.25,2.29,2.29,0,0,1,.66-.09,2.69,2.69,0,0,1,1.23.24,1.73,1.73,0,0,1,.72.64,2.5,2.5,0,0,1,.35,1,6.66,6.66,0,0,1,.1,1.21v3.57h-2V183c0-.18,0-.38,0-.58a1.69,1.69,0,0,0-.12-.55.85.85,0,0,0-.9-.57,1.24,1.24,0,0,0-.62.14.94.94,0,0,0-.37.37,1.74,1.74,0,0,0-.17.53,5.93,5.93,0,0,0,0,.61v3.22h-2Z"/><polygon class="cls-1" points="128.74 176.09 130.74 176.09 130.74 182.24 132.95 179.68 135.39 179.68 132.82 182.6 135.46 186.15 132.95 186.15 130.76 182.88 130.74 182.88 130.74 186.15 128.74 186.15 128.74 176.09"/><path class="cls-1" d="M136,177.65a1.09,1.09,0,0,1,.34-.82,1.07,1.07,0,0,1,.81-.34,1.16,1.16,0,0,1,1.16,1.16,1.07,1.07,0,0,1-.34.81,1.09,1.09,0,0,1-.82.34,1.16,1.16,0,0,1-1.15-1.15m.16,2h2v6.47h-2Z"/><path class="cls-1" d="M139.6,179.68h1.92v.88h0a1.74,1.74,0,0,1,.27-.37,1.49,1.49,0,0,1,.41-.33,2.54,2.54,0,0,1,.55-.25,2.29,2.29,0,0,1,.66-.09,2.69,2.69,0,0,1,1.23.24,1.73,1.73,0,0,1,.72.64,2.68,2.68,0,0,1,.36,1,7.73,7.73,0,0,1,.09,1.21v3.57h-2V183c0-.18,0-.38,0-.58a1.69,1.69,0,0,0-.12-.55.85.85,0,0,0-.9-.57,1.26,1.26,0,0,0-.62.14,1,1,0,0,0-.37.37,1.49,1.49,0,0,0-.16.53,4,4,0,0,0,0,.61v3.22h-2Z"/><path class="cls-1" d="M154,185.61a3.81,3.81,0,0,1-.93,2.78,3.72,3.72,0,0,1-2.81,1,7.54,7.54,0,0,1-1.71-.2,3.88,3.88,0,0,1-1.54-.75l1.1-1.65a4.08,4.08,0,0,0,1,.61,2.78,2.78,0,0,0,1.13.23,1.8,1.8,0,0,0,1.35-.45A1.54,1.54,0,0,0,152,186v-.62h0a2,2,0,0,1-.86.66,2.77,2.77,0,0,1-1,.19,3.21,3.21,0,0,1-1.3-.25,2.84,2.84,0,0,1-1-.69,3,3,0,0,1-.64-1.06,3.92,3.92,0,0,1,0-2.59,3.3,3.3,0,0,1,.58-1.08,2.85,2.85,0,0,1,.93-.75,2.61,2.61,0,0,1,1.24-.29,2.78,2.78,0,0,1,.78.1,2.94,2.94,0,0,1,.63.24,2.36,2.36,0,0,1,.48.32,1.66,1.66,0,0,1,.31.36h0v-.86H154Zm-5-2.73a1.53,1.53,0,0,0,.12.6,1.57,1.57,0,0,0,.34.51,1.61,1.61,0,0,0,.5.35,1.45,1.45,0,0,0,.63.13,1.48,1.48,0,0,0,.63-.13,1.78,1.78,0,0,0,.51-.35,1.57,1.57,0,0,0,.34-.51,1.53,1.53,0,0,0,.12-.6,1.58,1.58,0,0,0-.12-.61,1.43,1.43,0,0,0-.34-.5,1.82,1.82,0,0,0-.51-.36,1.48,1.48,0,0,0-.63-.13,1.45,1.45,0,0,0-.63.13,1.64,1.64,0,0,0-.5.36,1.43,1.43,0,0,0-.34.5,1.58,1.58,0,0,0-.12.61"/><path class="cls-1" d="M159.82,176.73h3.5a6.74,6.74,0,0,1,1.38.13,3.07,3.07,0,0,1,1.14.46,2.27,2.27,0,0,1,.77.88,3,3,0,0,1,.29,1.39,3.14,3.14,0,0,1-.27,1.38,2.24,2.24,0,0,1-.73.9,3.13,3.13,0,0,1-1.1.47,6.75,6.75,0,0,1-1.39.14h-1.52v3.67h-2.07Zm2.07,4h1.39a3.29,3.29,0,0,0,.54-.05,1.58,1.58,0,0,0,.46-.18,1,1,0,0,0,.34-.35,1.12,1.12,0,0,0,.12-.55,1,1,0,0,0-.16-.58,1.1,1.1,0,0,0-.43-.34,1.7,1.7,0,0,0-.58-.15c-.21,0-.41,0-.61,0h-1.07Z"/><path class="cls-1" d="M172,185.34h0a1.89,1.89,0,0,1-.88.75,3.08,3.08,0,0,1-1.17.22,2.82,2.82,0,0,1-.87-.13,2.17,2.17,0,0,1-.74-.38,1.69,1.69,0,0,1-.5-.62,1.86,1.86,0,0,1-.19-.87,2,2,0,0,1,.21-.94,1.82,1.82,0,0,1,.56-.64,2.59,2.59,0,0,1,.8-.39,5.83,5.83,0,0,1,.94-.21c.32,0,.65-.07,1-.08h.9a1.05,1.05,0,0,0-.38-.85,1.4,1.4,0,0,0-.9-.31,2,2,0,0,0-.9.21,2.27,2.27,0,0,0-.72.56L168,180.56a3.93,3.93,0,0,1,1.31-.78,4.7,4.7,0,0,1,1.54-.26,4.21,4.21,0,0,1,1.45.22,2.08,2.08,0,0,1,.9.65,2.31,2.31,0,0,1,.47,1,6.72,6.72,0,0,1,.14,1.43v3.29H172Zm-.49-2c-.15,0-.34,0-.57,0a2.76,2.76,0,0,0-.65.11,1.41,1.41,0,0,0-.53.28.63.63,0,0,0-.22.52.57.57,0,0,0,.3.53,1.25,1.25,0,0,0,.64.17,1.79,1.79,0,0,0,.57-.08,2,2,0,0,0,.49-.22,1,1,0,0,0,.33-.38,1,1,0,0,0,.13-.53v-.42Z"/><path class="cls-1" d="M178.83,187.2c-.14.35-.27.65-.39.92a2.23,2.23,0,0,1-.47.67,2,2,0,0,1-.73.42,4,4,0,0,1-1.16.14,4.7,4.7,0,0,1-1.49-.24l.27-1.64a2.32,2.32,0,0,0,.93.2,1.65,1.65,0,0,0,.54-.07.81.81,0,0,0,.36-.22,1.07,1.07,0,0,0,.23-.34c.06-.13.13-.28.2-.46l.15-.38-2.84-6.52h2.16l1.66,4.28h0l1.42-4.28h2.05Z"/><path class="cls-1" d="M182.5,179.68h1.92v.88h0a1.45,1.45,0,0,1,.27-.37,1.65,1.65,0,0,1,.41-.33,2.54,2.54,0,0,1,.55-.25,2.29,2.29,0,0,1,.66-.09,2.49,2.49,0,0,1,1.21.28,1.8,1.8,0,0,1,.79.88,2.14,2.14,0,0,1,.84-.89,2.49,2.49,0,0,1,1.21-.27,2.6,2.6,0,0,1,1.1.22,1.87,1.87,0,0,1,.7.6,2.47,2.47,0,0,1,.38.89,5.54,5.54,0,0,1,.11,1.1v3.82h-2v-3.76a1.46,1.46,0,0,0-.19-.78.73.73,0,0,0-.69-.33,1.43,1.43,0,0,0-.58.11,1,1,0,0,0-.37.32,1.29,1.29,0,0,0-.2.46,2.6,2.6,0,0,0-.06.56v3.42h-2v-3.42c0-.11,0-.26,0-.42a1.86,1.86,0,0,0-.09-.48.87.87,0,0,0-.26-.39.76.76,0,0,0-.53-.16,1.26,1.26,0,0,0-.62.14,1,1,0,0,0-.37.37,1.74,1.74,0,0,0-.17.53,5.93,5.93,0,0,0,0,.61v3.22h-2Z"/><path class="cls-1" d="M200.2,185A3.15,3.15,0,0,1,199,186a3.65,3.65,0,0,1-1.52.33,4.08,4.08,0,0,1-1.4-.24,3.57,3.57,0,0,1-1.15-.68,3.35,3.35,0,0,1-.76-1.08,3.29,3.29,0,0,1-.28-1.39,3.28,3.28,0,0,1,1-2.47,3.43,3.43,0,0,1,1.15-.69,4.08,4.08,0,0,1,1.4-.24,3.18,3.18,0,0,1,1.26.24,2.57,2.57,0,0,1,1,.69,3.29,3.29,0,0,1,.61,1.07,4.38,4.38,0,0,1,.21,1.4v.62h-4.63a1.54,1.54,0,0,0,.52.91,1.43,1.43,0,0,0,1,.34,1.45,1.45,0,0,0,.83-.22,2,2,0,0,0,.59-.56Zm-1.69-2.85a1.15,1.15,0,0,0-.33-.86,1.18,1.18,0,0,0-.89-.36,1.38,1.38,0,0,0-.59.11,1.43,1.43,0,0,0-.43.27,1.21,1.21,0,0,0-.28.39,1.15,1.15,0,0,0-.11.45Z"/><path class="cls-1" d="M201.72,179.68h1.92v.88h0a1.45,1.45,0,0,1,.27-.37,1.49,1.49,0,0,1,.41-.33,2.54,2.54,0,0,1,.55-.25,2.29,2.29,0,0,1,.66-.09,2.69,2.69,0,0,1,1.23.24,1.73,1.73,0,0,1,.72.64,2.68,2.68,0,0,1,.36,1,7.73,7.73,0,0,1,.09,1.21v3.57h-2V183c0-.18,0-.38,0-.58a1.69,1.69,0,0,0-.12-.55.85.85,0,0,0-.9-.57,1.24,1.24,0,0,0-.62.14.94.94,0,0,0-.37.37,1.49,1.49,0,0,0-.16.53,4,4,0,0,0,0,.61v3.22h-2Z"/><path class="cls-1" d="M213.77,181.28H212v2.16c0,.17,0,.34,0,.48a1.06,1.06,0,0,0,.12.38.6.6,0,0,0,.29.25,1.24,1.24,0,0,0,.51.08l.42,0a.73.73,0,0,0,.4-.15v1.66a2.84,2.84,0,0,1-.7.16,5.58,5.58,0,0,1-.7,0,4,4,0,0,1-.94-.11,2.17,2.17,0,0,1-.74-.33,1.66,1.66,0,0,1-.5-.61,2.08,2.08,0,0,1-.18-.91v-3.07h-1.28v-1.6H210v-1.91h2v1.91h1.76Z"/><path class="cls-1" d="M218.44,181.58a1.43,1.43,0,0,0-1.16-.54,1.07,1.07,0,0,0-.49.12.42.42,0,0,0-.24.41.38.38,0,0,0,.24.36,4.29,4.29,0,0,0,.63.2l.81.18a3.16,3.16,0,0,1,.81.31,2.05,2.05,0,0,1,.63.58,1.78,1.78,0,0,1,.24,1,1.81,1.81,0,0,1-.27,1,2,2,0,0,1-.7.65,2.92,2.92,0,0,1-.95.35,5.51,5.51,0,0,1-1.06.1,5,5,0,0,1-1.37-.19,2.57,2.57,0,0,1-1.17-.69l1.21-1.34a1.87,1.87,0,0,0,.62.52,1.67,1.67,0,0,0,.79.18,1.81,1.81,0,0,0,.63-.1.35.35,0,0,0,.28-.36.4.4,0,0,0-.25-.38,2.46,2.46,0,0,0-.62-.22l-.82-.18a3.74,3.74,0,0,1-.81-.3,1.61,1.61,0,0,1-.62-.57,1.66,1.66,0,0,1-.25-1,2,2,0,0,1,.23-1,2.12,2.12,0,0,1,.62-.68,2.66,2.66,0,0,1,.87-.39,4.22,4.22,0,0,1,1-.13,4.53,4.53,0,0,1,1.29.19,2.29,2.29,0,0,1,1.1.67Z"/><polygon class="cls-1" points="118.57 117.39 144.55 117.39 144.55 125.26 127.1 125.26 127.1 133.14 143.24 133.14 143.24 141.01 127.1 141.01 127.1 156.11 118.57 156.11 118.57 117.39"/><path class="cls-1" d="M150.68,117.39h14.38a28.67,28.67,0,0,1,5.68.54,13.08,13.08,0,0,1,4.68,1.89,9.51,9.51,0,0,1,3.17,3.61,12.28,12.28,0,0,1,1.18,5.72,13.13,13.13,0,0,1-1.1,5.68,9.3,9.3,0,0,1-3,3.67,12.2,12.2,0,0,1-4.54,1.94,26.83,26.83,0,0,1-5.69.57h-6.23v15.1h-8.53Zm8.53,16.4h5.69a11.43,11.43,0,0,0,2.21-.21,6.08,6.08,0,0,0,1.91-.74,4,4,0,0,0,1.37-1.42,4.49,4.49,0,0,0,.52-2.27,3.8,3.8,0,0,0-.69-2.38,4.43,4.43,0,0,0-1.74-1.4,7.52,7.52,0,0,0-2.38-.63,24.75,24.75,0,0,0-2.52-.13h-4.37Z"/><polygon class="cls-1" points="194.75 135.87 181.96 117.39 192.67 117.39 200.93 130.95 208.86 117.39 219.2 117.39 206.67 135.71 220.67 156.11 209.95 156.11 200.5 140.52 191.31 156.11 181.19 156.11 194.75 135.87"/><path class="cls-2" d="M81.21,148.84l-5.4-7.31c-.8-1.09-2.18-2.52-2.18-3.95s1.37-2.87,2.18-4l5.4-7.32a4.11,4.11,0,0,1,.75-.79v-8.42c0-6.77-2.83-8.47-6.29-3.79L64,129.06c-1.73,2.35-4.69,5.43-4.69,8.52s3,6.17,4.69,8.52l11.65,15.75c3.46,4.68,6.29,3,6.29-3.78v-8.43a3.67,3.67,0,0,1-.75-.8"/><path class="cls-1" d="M104.09,129.06,92.44,113.3c-3.46-4.69-6.29-3-6.29,3.79v8.42a3.82,3.82,0,0,1,.74.79l5.41,7.32c.81,1.09,2.18,2.53,2.18,4s-1.37,2.86-2.18,3.95l-5.41,7.31a4,4,0,0,1-.74.81v8.42c0,6.78,2.83,8.46,6.29,3.78l11.65-15.75c1.73-2.36,4.69-5.45,4.69-8.53s-3-6.16-4.69-8.51"/></svg>