<svg version="1.2" xmlns="http://www.w3.org/2000/svg" viewBox="0 0 1561 1513" width="1561" height="1513">
	<title>Industrial_Bank_of_Korea_Logo-svg</title>
	<defs>
		<clipPath clipPathUnits="userSpaceOnUse" id="cp1">
			<path d="m-6667.69-4707.35h18688.27v26235.91h-18688.27z"/>
		</clipPath>
	</defs>
	<style>
		.s0 { fill: #ffffff } 
		.s1 { fill: #0099da } 
		.s2 { fill: #f15d22 } 
		.s3 { fill: #0056a3 } 
	</style>
	<g id="layer1">
		<g id="g10">
			<g id="g596">
				<g id="Clip-Path: g598" clip-path="url(#cp1)">
					<g id="g598">
						<g id="g604">
							<path id="path606" class="s0" d="m514.4 9.5l924.9 310.7c92.3 30.8 142.6 131.1 111.7 223.4l-282.2 848.2c-14.7 44.9-46.1 80.9-88.2 102.2-42.1 21.1-90 24.5-134.8 9.6l-925.1-310.8c-44.5-14.9-80.7-46.4-101.8-88.3-21.2-42.3-24.7-90.3-9.8-134.9l282.1-848.4c14.8-44.7 46.2-80.9 88.4-102 42.3-21.3 89.8-24.5 134.8-9.7z"/>
						</g>
						<path id="path608" fill-rule="evenodd" class="s1" d="m895.3 1085.1c-6.2 102.9-48.6 195.2-114.1 264.8l-641.9-214.5c-60.4-19.8-94.2-85.4-74.2-145.8l282.9-848.9c19.9-60.2 84.1-93.5 144.4-73.4l133.6 44.5c162 60.2 280 233.1 268.6 421.6-4.6 73-26.9 140.2-62.9 198.1-50.5-55.9-113.3-101.2-186-128.9l-41.2-16v393.1l41.7-16.2c72.6-28.1 135.3-73.4 185.5-129.5 45.4 72.6 69.3 159.2 63.6 251.1zm-434.7-522h-63.7v440.7h63.7z"/>
						<g id="g610">
							<path id="path612" class="s2" d="m665.5 886.6v-207.1c50 25.9 93.3 61.2 129.2 103.3-35.6 42.1-79.2 77.9-129.2 103.8z"/>
						</g>
						<g id="g614">
							<path id="path616" fill-rule="evenodd" class="s3" d="m1493.1 522.7l-283.1 848.8c-20.1 60.4-84 93.7-144.4 73.6l-221.3-74c71.2-84.9 114-194.7 113.9-313.8-0.2-99.7-31.5-195-85.8-274.5 54.1-79.9 85.2-175.2 85.1-274.9-0.3-126.2-48.7-241.4-127.8-328.1l589.1 197.1c60.4 20 94.3 85.5 74.3 145.8zm-393.8 259.9l166.7-221-80.2 0.3-166.4 220.4 163.8 220.4 79.5-0.2z"/>
						</g>
					</g>
				</g>
			</g>
		</g>
	</g>
</svg>