<svg version="1.2" xmlns="http://www.w3.org/2000/svg" viewBox="0 0 1541 1550" width="1541" height="1550">
	<title>PAGS_BIG copy-svg</title>
	<style>
		.s0 { fill: #000000 } 
		.s1 { fill: #dde05b } 
		.s2 { fill: #9ed5d6 } 
		.s3 { fill: #ffe72d } 
	</style>
	<path id="Layer" fill-rule="evenodd" class="s0" d="m1065 1491.1c392.7-163 579.2-614.3 416.6-1007.7-162.5-393.8-612.8-580.7-1005.9-417.8-392.7 163.3-579.2 614.3-416.7 1008.1 163 393.5 613.2 580.6 1006 417.4z"/>
	<path id="path187" class="s1" d="m770.5 1315.3c-353.9 0-640-286.7-640-641.5 0-354.7 286.1-641.4 640-641.4 354 0 640.1 286.7 640.1 641.4 0 354.8-286.1 641.5-640.1 641.5z"/>
	<path id="path189" fill-rule="evenodd" class="s0" d="m770.3 1332.3c-176 0-345.2-70.4-469.6-195.2-124.8-124.8-194.9-294.3-194.9-470.7 0-176.8 70.1-346 194.9-470.8 124.4-125.1 293.6-195.1 469.6-195.1 176.5 0 345.3 70 470.1 195.1 124.4 124.8 194.4 294 194.4 470.8 0 176.4-70 345.9-194.4 470.7-124.8 124.8-293.6 195.2-470.1 195.2zm0-1282.6c-249.2 0-473.8 150.8-569.1 381.3-95.4 230.9-42.7 496.8 133.8 673.2 176.4 176.5 441.6 229.1 671.8 133.1 230.1-95.7 380.2-321.3 379.9-570.9 0-81.1-16-161.6-47.2-236.4-30.8-74.9-76.2-142.9-133.4-200.1-57.2-57.5-125.2-102.9-199.7-134.1-74.9-30.9-154.9-47.1-235.7-47.1 0 0 0 1-0.4 1z"/>
	<path id="path191" class="s2" d="m663.2 1500.1c-293.8 0-531.4-238-531.4-532.5 0-294.4 237.6-532.4 531.4-532.4 293.9 0 531.4 238 531.4 532.4 0 294.5-237.5 532.5-531.4 532.5z"/>
	<path id="path193" fill-rule="evenodd" class="s0" d="m664.3 1524.3c-235.4 0.4-445.5-148-524.5-370.2-78.7-222.5-9-470.4 174-619.1 183.1-148.4 439.6-165 640.3-41.6 200.7 123.4 301.9 360.2 252.7 590.7-13.6 61.7-37.1 121-69.7 174.7-32.9 53.7-74.9 101.6-123.8 141.1-48.8 39.9-104.3 71.1-163.6 92.2-59.2 21.2-121.6 31.9-184.7 32.2zm-1.1-1065.2c-135.5-1.1-265.5 51.6-361.9 147.3-96 95.3-150.1 225.7-150.1 361.2 0 135.6 54.1 265.6 150.1 361.2 96.4 95.4 226.7 148.4 361.9 147 133.5-1.7 260.7-56.1 354.6-151.1 93.6-95.4 146.3-223.6 146.3-357.1-0.3-133.8-52.7-262-146.6-357.4-93.6-95-220.8-149.4-354.3-151.1z"/>
	<path id="path195" class="s3" d="m1127.4 1320.5c88 0.7 173-33.6 235.7-95.7 62.7-62 97.7-146.6 97.7-234.6 0-88.4-35-173-97.7-235.1-62.7-62-147.7-96.3-235.7-95.3-86.7 1-169.5 36.1-230.5 98.1-61 61.7-95.4 145.2-95.4 232.3 0 86.6 34.4 170.2 95.4 232.2 61 61.7 143.8 97.1 230.5 98.1z"/>
	<path id="path197" fill-rule="evenodd" class="s0" d="m1127.4 1344.4c-143.2 0-272.1-86.3-326.9-218.7-54.8-132.4-24.3-284.9 77-386.2 101.2-101.5 253-131.7 385.4-76.9 132.1 54.7 218.4 184 218.4 327.6 0 46.4-9.4 92.5-27 135.5-17.7 43-44.1 81.8-76.6 114.7-33 33-72.1 59.3-114.8 77-43 18-89.1 27-135.5 27zm0-660.7c-81.1 0-158.8 32.3-216 89.8-57.5 57.5-89.8 135.2-89.8 216.7 0 81.1 32.3 159.1 89.5 216.3 57.2 57.5 135.2 89.8 216.3 89.8 80.7 0.3 158.7-31.9 215.9-89.5 57.6-57.5 89.8-135.2 89.8-216.6 0-81.2-32.2-159.2-89.4-216.7-57.6-57.2-135.2-89.8-216.3-89.8z"/>
</svg>