<?xml version="1.0" encoding="utf-8"?>
<!-- Generator: Adobe Illustrator 26.0.3, SVG Export Plug-In . SVG Version: 6.00 Build 0)  -->
<svg version="1.0" id="Layer_1" xmlns="http://www.w3.org/2000/svg" xmlns:xlink="http://www.w3.org/1999/xlink" x="0px" y="0px"
	 viewBox="0 0 882 562.7" style="enable-background:new 0 0 882 562.7;" xml:space="preserve">
<style type="text/css">
	.st0{fill:#B0182A;}
	.st1{fill:#EA5B67;}
	.st2{fill:#1DBBEE;}
	.st3{fill:#00758E;}
	.st4{fill:#78B94D;}
	.st5{fill:#5D9131;}
	.st6{fill:#177D3B;}
	.st7{fill:#A2C964;}
	.st8{fill:#458C34;}
	.st9{fill:#E5233E;}
	.st10{fill:#76191C;}
	.st11{fill:#B41731;}
	.st12{fill-rule:evenodd;clip-rule:evenodd;fill:#231F20;}
	.st13{fill:#231F20;}
	.st14{fill:#009EBA;}
	.st15{fill:#075975;}
</style>
<polygon class="st0" points="687.5,195.8 687.5,195.8 710.3,207.2 714.6,202.2 689.3,192.3 "/>
<polygon class="st1" points="714.6,202.2 721.4,207.2 752.1,195.6 748.3,191.7 "/>
<polygon class="st2" points="665,251.8 672.4,255.1 688.3,233.9 688.3,233.9 683.2,230.4 "/>
<polygon class="st3" points="643.5,250.4 643.3,254.1 643.3,254.1 664.6,258.1 665,251.8 643.5,250.4 "/>
<polygon class="st4" points="757.8,228.4 803.9,249.6 804,255.6 728.4,370.1 724.9,371 724.4,370.8 723.4,368.2 753.8,230.7 "/>
<polygon class="st5" points="773.3,258.2 724.9,371 728.4,370.1 804,255.6 "/>
<polygon class="st6" points="753.8,230.7 723.3,368.2 724.4,370.8 764.6,253.4 753.8,230.6 "/>
<polygon class="st7" points="771.6,250 773.3,258.2 804,255.6 804,255.6 803.9,249.6 "/>
<polygon class="st8" points="753.8,230.7 764.6,253.4 771.6,250 757.8,228.4 "/>
<polygon class="st9" points="687.5,195.8 689.3,192.3 748.3,191.7 752.1,195.6 723.8,290 722,291 722,291 720,289.8 "/>
<polygon class="st10" points="720,289.8 722,291 710.3,207.2 687.5,195.8 "/>
<polygon class="st11" points="721.4,207.2 722,291 722.1,291 723.8,290 752.1,195.6 752.1,195.6 "/>
<path class="st12" d="M442.4,362.4c0.1-1.1,0.1-2.8,0.2-5.2v-45.3l-0.2-4.4c0-0.6,0-1.3-0.1-1.9c0-0.3-0.1-0.6-0.2-0.9
	c-0.3-1.1-1.2-2-2.2-2.4c-1.5-0.5-3-0.7-4.6-0.7v-1.5h25.9c3.4,0,6.8,0.2,10.2,0.7c2.5,0.4,5,1,7.4,2c5.4,2.6,8.1,6.9,8,13
	c0.1,8.8-5.7,14.4-17.7,15.8l-2,0.3c2.7,0.2,5.4,0.7,8,1.4c1.7,0.4,3.4,1,5,1.8c6.3,3.2,9.5,8.3,9.4,15.4c0,8.6-4.1,14.1-12.6,16.8
	c-2.3,0.6-4.6,1-7,1.2c-3,0.3-6.1,0.5-9.2,0.5h-25.4v-1.5c3,0,5-0.5,6-1.6c0.4-0.3,0.6-0.7,0.8-1.2
	C442.3,364,442.4,363.2,442.4,362.4 M450.4,302.2v28.8h10.1c11.7-0.1,17.8-5,17.9-14.7c0.1-9.5-6.3-14.1-18.8-14.1H450.4z
	 M480.4,349.8c0-6.7-2.5-11.5-7.3-14.1c-1.8-0.8-3.6-1.4-5.6-1.7c-2.4-0.4-4.9-0.7-7.4-0.6h-9.7v33.6h9.7c7,0,12.2-1.3,15.3-4
	c1.7-1.4,2.9-3.3,3.7-5.4C480,355.1,480.4,352.4,480.4,349.8"/>
<path class="st13" d="M526.5,367.1c-0.5-1-0.9-2.2-1-5.4v-1l-0.6,0.7c-0.7,0.8-1.4,1.5-2.2,2.2c-0.8,0.7-1.6,1.3-2.5,1.9
	c-1.8,1.4-3.8,2.4-5.9,3.2c-2.1,0.6-4.2,0.9-6.4,0.9c-4.1,0-7.3-1-9.6-2.9c-1.3-1.2-2.3-2.7-3-4.3c-0.7-1.8-1.1-3.7-1.1-5.6
	c0.1-7.4,4.6-12.2,13.9-14.3c2.6-0.6,5.2-1.1,7.8-1.4c2.7-0.4,5.8-0.7,9.3-0.9l0.3-6.4c0-1.8-0.1-3.6-0.3-5.3
	c-0.2-1.2-0.5-2.5-1.1-3.6c-1.4-2.6-4.2-4-8.2-4c-6.5,0-10,3.1-10.4,9.2c0,0.7-0.1,1.4-0.2,2.1c-0.1,0.4-0.3,0.7-0.6,0.9
	c-1,0.5-2.1,0.8-3.1,0.7c-3.2,0-4.4-0.9-4.3-2.5c0-1.7,0.6-3.4,1.7-4.8c1.3-1.7,2.8-3.1,4.7-4.1c3.6-2,8.2-3,13.8-3
	c6.2,0,10.4,1.4,12.6,4.1c1,1.2,1.7,2.7,2,4.2c0.5,2.1,0.7,4.3,0.7,6.4v0.6v2.5l-0.1,6.6l-0.1,9.1l-0.1,4.4c0,2.1,0.1,3.7,0.2,5.4
	c0.2,1.8,0.8,3.7,2.1,4.2c1.8,0.6,3.6,0.9,5.5,0.8c1.5,0,3-0.2,4.4-0.7c1.2-0.5,2-1.7,2.2-3c0.3-2.2,0.5-4.4,0.4-6.6v-25.8
	c0.1-3.5-0.4-6-1.3-7.2s-2.8-1.8-5.3-1.8v-1.4l13.8-1v10.9l0.7-1.3c1.6-3.1,4-5.8,6.9-7.7c2.9-1.6,6.3-2.4,9.7-2.3
	c5.9-0.1,9.9,1.9,12.3,5.8c0.9,1.4,1.6,3,1.9,4.7c0.4,2.3,0.6,4.7,0.5,7.1v19.9c-0.1,2.2,0,4.4,0.4,6.6c0.1,1.3,1,2.5,2.2,3
	c1.7,0.5,3.4,0.7,5.1,0.7c1.4,0,2.8-0.2,4.1-0.7c1.2-0.6,2-1.7,2.1-3c0.3-2.2,0.5-4.4,0.4-6.6v-46.8c0.1-2,0-4-0.3-5.9
	c-0.1-1.2-1-2.2-2.1-2.7c-1.4-0.4-2.9-0.6-4.4-0.5v-1.4l14.3-0.7c-0.2,3.2-0.3,6.4-0.4,9.7c-0.1,3.5-0.1,6.5-0.1,9.1v31.5l15.8-17.3
	c2.2-2.5,3.4-4.6,3.5-6.2c0.1-2.3-2.2-3.4-6.1-3.5v-1.4H641v1.4c-1.1,0.1-2.2,0.3-3.2,0.7c-1.1,0.4-2.1,0.9-3.1,1.4
	c-1.1,0.6-1.9,1.2-2.6,1.7c-0.9,0.7-1.8,1.5-2.6,2.4c-1,1-2.4,2.5-4.3,4.5L620,339l13.6,21.4c1.1,2,2.6,3.8,4.3,5.4
	c1.4,1,3.1,1.7,4.8,1.9v1.4h-12.4c-0.3-0.7-0.8-1.6-1.4-2.7l-2-3.6l-1.5-2.7l-10.1-16.4l-7.9,8.9v5c-0.1,2.2,0,4.4,0.3,6.6
	c0.1,1.3,1,2.4,2.1,3c1.4,0.5,2.9,0.7,4.4,0.7v1.4h-42.1v-1.4c2.8-0.1,4.8-0.5,5.6-1.6c0.3-0.4,0.5-0.9,0.7-1.4
	c0.2-0.7,0.3-1.3,0.3-2c0-0.6,0.1-1.6,0.2-2.8s0.1-2,0.1-2.5v-19.4c0-4.8-0.5-8.3-1.6-10.5c-1.6-3.5-4.6-5.3-8.8-5.3
	c-4.7,0-8.4,2.2-11.2,6.6c-1.1,1.8-1.9,3.7-2.4,5.7c-0.6,2-0.9,4.1-0.9,6.3v16.7c-0.1,2.2,0,4.4,0.4,6.6c0.1,1.3,1,2.5,2.2,3
	c1.4,0.5,3,0.7,4.5,0.7v1.4h-20.7c-1.8,0-5.3,0.1-7.1,0.1c-1.7,0-2.7-0.2-4.4-0.4C527.6,368.5,527,368.1,526.5,367.1 M502,356.5
	c-0.1,2.7,0.7,5.4,2.3,7.6c1.5,1.9,3.7,3,6.1,3c5.2-0.1,9.9-2.8,12.6-7.2c0.9-1.7,1.5-3.4,1.7-5.3c0.4-2.6,0.6-5.3,0.5-8v-5
	c-3.5,0.3-6.9,0.7-10.3,1.4c-2.2,0.4-4.4,1.2-6.4,2.2C504.2,347.4,502,351.2,502,356.5"/>
<path class="st12" d="M96.8,340.1v17.1c-0.1,2.1,0.1,4.1,0.5,6.1c0.3,1.2,1.1,2.2,2.3,2.7c1.8,0.5,3.6,0.8,5.4,0.7v2.4H78v-2.4
	c1.7,0,3.4-0.2,5.1-0.7c1.1-0.5,1.9-1.5,2.1-2.7c0.4-2,0.6-4.1,0.5-6.1v-45.1c0.1-2.1-0.1-4.1-0.4-6.1c-0.2-1.2-1-2.2-2.1-2.6
	c-1.6-0.6-3.2-0.8-4.8-0.8v-2.4H104c8.7,0,15,1.5,19,4.6s6,8,6,14.6c0,9.3-3.6,15.4-10.9,18.3c-2.4,0.9-4.8,1.5-7.3,1.8
	c-3.3,0.4-6.6,0.7-9.9,0.6L96.8,340.1z M96.8,337.4h4.4c5.3,0,9.3-1.2,11.8-3.8c1.5-1.6,2.5-3.6,3.1-5.7c0.7-2.6,1.1-5.3,1-8.1
	c0-11.3-5-17-14.9-17h-5.5V337.4z"/>
<path class="st12" d="M172.4,342.9H141c0,2.8,0.2,5.6,0.6,8.4c0.3,2.1,0.9,4.2,1.7,6.2c2.6,6,6.7,9.1,12.1,9.1c3,0,6-0.9,8.4-2.7
	c2.7-2,4.8-4.7,6.3-7.8l2.2,1.4c-1.8,3.9-4.5,7.2-8,9.6c-3.5,2.1-7.5,3.2-11.5,3c-7.1-0.1-13.7-2.4-17.8-6.8s-6.2-10.6-6.3-18.4
	c0.1-7.8,2.1-14,6.1-18.6c4-4.6,10.3-6.9,17.1-7c4.5,0,8.9,1.1,12,3.1c3.2,2.2,5.6,5.3,6.9,9c0.5,1.5,0.9,3,1.1,4.5
	c0.3,2.3,0.5,4.5,0.5,6.8 M141,340.2h19.7c-0.1-2.8-0.2-5.1-0.5-6.9c-0.2-1.6-0.5-3.1-1.1-4.6c-1.6-4.8-4.2-7.2-7.6-7.2
	c-3.8,0-6.7,2.7-8.6,8.1c-0.5,1.5-0.9,3-1.2,4.6c-0.3,2-0.6,4-0.7,6"/>
<path class="st13" d="M174.4,320.8l17.4-1.2c0.1,1.8,0.2,3.2,0.2,4.4c0,1.2,0.1,2.2,0.1,3.1v2.8c3.8-6.9,8.3-10.4,13.7-10.5
	c2.1-0.1,4.1,0.7,5.6,2c1.4,1.3,2.2,3.1,2.2,5c0,1.6-0.6,3.1-1.9,4.1c-1.4,1.1-3.1,1.6-4.8,1.6c-2.4,0-3.8-0.9-4.4-3
	c-0.2-0.9-0.6-1.8-1.1-2.6c-0.4-0.5-1-0.7-1.6-0.6h-0.2c-1.8,0.2-3.5,1.6-5.2,4.4c-0.8,1.4-1.3,3-1.7,4.5c-0.4,1.9-0.6,3.8-0.6,5.8
	v17.1c-0.1,2,0.1,4,0.4,6c0.1,1.2,0.9,2.1,2,2.5c1.6,0.5,3.3,0.7,4.9,0.7v2.2H174v-2.2c1.6,0.1,3.2-0.1,4.7-0.6
	c1.1-0.5,1.8-1.5,2-2.6c0.4-2,0.5-4,0.4-6V332c0.1-3.8-0.3-6.3-1.1-7.4s-2.7-1.7-5.5-1.5L174.4,320.8z"/>
<path class="st13" d="M234.3,319.6l0.1,9.2c3.7-6.1,9.1-9.3,16.1-9.3s11.5,3.2,13.1,9.7c1.7-3,4-5.5,6.9-7.4c2.7-1.6,5.8-2.4,9-2.3
	c5.5,0,9.5,1.8,12,5.4c1.1,1.5,1.8,3.1,2.2,4.9c0.5,2.5,0.7,5,0.6,7.6v20.4c-0.1,2,0.1,4,0.4,6c0.2,1.2,0.9,2.1,2,2.6
	c1.5,0.5,3.1,0.7,4.6,0.6v2.2h-25v-2.2c1.5,0.1,3-0.1,4.5-0.6c1-0.5,1.7-1.5,1.9-2.6c0.3-2,0.5-4,0.4-6v-20.3
	c0-4.9-0.6-8.4-1.8-10.5c-1.2-2.1-3.5-3.4-5.9-3.2c-3.3,0-6,1.6-8.3,5.1c-1.9,2.8-2.9,6-2.9,9.4v19.6c-0.1,2,0.1,4,0.4,6
	c0.1,1.1,0.9,2.1,1.9,2.6c1.5,0.5,3,0.7,4.5,0.6v2.2h-24.8v-2.2c1.5,0.1,3-0.1,4.5-0.6c1-0.5,1.7-1.5,1.9-2.6c0.3-2,0.4-4,0.4-6
	v-20.4c0-9.2-2.5-13.7-7.5-13.6c-3.2,0.1-6.1,1.8-7.9,4.5c-2.2,3.1-3.4,6.9-3.3,10.7v18.8c-0.1,2,0.1,4.1,0.4,6.1
	c0.1,1.1,0.9,2.1,1.9,2.6c1.4,0.5,3,0.6,4.5,0.6v2.2h-25.1v-2.2c1.6,0.1,3.2-0.1,4.7-0.6c1.1-0.5,1.8-1.5,1.9-2.6
	c0.4-2,0.5-4,0.4-6.1v-25.7c0.1-3.8-0.2-6.2-1.1-7.3s-2.8-1.6-5.7-1.6v-2.2L234.3,319.6z"/>
<path class="st13" d="M367.1,323.8v30.9c0,1.7,0,3.3,0.2,5c0.1,1.1,0.3,2.2,0.7,3.3c0.3,1,1,1.9,1.8,2.5c0.8,0.6,1.7,0.9,2.7,1
	c2,0,4.2-1,6.5-2.9l1.3,2.3c-3.5,3-8,4.7-12.7,4.6c-5.1-0.1-8.6-1.8-10.5-5.1c-0.4-0.8-0.6-1.7-0.8-2.5c-0.2-1.3-0.4-2.5-0.4-3.8
	c-0.1-1.6-0.1-3.7-0.1-6.5v-28.9h-5.3v-2.7c1.8,0,3.5-0.5,5.1-1.3c1.5-0.9,2.8-2.1,3.6-3.6c0.8-1.3,1.5-2.7,2-4.2
	c0.6-1.9,1.1-3.8,1.4-5.7l4.6-0.5c-0.1,1.2-0.1,2.5-0.2,3.7s-0.1,2.8-0.1,4.5s0,4.1,0,6.8h11.2v3H367.1z"/>
<path class="st12" d="M350.5,367.1v2c-2.7,0.2-3.8,0.2-6.6,0.2c-2.2,0.1-4.4-0.1-6.5-0.8c-1.1-0.3-2-0.9-2.8-1.8c-0.6-1-1-1-1.2-3.8
	c-2.1,2.4-4.6,4.3-7.5,5.7c-2.6,1.2-5.5,1.9-8.4,1.8c-4.4-0.1-7.9-1.3-10.4-3.7s-3.8-5.7-3.8-9.9c0-7.9,4.9-12.9,14.8-14.8
	c5-0.9,10.1-1.5,15.2-1.8v-6c0.1-4.8-0.5-8.2-1.5-10s-2.9-2.8-5.7-2.7c-2.9-0.1-5,1-6.2,3.2c-0.5,0.8-0.8,1.6-1,2.5
	c-0.2,1.3-0.4,2.7-0.5,4c0.1,1.3-0.5,2.6-1.4,3.5c-1.2,0.8-2.7,1.1-4.2,1c-4.3,0-6.5-1.5-6.5-4.3c0-1.7,0.6-3.3,1.5-4.7
	c1.1-1.6,2.6-2.9,4.2-3.9c3.9-2.4,8.9-3.5,15.2-3.5c6.3,0,10.9,1.2,13.7,3.8c1.3,1.2,2.2,2.8,2.8,4.5c0.6,2.3,0.9,4.6,0.9,7l-0.1,8
	l-0.1,8c-0.1,2.6-0.1,4.3-0.1,5c-0.1,2.4,0,4.9,0.3,7.3c0.1,1.2,0.6,2.3,1.5,3C347.4,366.9,349,367.2,350.5,367.1 M333.3,349.5v-7.2
	c-6.6,0.5-11.3,1.7-14.1,3.7s-4.1,5.1-4,9.4c-0.1,2.8,0.6,5.5,2,7.9c1.2,1.9,3.2,3,5.5,3c1.9,0,3.7-0.6,5.2-1.6
	c1.6-1.1,2.9-2.7,3.8-4.5c0.6-1.4,1.1-2.8,1.3-4.3C333.2,353.8,333.3,351.6,333.3,349.5"/>
<path class="st12" d="M430.2,367.1v2c-2.7,0.2-3.8,0.2-6.6,0.2c-2.2,0.1-4.4-0.1-6.5-0.8c-1.1-0.3-2-0.9-2.8-1.8c-0.6-1-1-1-1.2-3.8
	c-2.1,2.4-4.6,4.3-7.5,5.7c-2.6,1.2-5.5,1.9-8.4,1.8c-4.5-0.1-7.9-1.3-10.4-3.7s-3.8-5.7-3.8-9.9c0-7.9,4.9-12.9,14.8-14.8
	c5-0.9,10.1-1.5,15.2-1.8v-6c0-4.8-0.5-8.2-1.5-10s-3-2.8-5.7-2.6c-2.9-0.1-5,1-6.2,3.1c-0.5,0.8-0.8,1.7-1,2.6
	c-0.3,1.3-0.4,2.7-0.5,4c0.1,1.3-0.5,2.6-1.4,3.5c-1.3,0.8-2.7,1.1-4.2,1c-4.3,0-6.5-1.4-6.5-4.3c0-1.7,0.5-3.3,1.5-4.7
	c1.1-1.6,2.6-2.9,4.2-3.9c3.9-2.4,8.9-3.5,15.2-3.5s10.9,1.2,13.7,3.8c1.3,1.2,2.2,2.8,2.8,4.5c0.6,2.3,0.9,4.6,0.8,7l-0.1,8
	l-0.1,8.1c-0.1,2.6-0.1,4.3-0.1,5c-0.1,2.4,0,4.9,0.3,7.3c0,1.2,0.6,2.3,1.5,3.1C427,367,428.6,367.3,430.2,367.1 M412.9,349.6v-7.1
	c-6.6,0.4-11.3,1.7-14.1,3.7s-4.1,5.1-4,9.4c-0.1,2.8,0.6,5.5,2,7.9c1.2,1.9,3.2,3,5.5,3c1.9,0,3.7-0.6,5.2-1.6
	c1.6-1.1,2.9-2.7,3.7-4.5c0.7-1.4,1.1-2.8,1.3-4.3C412.8,353.9,412.9,351.7,412.9,349.6"/>
<polygon class="st14" points="643.5,250.4 643.3,254.1 714.6,337.7 717.1,338.1 717.4,337.9 718.7,335.6 688.3,233.9 683.2,230.4 
	"/>
<polygon class="st15" points="714.6,337.7 717.1,338.1 717.1,338.1 664.6,258.1 643.3,254.1 "/>
<polygon class="st3" points="672.4,255.1 717.4,337.9 717.4,337.9 718.7,335.6 688.3,233.9 "/>
</svg>
