<?xml version="1.0" encoding="utf-8"?>
<!-- Generator: Adobe Illustrator 19.0.0, SVG Export Plug-In . SVG Version: 6.00 Build 0)  -->
<svg version="1.1" id="layer" xmlns="http://www.w3.org/2000/svg" xmlns:xlink="http://www.w3.org/1999/xlink" x="0px" y="0px"
	 viewBox="-153 -46 652 652" style="enable-background:new -153 -46 652 652;" xml:space="preserve">
<style type="text/css">
	.st0{fill:#E23221;}
	.st1{fill:#382D71;}
	.st2{fill:#FFFFFF;}
	.st3{fill:none;stroke:#000000;stroke-width:3.6419;}
</style>
<path class="st0" d="M315.9,169.1c6.8,15.8-6,36.4-28.5,46.1c-22.5,9.7-46.3,4.7-53-11.1c-6.8-15.8,6-36.4,28.5-46.1
	C285.4,148.4,309.1,153.3,315.9,169.1"/>
<path class="st1" d="M194.1,301.2l-6.7,15.3c0,0-1.3,4.1-7.8,4.1l-15.3-0.5l9.8-24.6h16.6C190.8,295.5,195.4,295.5,194.1,301.2
	 M208.9,278.1l-62.9,0.3l-6.5,16.3h7c0,0,3.9,1.3,2.3,5.4l-24.1,60h23.8l9.3-22.5h28.7c0,0,14-0.2,21.7-13.7l12.9-32.1
	C221.3,291.8,225.4,281,208.9,278.1"/>
<path class="st2" d="M190.8,295.5h-16.6l-9.8,24.6l15.3,0.5c6.5,0,7.8-4.1,7.8-4.1l6.7-15.3C195.4,295.5,190.8,295.5,190.8,295.5"/>
<path class="st1" d="M263,320.6h-17.3c0,0-3.6-0.5-1.8-6.7c0,0,5.4-18.6,13.2-19.2l15.3,0.5L263,320.6z M289.6,311.5l13.5-33.1
	h-49.7c0,0-19.9,2.1-25.3,15l-10.6,25.3c0,0-5.2,16.6,9.1,17.9h64.2l6.7-16C297.4,320.6,285.2,322.1,289.6,311.5"/>
<path class="st2" d="M243.8,313.8c-1.8,6.2,1.8,6.7,1.8,6.7H263l9.3-25.3l-15.3-0.5C249.3,295.2,243.8,313.8,243.8,313.8"/>
<path class="st1" d="M350.7,304.3l-17.9,11.4c-2.7,1.4-4.3-0.5-4.3-0.5l-7.2-8.2c-1.9-2.4,1.1-5.9,1.1-5.9l13.8-8.8
	c6.1-2.6,8.5,0.1,8.5,0.1l6.1,5.9C352.8,301.5,350.7,304.3,350.7,304.3 M375.7,295.6l-8.8-9.4c-3.7-3.4,0.3-6.7,0.3-6.7l4.3-3
	l-11-11.8c-33.1,16.6-60.2,35-60.2,35c-5.1,6.2-0.3,13.5-0.3,13.5l21,21.8c2.1,5.9-4,7.2-4,7.2l-14.9-0.2l-7.4,16.2
	c3.8,0,26.6-0.3,26.6-0.3c20.7-10.4,26.4-18.7,26.4-18.7c3.7-5.1-0.1-10.4-0.1-10.4c-2.7-3.4,1.8-4.8,1.8-4.8
	c17.1-9.4,25.1-17.1,25.1-17.1C378.7,301.4,375.7,295.6,375.7,295.6"/>
<path class="st2" d="M344.6,292.4c0,0-2.4-2.7-8.5-0.2l-13.8,8.8c0,0-3,3.5-1.1,5.9l7.2,8.2c0,0,1.6,1.9,4.3,0.5l17.9-11.4
	c0,0,2.1-2.7,0-5.9L344.6,292.4z"/>
<path class="st1" d="M438.1,309.5c-0.2,0.8-16.2,9.3-16.2,9.3c-5.1,2.7-8.8,0.3-8.8,0.3c-2.6-1.4-7.7-7.7-7.7-7.7
	c-1.9-2.1,0.2-5.1,0.2-5.1c3.2-3.2,16.8-10.1,16.8-10.1c3.2-2.1,8.3,0.5,8.3,0.5l7.4,6.7C441.1,306.3,438.1,309.5,438.1,309.5
	 M464.6,297.6c0,0-17.9-17.8-22.2-19.5c0,0-9.6-4.3-18.9,0.2c0,0-28.2,14.1-41.3,22.9c0,0-8.2,6.2-5.1,14.3c0,0,16.6,19.3,21.8,21.7
	c0,0,6.4,4.5,17.6,1.1c0,0,32-12.3,48-27.5C464.5,310.8,469.3,305.3,464.6,297.6"/>
<path class="st2" d="M430.7,296.7c0,0-5.1-2.6-8.3-0.5c0,0-13.6,6.9-16.8,10.1c0,0-2.1,3-0.2,5.1c0,0,5.1,6.2,7.7,7.7
	c0,0,3.7,2.4,8.8-0.3c0,0,16-8.5,16.2-9.3c0,0,3-3.2,0-6.1L430.7,296.7z"/>
<path class="st0" d="M136.1,278.4h-23.7c0,0-15,36.6-16.5,41.6c0,0-2.9,9,1.4,12.5c0,0,4.7,4.7,9.8,4.7l16.5-0.2l7-16.3h-5.3
	c0,0-6.1-1.3-3.5-7L136.1,278.4z"/>
<path class="st0" d="M125.2,254.7c0,0,8.8-2.9,13.8,0.5c0,0,6.4,3.8,1.3,10.7c0,0-4,6.7-15,6.9c0,0-9.3,1.1-9.9-6.6
	C115.2,266.3,114.8,258.4,125.2,254.7"/>
<path class="st0" d="M70,301.5c0,3.2-6.1,14.7-6.1,14.7c-3,4.2-8,4.2-8,4.2H40.7l10.2-24.8h15.9C72.2,295.7,70,301.5,70,301.5
	 M94.4,282.1c0,0-3.2-3.5-11.2-4.2l-60.3,0.2l-6.2,16.6h5.1c0,0,5.6,0,2.4,8.2L1.8,360.2l23.5,0.2l8.6-23.5l30.6,0.2
	c0,0,8.8,1,16.8-8.8c0,0,12.2-19.4,15.4-33.9C96.7,294.3,99.7,286.3,94.4,282.1"/>
<path class="st2" d="M66.8,295.6H50.9l-10.2,24.8h15.2c0,0,5,0,8-4.2c0,0,6.1-11.5,6.1-14.7C70,301.5,72.2,295.7,66.8,295.6"/>
<path class="st0" d="M-24.1,320l-15.9,0.3c0,0-5.8-0.3-3.2-7.8c0,0,2.9-10.1,6.1-13.4c0,0,2.1-3.8,8.3-3.8l13.9,0.3L-24.1,320z
	 M2.7,310.9L16,278.1l-47.7-0.1c-7.2,0-15.2,3.7-15.2,3.7c-9.3,4.5-11.4,10.9-11.4,10.9c-3.5,5.3-10.7,25.6-10.7,25.6
	c-4.2,10.1,0,13.6,0,13.6c4,5.6,11.7,5.4,11.7,5.4l61.1,0.2l6.7-16.2L3,319.9C-0.6,318.1,2.7,310.9,2.7,310.9"/>
<path class="st0" d="M-59.7,278.3l-7,17h-18.7c0,0-5.1-1-8.3,6.2l-13.9,35.6l-24,0.3l23.4-59.2L-59.7,278.3z"/>
<path class="st1" d="M268.3,142.7c0,0-23.2,7.8-31,17c0,0-13.3,11.8-17.6,30.6c0,0-2.1,17.6,6.6,26.3c0,0,8,10.2,15.9,13
	c0,0,11.2,4.6,27.8,3c0,0,27.9-3.5,42.4-19.5c0,0-7,14.9-29.4,30.1c0,0-15.4,11.2-40,16.8c0,0-22.6,5.9-42.3,1c0,0-20.2-4-29.6-16
	c0,0-10.2-10.1-10.4-24.5c0,0-1.3-16.2,12-34.4c0,0,13.6-16.6,27.2-24.6c0,0,17.8-10.1,31.2-14.1C231,147.2,249.1,141.4,268.3,142.7
	"/>
<polyline class="st3" points="-111.6,373.5 -126.9,400.5 -130.8,373.2 "/>
<path class="st3" d="M-84.4,398.3c0,0-9.5,8.9-12.1-2.8c0,0,0-13.7,8.5-14.1c0,0,6.5-1,4.8,5.1c0,0-0.9,3.1-4.5,4.6
	c0,0-6.2,0.6-7.7,0.4"/>
<line class="st3" x1="-58.8" y1="381.2" x2="-62.3" y2="401.8"/>
<path class="st3" d="M-59.9,387.6c0,0,6.9-6.5,9.7-5.9c0,0,4-0.1,3.4,4.4l-3.4,15.4"/>
<line class="st3" x1="-21.4" y1="376.7" x2="-14.4" y2="372.5"/>
<line class="st3" x1="-20.9" y1="381.4" x2="-25.6" y2="402.1"/>
<path class="st3" d="M12.8,382.6c0,0-6.3-3.6-9.9,0.5c0,0-3.4,4.8,1,6.7c0,0,7.4,2.5,6.9,5.7c0,0,0.5,4.4-6.9,5.8
	c0,0-4.4,0.6-6.6-1.9"/>
<path class="st3" d="M21.6,400.1c0,0,0.1-2.7,2.6-2c0,0,1.8,1.6-0.2,2.8C24,400.9,22.7,402.2,21.6,400.1z"/>
<path class="st3" d="M24,400.9c0,0-0.6,4.6-4.3,5.9"/>
<line class="st3" x1="75" y1="381.7" x2="69.4" y2="409.5"/>
<path class="st3" d="M74,387.4c0,0,4.9-5.3,8.6-5.4c0,0,5.3-0.4,4.9,5c0,0,0.2,8.2-3.4,11c0,0-3.4,4.5-12,2.4"/>
<path class="st3" d="M121.2,401.3c0,0-0.7-3.7,0-6.8l2.2-9.2c0,0,1.3-5.8-7.5-3.1c0,0-5.4,3.5-6.5,10c0,0-2,7,2.3,8.4
	c0,0,3.1,1.6,8.7-4.1"/>
<path class="st3" d="M121.2,401.3c0,0-0.7-3.7,0-6.8l2.2-9.2c0,0,1.3-5.8-7.5-3.1c0,0-5.4,3.5-6.5,10c0,0-2,7,2.3,8.4
	c0,0,3.1,1.6,8.7-4.1"/>
<path class="st3" d="M160.3,384.3c0,0-2.8-5.9-9.4-1.1c0,0-5.6,4.3-5.9,9.1c0,0-1.8,8.1,3.8,8.7c0,0,5.3-0.3,9.4-5.2
	C158.2,395.8,161.3,387,160.3,384.3z"/>
<path class="st3" d="M159.1,392.5c0,0-1.1,10-3.5,13.8c0,0-4.9,6.4-14.6,1"/>
<line class="st3" x1="198.6" y1="372.3" x2="190.3" y2="377.1"/>
<path class="st3" d="M193.8,401.5c0,0-0.7-3.7,0-6.8l2.2-9.2c0,0,1.3-5.8-7.5-3.1c0,0-5.4,3.5-6.5,10c0,0-2,7,2.3,8.4
	c0,0,3.1,1.6,8.7-4.1"/>
<path class="st3" d="M230.5,382.6c0,0-6.3-3.6-9.9,0.5c0,0-3.4,4.8,1,6.7c0,0,7.4,2.5,6.9,5.7c0,0,0.5,4.4-6.9,5.8
	c0,0-4.4,0.6-6.6-1.9"/>
<line class="st3" x1="275.7" y1="381.2" x2="278.3" y2="401.6"/>
<path class="st3" d="M289.4,382c0,0-8.1,15.9-10.5,19.9c0,0-2.3,5-6.7,7.2"/>
<path class="st3" d="M334.7,402.1c0,0-3.6-0.7-2.2-7.8l4.4-22.6"/>
<line class="st3" x1="360.4" y1="380.7" x2="355.4" y2="402.2"/>
<path class="st3" d="M393.4,382.5c0,0-6.3-3.6-9.9,0.5c0,0-3.4,4.8,1,6.7c0,0,7.4,2.5,6.9,5.7c0,0,0.5,4.4-6.9,5.8
	c0,0-4.4,0.6-6.6-1.9"/>
<path class="st3" d="M419.5,375.6c0,0-4.1,13.6-4.9,20.7c0,0-1.7,7,5.2,4.8"/>
<line class="st3" x1="423.8" y1="382.1" x2="413.4" y2="381.9"/>
<path class="st3" d="M450.7,381.8c0,0,6-0.4,5.6,7.3c0,0-1.1,6.5-4.4,9.6c0,0-7.4,5.5-10-0.5c0,0-1.9-7.9,1.4-11.6
	C443.4,386.6,446.3,381.5,450.7,381.8z"/>
<path class="st3" d="M466.9,398c0,0,1.4,0.1,1.4,1.3c0,0-0.2,2-1.4,1.2C466.9,400.5,464.5,399.1,466.9,398z"/>
</svg>
